<?xml version="1.0" encoding="UTF-8"?>
<svg id="Insignias" xmlns="http://www.w3.org/2000/svg" viewBox="0 0 108 108">
  <defs>
    <style>
      .cls-1 {
        fill: #231f20;
      }
    </style>
  </defs>
  <g id="First_Class_Insignia" data-name="First Class Insignia">
    <path class="cls-1" d="M34.227,48.415c-.799-.377-1.637-.689-2.389-1.144-2.318-1.402-4.565-2.92-6.222-5.113-1.6-2.117-2.715-4.457-2.991-7.148-.14-1.359-.156-2.704.105-4.048.354-1.828,1.248-3.368,2.528-4.693,1.636-1.695,3.506-3.024,5.835-3.586.522-.126,1.067-.155,1.642-.235.368-.099,2.05-.002,2.975.19.846.176,1.735.31,2.497.683,1.282.629,2.479,1.433,3.712,2.163.067.04.137.074.283.154.102-.515.195-.987.289-1.459.222-1.106.383-2.228.678-3.313,1.097-4.036,3.301-7.53,5.443-11.06,1.515-2.496,2.939-5.047,4.376-7.589.28-.495.448-1.056.64-1.596.133-.373.365-.595.76-.62.432-.027.443.359.546.617.384.961.731,1.936,1.114,2.898.816,2.052,2.081,3.843,3.323,5.644,1.445,2.096,2.68,4.301,3.729,6.622,1.169,2.585,2.073,5.244,2.558,8.04.103.594.167,1.195.259,1.859.161-.102.271-.156.363-.233,2.155-1.786,4.622-2.875,7.387-3.283,1.397-.206,2.841-.246,4.162.166,2.087.651,3.977,1.698,5.262,3.616,1.602,2.391,2.563,4.97,2.354,7.867-.088,1.219-.355,2.446-.702,3.623-.663,2.253-2.036,4.073-3.779,5.618-1.742,1.544-3.682,2.804-5.738,3.886-.317.167-.673.26-1.106.423.087-.86.193-1.614.234-2.372.067-1.241-.153-2.444-.539-3.626-.696-2.127-2.649-3.149-4.854-2.787-2.367.389-3.899,1.915-5.014,3.934-.067.121-.082.273-.107.413-.086.468-.168.936-.246,1.406-.125.752-.26,1.502-.356,2.257-.017.133.102.359.222.422,1.091.575,1.575,1.376,1.494,2.541-.082,1.174-.872,1.74-1.847,2.145-.102.042-.208.075-.311.112-.044.507.214.726.661.897.385.147.709.452,1.062.683.074.049.161.116.24.114,1-.031,1.98-.113,2.796-.812.885-.759,1.417-1.713,1.672-2.836.066-.293.111-.59.166-.887,3.882,1.173,6.904,5.999,3.547,11.117,1.541-.796,2.905-1.808,4.079-3.11,1.146-1.272,2.553-2.326,3.093-4.072.065.008.13.017.194.025.283,1.333.637,2.655.833,4.001.42,2.881-.478,5.546-1.482,8.185-.36.946-.759,1.855-1.508,2.574-.363.348-.409.779-.303,1.281.338,1.6,1.176,2.954,2.029,4.306.26.412.475.799,1.064.902.629.11.943.7.754,1.332-.136.455-.357.957-.697,1.266-1.036.944-2.12,1.841-3.235,2.692-2.958,2.257-6.301,3.802-9.711,5.238-2.62,1.104-5.366,1.609-8.151,1.993-.503.069-1.006.141-1.499.21.528,1.627.253,3.238.066,4.844-.07.602-.112,1.168.241,1.708.07.107.046.341-.026.461-.196.327-.448.62-.666.936-.417.604-.39.938.103,1.471.499.539.526,1.053.132,1.682-.066.105-.016.305.024.449.378,1.351.816,2.688,1.138,4.052.309,1.312.255,2.63-.294,3.897-.695,1.604-2.996,2.134-4.266.951-1.167-1.087-1.643-2.473-1.464-4.033.191-1.662.442-3.32.762-4.962.255-1.311.652-2.593.992-3.912-.154-.126-.366-.226-.457-.392-.161-.292-.322-.619-.346-.941-.025-.332.047-.71.195-1.009.304-.611-.028-1.088-.258-1.574-.299-.631-.674-1.226-.998-1.846-.05-.096-.025-.251.006-.368.097-.369.214-.732.343-1.161-.543-.057-1.076-.112-1.609-.168-5.136-.537-10.068-1.804-14.711-4.11-2.88-1.43-5.52-3.215-7.9-5.375-.287-.26-.482-.677-.597-1.058-.162-.538.085-1.06.681-1.193.994-.222,1.447-.844,1.793-1.723.266-.676.718-1.279,1.076-1.92.58-1.04.58-2.016-.132-3.046-1.19-1.72-2.303-3.494-3.016-5.483-.656-1.83-.822-3.696-.481-5.61.042-.234.043-.476.051-.715.021-.647.234-1.185.89-1.546,1.64,1.984,3.664,3.545,5.859,4.921-.642-1.081-1.408-2.106-1.398-3.497-.157.092-.259.151-.361.21-.016-.021-.049-.045-.046-.061.189-.871.286-1.777.59-2.606.701-1.911,1.802-3.491,3.935-4.032.154-.039.305-.092.457-.138.633-.19.968.008,1.116.642.277,1.18.942,2.049,2.082,2.508.208.084.459.052.682.108.256.065.501.174.754.251.087.027.218.058.275.015.635-.484,1.259-.981,1.887-1.475-.023-.05-.047-.101-.07-.151-.145-.041-.287-.103-.434-.119-1.226-.134-2.249-.981-2.376-2.101-.11-.973.287-2.097,1.584-2.636.49-.203.533-.526.458-.925-.165-.875-.565-1.758-.502-2.612.131-1.798-.959-2.778-2.156-3.704-.764-.591-1.681-.829-2.661-1.021-1.603-.313-2.869.098-3.933,1.218-.587.618-1.049,1.329-1.086,2.272-.028.709-.287,1.406-.385,2.117-.172,1.25-.106,2.486.366,3.676.022.055.018.12.026.181-.037.052-.073.105-.11.157ZM47.076,44.319c-.131,1.493.24,2.85,1.191,4.007.212.257.631.344.955.509l.116-.153c-.084-.142-.163-.288-.252-.427-.285-.443-.62-.861-.851-1.331-.419-.853-.777-1.736-1.161-2.606-.183-.834-.4-1.663-.536-2.504-.065-.407-.207-.445-.527-.302-.537.24-1.006,1.077-.913,1.718.116.802.246,1.604.417,2.396.22,1.018.251,2.018-.111,3.01-.166.455-.33.911-.531,1.467.296-.065.517-.082.712-.162.777-.317,1.603-1.588,1.501-2.435-.11-.912-.33-1.811-.493-2.718-.038-.214-.04-.435-.064-.704.258.11.403.173.547.236ZM52.394,26.979l.005-.002c-.025-.16-.051-.321-.08-.506.775-.214,1.403.14,2.028.544.473.306.965.582,1.555.934-.03-.278-.042-.389-.058-.539.373.104.697.194,1.154.32-.201-.362-.338-.609-.484-.872.615.098.919.018,1.157-.323-1.367-.119-2.632-.521-3.85-1.096-.267-.126-.581-.19-.878-.206-.596-.031-1.085.201-1.404.728-.017.029.013.086.023.138.111-.08.21-.151.344-.248.081.243.144.432.209.626-.154.093-.28.168-.443.267-.126-.177-.239-.37-.386-.531-.121-.132-.273-.3-.431-.323-.503-.075-1.015-.101-1.525-.124-.398-.018-.694.146-.889.521-.221.423-.284.818.083,1.338.117-.775.63-.889,1.317-.903-.232-.078-.347-.117-.461-.155l.035-.143c.392.068.802.086,1.17.22.312.113.601.333.843.566.072.069.01.405-.097.505-.229.213-1.189.023-1.304-.271-.151-.39-.403-.296-.81-.291.26.22.426.357.589.498.697.606,1.429,1.178,2.08,1.829.659.659.657,1.495.107,2.241-.164.222-.317.451-.535.763.519-.067,1.07.3,1.297-.484.074.278.149.556.245.913.329-.272.59-.488.894-.74.114.277.202.489.277.672.583.186.82-.241,1.128-.728.228.437.412.791.646,1.239.245-.365.416-.619.6-.892.346.297.651.56.968.832.338-.798.239-1.234-.372-1.732-.055.051-.123.095-.166.157-.352.504-.534.493-.859-.053-.094-.158-.202-.306-.414-.625-.106.202-.15.328-.228.427-.392.501-.469.502-.834.011-.103-.139-.176-.301-.305-.528-.328.368-.515.579-.689.774-.035-.007-1.255-.266-1.314-.279.259-.32.502-.618.671-.827-.419-1.011-1.092-1.703-1.952-2.228,1.168-.038,1.538.86,1.977,1.662.351-.266.637-.482.939-.711.18.248.326.45.499.688.284-.207.564-.563.778-.527.246.041.434.429.719.747.068-.101.136-.23.229-.337.441-.501.486-.494.954.009.126.135.289.234.504.404.075-.832-.437-1.279-.807-1.882.344.051.596.088.981.144-.167-.339-.283-.575-.4-.812-.449.169-.825.311-1.201.453-.006.068-.012.136-.018.204-.599-.351-1.194-.708-1.799-1.048-.099-.056-.263-.094-.354-.05-.654.314-1.165.031-1.658-.36ZM55.877,33.993c-.224-.307-.447-.615-.765-1.051-.042.271-.123.482-.073.519.266.197.564.351.851.52.153.415,1,.92,1.534.915-.047-.137-.094-.275-.143-.416h.939v-.541c.15.158.252.234.312.335.077.129.121.277.179.418-.144.039-.286.085-.431.115-.147.031-.297.047-.459.071.181.456,1.15.709,1.912.531-.081-.166-.156-.321-.24-.492.183-.087.333-.158.499-.237-.085-.229-.16-.429-.234-.628.032-.022.063-.044.095-.067.21.23.42.459.654.715-.214.145-.355.241-.492.334.195.558.653.706,1.069.34.213-.188.377-.43.573-.639.302-.323.262-.549-.174-.68-.054-.016-.103-.047-.207-.096.544-.404,1.337-.467,1.471-1.27-.182-.053-.318-.093-.554-.162.66-.218,1.218-.408,1.405-1.081-.152-.077-.267-.136-.463-.236.905-.224,1.778-.333,2.264-1.224-.11-.039-.169-.051-.218-.081-.051-.032-.091-.081-.187-.17,1.327-.016,2.265-.685,3.164-1.46.214-.185.512-.322.792-.374,2.381-.445,4.808-.689,7.088-1.567.81-.312,1.587-.726,2.339-1.162.382-.222.501-.893.266-1.202-.268-.351-.648-.251-1.005-.117-.045.017-.089.034-.135.049-2.426.788-4.838,1.62-7.282,2.345-1.398.415-2.769.838-4.007,1.638-.695.449-1.419.871-2.175,1.201-1.03.451-1.755,1.188-2.337,2.113-.315.5-.616,1.013-.98,1.475-.819,1.037-1.236,1.447-2.62.708-.025-.013-.062-.005-.109-.007-.112.155-.23.318-.384.531-.242-.186-.485-.32-.654-.517-.232-.27-.407-.181-.59.019-.17.186-.324.386-.491.584ZM61.108,60.431c-.258.562-.516,1.037-.7,1.54-.648,1.772-1.573,3.394-2.754,4.847-.77.947-1.678,1.787-2.577,2.619-.226.209-.63.434-1.004.13-1.002-.814-2.102-1.538-2.98-2.469-1.378-1.461-2.273-3.266-3.117-5.081-.176-.38-.349-.761-.538-1.173-1.533,1.549-3.361,2.319-5.584,2.564.643.538,1.178.982,1.71,1.43.749.631,1.452,1.299,1.892,2.199.307.628.291,1.25-.077,1.826-.21.329-.522.595-.791.886-.246.267-.523.511-.739.8-.265.354-.476.747-.719,1.117-.139.212-.318.401-.439.622-.17.312-.127.576.238.742.58.265,1.142.574,1.73.82,5.537,2.31,11.224,2.63,17.027,1.234,2.042-.491,3.985-1.256,5.815-2.289.596-.337.907-.744.427-1.47-.59-.893-1.274-1.679-2.18-2.256-.696-.443-.941-1.033-.84-1.865.097-.802.494-1.452.977-2.047.538-.662,1.145-1.268,1.801-1.985-.268-.087-.5-.201-.743-.231-.537-.066-1.083-.06-1.616-.142-.368-.056-.726-.197-1.08-.323-1.179-.419-2.165-1.145-3.137-2.046ZM54.484,84.729c2.306.012,4.578-.22,6.824-.653,4.687-.903,9.07-2.593,13.084-5.198,1.57-1.019,3.139-2.038,4.35-3.502.506-.611.465-.589.112-1.292-.753-1.495-1.458-3.015-2.185-4.524-.208-.431-.355-.447-.706-.123-.763.704-1.497,1.446-2.308,2.09-4.73,3.761-10.006,6.224-16.115,6.654-4.757.336-9.357-.393-13.806-2.086-3.031-1.153-5.777-2.769-8.129-5.035-.342-.33-.875-.472-1.338-.656-.088-.035-.327.11-.382.226-.777,1.644-1.528,3.3-2.302,4.946-.128.272-.139.455.113.658.734.591,1.419,1.249,2.181,1.799,6.153,4.44,13.105,6.426,20.607,6.695ZM47.851,58.785c.139.278.259.479.344.694.312.785.595,1.582.921,2.361,1.047,2.504,2.499,4.703,4.78,6.271.262.18.521.305.779.086.643-.546,1.344-1.051,1.877-1.694,1.583-1.912,2.64-4.13,3.515-6.439.198-.523.411-1.04.562-1.42.562.488,1.12.941,1.642,1.433.881.831,1.891,1.384,3.087,1.617,2.303.449,4.371.082,6.086-1.643,1.717-1.727,2.545-4.806,1.2-7.225-.579-1.041-1.42-1.758-2.434-2.441-.142.324-.277.576-.365.843-.71,2.172-2.871,3.334-4.792,3.313-.563-.006-.737.134-.786.618-.009.088-.046.172-.092.34,2.93.713,4.984-.427,6.547-2.888.327.532.644,1.033.807,1.581.997,3.343-1.33,6.547-5.458,5.976-1.622-.224-3.013-1.117-3.949-2.496-.51-.751-.802-1.65-1.2-2.479-.049-.102-.125-.221-.219-.261-.052-.022-.195.086-.248.168-.234.362-.371.739-.114,1.159.084.137.121.303.23.586-.401-.093-.669-.154-.982-.226-.051.208-.1.42-.156.631-.466,1.733-1.209,3.354-2.026,4.943-.632,1.23-1.384,2.374-2.384,3.34-.718.694-.743.681-1.476-.02-1.799-1.722-2.984-3.802-3.668-6.186-.263-.916-.571-1.819-.854-2.715-.405.068-.758.126-1.111.185-.024-.039-.049-.078-.073-.118.358-.46.21-.831-.137-1.188-.361.716-.702,1.413-1.063,2.099-.616,1.171-1.517,2.046-2.743,2.566-1.91.811-3.715.579-5.3-.73-1.453-1.201-1.984-2.807-1.656-4.677.135-.77.493-1.412,1.138-1.935.546,1.088,1.152,2.088,2.321,2.537,1.1.422,2.233.582,3.406.338-.12-1.023-.127-.985-1.007-1.145-1.324-.24-2.507-.756-3.246-1.975-.199-.328-.434-.642-.574-.994-.195-.491-.463-.478-.887-.299-1.971.836-3.301,3.421-2.834,5.557.758,3.465,3.621,5.617,7.169,5.387.921-.06,1.77-.372,2.559-.82.997-.566,1.822-1.345,2.539-2.238.086-.107.179-.208.327-.38ZM57.65,29.021c.125.311.315.582.331.863.038.666.016,1.338-.026,2.006-.029.465.227,1.074.674,1.283.433.203.883.188,1.222-.2.439-.503.856-1.026,1.265-1.554.497-.642.984-1.293,1.457-1.954.127-.178.255-.402.264-.611.131-2.776-.341-5.482-1.149-8.114-1.288-4.2-3.346-8.031-5.859-11.624-.314-.449-.589-.925-.882-1.389-.095.204-.099.387-.094.569.097,3.959.188,7.918.297,11.876.047,1.708.135,3.415.194,5.123.01.277.094.475.379.521.797.13,1.595.246,2.392.376.133.022.26.083.389.126-.067.132-.102.306-.208.389-.293.23-.616.422-.93.631.226.294.449.547.631.827.364.562.319.67-.347.856ZM30.771,59.301c.783.611,1.39,1.2,2.1,1.615,1.941,1.136,3.934,2.181,5.888,3.296,1.149.656,2.285,1.34,3.376,2.087.393.27.685.733.928,1.161.163.288.026.564-.398.525-.254-.024-.527.02-.76-.06-1.112-.381-2.222-.77-3.314-1.202-.927-.367-1.854-.686-2.869-.648-1.217.045-2.028,1.275-1.577,2.399.253.63.576,1.199,1.147,1.614.555.403,1.073.857,1.61,1.285,5.13,4.078,11.108,5.864,17.525,6.274,3.458.221,6.841-.464,10.069-1.741,3.55-1.405,6.91-3.142,9.668-5.867.442-.437.961-.795,1.403-1.231.618-.61.928-1.368.891-2.247-.029-.695-.644-1.329-1.319-1.267-.772.071-1.558.164-2.296.386-1.22.366-2.398.868-3.612,1.256-.303.097-.698.041-1.012-.063-.362-.121-.379-.39-.081-.646.617-.532,1.213-1.099,1.882-1.557,1.857-1.272,3.759-2.479,5.62-3.746.919-.626,1.784-1.331,2.683-1.988.179-.131.398-.207.598-.309.03.206.114.42.083.615-.289,1.833-.709,3.627-1.65,5.259-.14.242-.229.532-.268.81-.061.429.059.815.496,1.104,2.155-3.26,2.866-6.806,2.407-10.785-.687.701-1.247,1.329-1.866,1.892-2.032,1.85-4.389,3.244-6.701,4.698-1.612,1.014-3.2,2.059-4.463,3.509-.288.331-.523.729-.7,1.132-.312.711-.095,1.119.669,1.351.209.064.451.121.655.078.573-.121,1.137-.287,1.7-.453.626-.184,1.244-.393,1.869-.579.56-.167,1.123-.323,1.688-.474.427-.114.865-.314,1.285-.284.327.024.734.274.92.549.22.326.144.769-.15,1.111-.467.545-.897,1.128-1.401,1.636-1.72,1.735-3.83,2.906-5.937,4.088-2.942,1.65-6.095,2.593-9.438,2.914-2.766.266-5.521.132-8.255-.365-3.953-.719-7.649-2.082-11.027-4.295-1.226-.803-2.203-1.837-3.085-2.968-.804-1.03-.442-1.88.826-2.065.181-.026.386-.008.558.053.855.303,1.714.602,2.551.951,1.26.526,2.516.999,3.926.876.471-.041.705-.25.897-.648.272-.563.113-1.078-.243-1.463-.59-.638-1.205-1.304-1.937-1.747-1.252-.759-2.595-1.369-3.913-2.016-1.98-.973-3.959-1.947-5.648-3.398-.811-.697-1.585-1.437-2.391-2.14-.216-.189-.488-.314-.782-.499-.24,2.081,0,3.995.667,5.852.658,1.833,1.637,3.483,2.833,5.039.337-.629.257-1.111-.048-1.678-1.07-1.988-1.888-4.081-2.272-6.322-.032-.187-.004-.383-.004-.664ZM48.756,28.006c-.79-.444-.962-.69-.909-1.251.072-.754.762-1.379,1.522-1.36.302.007.604.052.906.075.516.039,1.06.244,1.459-.323.087-.123.303-.171.469-.218.712-.201.744-.229.768-.963.034-1.05.033-2.102.099-3.15.095-1.526.263-3.047.352-4.573.149-2.566.263-5.133.385-7.701.018-.386.003-.774.003-1.281-.144.212-.219.311-.283.416-1.199,1.998-2.387,4.003-3.598,5.994-1.701,2.796-3.076,5.725-3.82,8.933-.491,2.114-.655,4.251-.548,6.41.017.338.156.72.361.988.551.722,1.163,1.398,1.762,2.082.487.557,1.005,1.113,1.826,1.046.389-.032,1.007-.131,1.094-.361.149-.395.43-.571.684-.805.88-.808.932-1.589.078-2.417-.64-.621-1.344-1.176-2.008-1.773-.323-.29-.517-.256-.601.231ZM44.723,29.232c.022-.289.034-.427.043-.565.076-1.16.106-2.325.236-3.478.3-2.66,1.035-5.203,2.128-7.651,1.047-2.344,2.445-4.482,3.751-6.677.937-1.575,1.789-3.202,2.658-4.817.227-.422.377-.885.614-1.452.294.651.512,1.186.773,1.699.331.652.644,1.323,1.056,1.924,2.335,3.409,4.407,6.948,5.809,10.862,1.087,3.032,1.817,6.113,1.737,9.355-.003.117.041.235.078.432.398-.204.736-.373,1.071-.549,1.517-.798,2.933-1.766,4.637-2.226,2.598-.702,5.153-1.56,7.724-2.361.205-.064.387-.198.58-.299-1.009-.378-1.984-.508-2.968-.329-1.236.225-2.498.391-3.684.781-1.747.573-3.24,1.636-4.628,2.837-.391.339-.793.666-1.253,1.052-.06-.312-.109-.525-.142-.741-.275-1.812-.385-3.667-.85-5.428-1.177-4.454-3.227-8.521-5.835-12.317-1.501-2.184-2.974-4.392-3.853-6.926-.023-.067-.09-.12-.185-.241-.102.172-.188.295-.253.428-.311.628-.578,1.282-.932,1.885-1.463,2.493-2.938,4.978-4.434,7.451-1.506,2.49-2.938,5.015-3.915,7.768-.57,1.606-.995,3.249-1.156,4.953-.1,1.059-.226,2.116-.349,3.261-.174-.103-.337-.177-.473-.285-.6-.478-1.183-.977-1.787-1.449-2.393-1.868-5.113-2.752-8.144-2.644-.649.023-1.293.154-1.94.235-.001.065-.002.13-.003.196.801.238,1.6.484,2.404.711,1.787.505,3.57,1.029,5.369,1.489,1.605.411,3.015,1.181,4.36,2.116.518.36,1.099.631,1.756,1.002ZM41.019,38.001c.027-.027.054-.055.08-.082-.105-.096-.2-.206-.315-.287-.346-.243-.695-.483-1.053-.708-.558-.352-1.087-.78-1.828-.622-.326.069-.668.059-.995.125-2.519.507-4.232,1.949-4.934,4.444-.238.848-.257,1.757-.386,2.71-.201-.091-.426-.143-.586-.274-.766-.626-1.601-1.196-2.253-1.928-1.744-1.959-3.078-4.142-3.357-6.844-.117-1.135.004-2.244.392-3.281.714-1.91,1.93-3.48,3.578-4.703.374-.277.449-.744.234-1.146-.095-.179-.185-.371-.222-.567-.062-.326-.21-.369-.46-.194-.585.413-1.19.801-1.747,1.25-3.278,2.641-4.179,6.098-3.304,10.079.859,3.904,3.149,6.859,6.388,9.112.764.532,1.594.97,2.532,1.534.038-.44.077-.711.079-.983.002-.222-.087-.451-.054-.664.178-1.161.292-2.342.593-3.472.687-2.577,3.065-4.143,5.707-3.84.641.074,1.272.225,1.908.341ZM78.829,26.406c-.376.494-.711.922-1.028,1.364-.068.095-.095.237-.098.358-.018.765-.443,1.261-1.032,1.683-.18.129-.361.368-.388.577-.068.527-.32.936-.76,1.151-.561.274-.907.668-1.179,1.221-.138.281-.507.453-.78.664-.261.202-.54.382-.797.59-.328.265-.64.55-.964.82-.133.111-.277.208-.441.33,3.507,1.136,5.358,3.467,5.661,7.126.843-.686,1.672-1.377,2.425-2.143,1.761-1.791,2.802-3.93,2.936-6.467.13-2.468-.725-4.568-2.43-6.328-.357-.369-.789-.666-1.126-.946ZM31.103,42.529c.257-4.165,2.713-6.182,6.619-6.839-.132-.117-.233-.206-.332-.296-.24-.216-.444-.535-.725-.629-.609-.204-.982-.598-1.403-1.063-.385-.425-1.099-.541-1.437-1.11-.033-.055-.077-.107-.094-.166-.098-.342-.391-.446-.657-.625-.381-.256-.837-.574-.979-.967-.155-.428-.342-.725-.71-.949-.423-.257-.713-.629-.671-1.133.042-.506-.107-.864-.546-1.112-.095-.054-.2-.129-.247-.222-.211-.421-.475-.31-.714-.061-.564.585-1.169,1.145-1.651,1.794-1.544,2.083-2.042,4.37-1.294,6.911.774,2.628,2.433,4.598,4.483,6.304.08.066.193.091.358.165ZM47.034,35.592c-.017.199-.044.369-.045.539-.004.877-.05,1.758.009,2.632.092,1.366.137,2.751.413,4.085.813,3.935,2.975,6.937,6.518,8.889.195.107.557.114.742.003,1.357-.818,2.629-1.75,3.624-3.007,1.166-1.472,2.194-3.021,2.68-4.869.664-2.528.764-5.105.682-7.699-.009-.276-.111-.382-.422-.329-1.677.286-3.27-.019-4.746-.832-.746-.411-1.426-.943-2.14-1.423-2.108,1.728-4.567,2.31-7.314,2.012ZM79.286,23.896c-.194.486-.357.936-.553,1.372-.132.295-.042.46.207.636,1.676,1.185,2.913,2.688,3.506,4.699.665,2.253.566,4.468-.394,6.584-.86,1.896-2.177,3.492-3.783,4.827-.579.482-1.209.902-1.914,1.424,0-.509.008-.858-.001-1.207-.037-1.336-.351-2.617-1.12-3.703-.993-1.403-2.303-2.412-4.057-2.743-.422-.08-.738.022-1.051.286-.225.19-.475.358-.735.496-.439.233-.851.478-1.057,1.036.308-.025.561-.04.813-.067,1.054-.111,2.071.025,3.03.487,1.463.705,2.279,1.92,2.737,3.441.401,1.33.566,2.679.467,4.162.387-.192.704-.331,1.002-.503.332-.191.662-.39.967-.621,1.178-.892,2.407-1.729,3.501-2.715,1.677-1.512,2.69-3.458,3.237-5.639.386-1.542.579-3.095.245-4.686-.467-2.226-1.265-4.283-2.875-5.949-.655-.678-1.412-1.223-2.172-1.618ZM30.049,76.581c.026.037.047.081.081.113.104.099.212.195.321.289,6.749,5.834,14.634,8.681,23.504,8.914,3.273.086,6.504-.303,9.691-1.027,6.423-1.457,12.049-4.413,16.797-9.002.179-.173.397-.35.159-.593-.217-.222-.424-.063-.622.106-.583.498-1.179.981-1.769,1.471-3.921,3.26-8.338,5.603-13.216,7.059-5.443,1.625-10.973,1.786-16.542.781-6.607-1.193-12.558-3.801-17.622-8.286-.385-.341-.537-.302-.783.175ZM52.437,32.9c-.484-.066-.906.001-1.345.297-.981.66-2.511.462-3.329-.389-.43-.447-.792-.958-1.212-1.416-.48-.523-.939-1.087-1.501-1.509-.554-.415-1.274-.607-1.836-1.015-1.993-1.444-4.188-2.362-6.594-2.878-1.627-.35-3.214-.889-4.816-1.352-.427-.123-.838-.327-1.271-.394-.239-.037-.623.061-.735.232-.108.166-.036.575.109.752.209.256.536.444.848.584,2.394,1.071,4.899,1.769,7.49,2.164.736.112,1.49.149,2.075.719.662.645,1.481.974,2.384,1.126.328.056.648.161.971.243-.008.033-.016.065-.023.098-.216.022-.431.044-.698.071.651.799,1.616.651,2.346,1.091-.214.014-.428.029-.663.045.179.859,1.124.902,1.658,1.54-.324-.051-.516-.082-.791-.126.504.768,1.324.956,2.091,1.447-.438.068-.741.115-1.043.162-.013.07-.027.139-.04.209.494.227.969.541,1.488.662.853.199,1.134-.018,1.308-.743-.327-.169-.645-.334-.964-.499l.061-.059c.506.089,1.012.178,1.538.27-.165.291-.326.574-.486.857.036.033.071.066.107.099.566-.149,1.13-.307,1.698-.446.404-.099.528-.359.497-.763-.343-.029-.673-.058-1.004-.086.003-.051.005-.102.008-.153h1.474c-.057.204-.121.433-.186.661.048.04.097.079.145.119.602-.432,1.204-.863,1.805-1.295-.031-.06-.062-.119-.094-.179-.208.039-.44.033-.62.126-.598.308-.591.321-.85-.272ZM37.934,53.96c-.061.102-.103.152-.123.209-.572,1.641-.262,3.133.827,4.451.629.76,1.472,1.202,2.461,1.336,1.43.194,2.693-.277,3.802-1.104.624-.466,1.174-1.073,1.363-1.787-.302-.312-.595-.535-.777-.828-.162-.261-.286-.292-.565-.21-.547.162-1.106.343-1.67.381-1.958.134-3.763-.166-4.926-2.013-.097-.154-.246-.275-.392-.435ZM70.754,53.837c-.068.001-.136.003-.204.004-.078.098-.155.196-.234.292-.939,1.152-2.113,1.942-3.589,2.191-1.022.172-2.031.034-3.005-.343-.658-.255-.66-.242-.936.359-.053.115-.116.235-.205.321-.226.219-.201.403-.032.662,1.251,1.918,3.445,2.771,5.659,2.181,1.826-.487,2.965-1.961,2.859-3.781-.037-.632-.205-1.257-.313-1.885ZM54.296,65.375c1.938-1.757,2.977-4.006,3.829-6.4-.317.036-.715.087-.783.264-.316.829-.941.938-1.695.909-.195-.008-.421.094-.588.21-.396.278-.803.418-1.237.143-.271-.172-.499-.413-.77-.644-.425.193-.899.249-1.349-.072-.14-.1-.24-.257-.385-.346-.202-.125-.429-.211-.645-.314,0,.232-.021.467.011.694.022.151.134.287.184.437.663,1.982,1.803,3.646,3.425,5.117ZM31.807,60.835c.035.278.042.436.076.588.292,1.331.746,2.599,1.434,3.781.446.767.722.828,1.49.389.284-.162.647-.27.972-.265,1.267.023,2.425.472,3.556,1.008.829.393,1.674.756,2.511,1.132.042-.046.084-.092.127-.137-.099-.147-.166-.341-.302-.433-1.002-.677-1.987-1.39-3.037-1.987-2.268-1.29-4.721-2.261-6.827-4.077ZM41.066,72.264c.181-.064.392-.072.453-.171.367-.594.712-1.204,1.039-1.821.15-.283.076-.462-.276-.59-1.613-.586-3.209-1.22-4.82-1.809-.27-.099-.588-.068-.885-.086-.299-.019-.435.181-.366.422.119.415.197.94.489,1.19,1.023.879,2.112,1.684,3.214,2.463.321.227.768.274,1.152.402ZM69.511,65.798c.016.029.033.058.049.087.077-.004.159.007.229-.016.713-.228,1.418-.482,2.137-.688,1.34-.384,2.663-.904,4.11-.605.106.022.284-.108.369-.215.767-.963,1.301-2.044,1.564-3.249.074-.338.094-.688.149-1.111-.704.544-1.278,1.058-1.918,1.47-1.732,1.113-3.498,2.174-5.238,3.274-.504.319-.969.699-1.451,1.051ZM74.05,67.148c-.801.22-1.528.376-2.224.62-1.227.43-2.404,1.025-3.739,1.083-.356.015-.359.293-.233.471.399.564.805,1.134,1.29,1.621.369.371.902.452,1.372.147.893-.582,1.786-1.17,2.628-1.822.609-.472.956-1.132.906-2.12ZM56.41,94.26c-.045-.022-.089-.044-.134-.066-.08.1-.21.189-.234.3-.579,2.694-1.194,5.381-1.696,8.09-.22,1.185-.04,2.392.481,3.51.409.878,1.186,1.369,1.861,1.209.985-.234,1.845-1.309,1.941-2.316.138-1.445-.145-2.823-.536-4.197-.37-1.301-.766-2.599-1.032-3.923-.139-.693-.025-1.437-.025-2.157-.045,0-.09,0-.135,0-.297,1.042-.32,2.106-.054,3.151.373,1.465.807,2.916,1.242,4.365.35,1.165.254,2.305-.15,3.424-.194.537-.488,1.003-1.184,1.005-.982.003-1.804-.709-1.856-1.795-.043-.902-.014-1.826.13-2.716.342-2.123.775-4.231,1.162-6.347.093-.509.147-1.025.219-1.537ZM56.346,98.03c-.682,2.217-.936,4.477-.866,6.763.013.432.446.882.76,1.263.238.288.536.224.798-.089.729-.87.901-1.888.658-2.932-.388-1.667-.886-3.308-1.35-5.005ZM62.171,40.809c-.058.029-.116.058-.174.087-.224,2.95-1.191,5.615-3.063,7.939,1.067-.25,1.626-1.004,1.961-1.921.237-.651.334-1.353.516-2.027.069-.255.201-.493.304-.739.072.024.145.048.217.072-.042.188-.06.385-.131.561-.448,1.112-.745,2.249-.835,3.456-.061.814.804,1.635,1.59,1.527-.006-.089.004-.184-.02-.27-.529-1.885-.196-3.738.249-5.573.187-.773.226-1.521-.045-2.256-.115-.313-.375-.572-.57-.856ZM54.315,7.821c-.045,0-.09,0-.135,0,0,.49.018.98-.003,1.469-.116,2.647-.247,5.293-.36,7.939-.052,1.206-.063,2.414-.111,3.621-.044,1.097-.126,2.192-.164,3.29-.026.752.181.945,1.067,1.026-.098-5.787-.196-11.565-.293-17.344ZM77.309,28.043c-.232.034-.42.049-.602.09-1.34.299-2.689.571-4.067.411-.708-.082-1.111.365-1.575.728-.049.038-.005.317.071.367.152.099.355.138.542.163,1.248.166,2.498.219,3.756.109.935-.082,1.813-.902,1.875-1.869ZM53.72,54.269c-.096.954-.235,1.881-.268,2.812-.03.839.02,1.687.109,2.523.039.368.318.681.747.693.402.012.715-.334.758-.844.071-.842.17-1.688.145-2.529-.024-.808-.186-1.612-.305-2.415-.014-.092-.169-.25-.209-.236-.113.04-.23.137-.289.243-.048.087-.018.218-.019.33-.006,1.472-.01,2.944-.02,4.416-.001.156-.04.312-.061.468-.066-.004-.133-.008-.199-.012,0-.417.003-.835,0-1.252-.011-1.149-.014-2.299-.045-3.448-.007-.255.101-.594-.346-.749ZM68.391,31.865c.841.626,1.78.982,2.758,1.196.655.143,1.343.209,2.012.185.577-.02,1.072-.67,1.055-1.235-.171,0-.345-.008-.518.001-1.335.069-2.574-.347-3.804-.78-.57-.201-1.21.026-1.504.632ZM69.579,30.638c.134.088.195.143.267.174,1.266.548,2.572.93,3.967.917.786-.007,1.42-.337,1.894-.957.107-.141.144-.335.238-.565-.202,0-.281-.009-.356.001-1.547.221-3.083.223-4.6-.214-.11-.032-.26-.026-.358.025-.322.169-.629.366-1.052.618ZM55.607,53.617c-.303-.015-.465.034-.436.366.127,1.44.24,2.882.345,4.324.026.349-.023.706.021,1.052.018.141.171.346.298.377.597.145,1.119-.299,1.163-.983.115-1.789-.144-3.531-.727-5.223-.046-.133-.189-.233-.287-.348-.043.032-.087.063-.13.095.131.616.292,1.227.384,1.849.091.613.136,1.236.159,1.856.037.953-.073,1.558-.314,1.855.019-1.773.006-3.502-.477-5.219ZM31.147,28.217c-.062.929.446,1.561,1.191,1.69,1.331.231,2.665.169,3.999.09.337-.02.669-.122,1.003-.187-.205-.241-.436-.318-.569-.477-.323-.384-.724-.453-1.191-.459-1.178-.014-2.36-.026-3.498-.407-.292-.098-.596-.161-.935-.251ZM30.159,25.989c-.333.704-.055,1.354.679,1.699,1.426.671,2.952.85,4.499.924.176.008.356-.061.517-.091-.03-.529-.285-.694-.734-.806-.966-.241-1.913-.565-2.854-.892-.714-.248-1.407-.554-2.107-.834ZM53.33,53.986c-.769,1.597-1.151,3.267-1.098,5.044-.14-.348-.239-.697-.232-1.043.028-1.219.338-2.385.736-3.531.079-.226.108-.47.159-.706-.046-.027-.092-.054-.138-.08-.122.1-.302.175-.356.304-.609,1.446-1.037,2.936-.989,4.527.018.58.267.906.827,1.101.479.167.834-.116.845-.622.027-1.164.076-2.327.128-3.49.023-.502.077-1.002.116-1.503ZM38.649,31.045c.009-.079.019-.158.028-.238-.474-.17-.943-.465-1.422-.483-.887-.034-1.78.112-2.672.147-.727.029-1.456.006-2.185.006-.004.5.334.941.957,1.059,1.516.287,3.014.094,4.499-.249.269-.062.53-.16.795-.242ZM78.257,25.796c-.079.007-.13,0-.171.018-.886.385-1.751.83-2.662,1.144-.898.31-1.844.477-2.761.734-.165.046-.294.222-.439.338.17.08.345.238.509.228,1.127-.069,2.256-.143,3.375-.282.444-.055.904-.218,1.292-.444.654-.38,1.007-1.166.856-1.737ZM51,58.738c.018-.062.034-.092.035-.123.02-1.739.424-3.388,1.157-4.96.04-.085.109-.196.083-.264-.044-.117-.135-.237-.241-.297-.039-.022-.217.102-.256.192-.487,1.129-.858,2.29-.949,3.526-.034.461-.08.922-.12,1.383-.05.003-.1.006-.15.009-.034-.202-.105-.406-.095-.606.073-1.421.335-2.813.906-4.116.233-.532-.088-.541-.408-.697-.847,1.46-1.217,2.999-1.046,4.648.075.72.524,1.204,1.083,1.306ZM34.096,32.147c.123.553.477.869,1.018.921,1.571.151,3.072-.204,4.541-.714.341-.118.335-.325.032-.542-.45-.323-.903-.544-1.474-.264-.222.109-.489.144-.74.177-1.12.147-2.241.28-3.378.421ZM45.149,47.911c-.84-.155-1.538.731-1.586,1.32-.058.71.458,1.48,1.195,1.544.996.086,2.002.053,3.003.066.309.004.371-.205.333-.453-.024-.155-.1-.302-.139-.456-.095-.378-.188-.756-.269-1.137-.034-.16-.036-.328-.052-.492l-.127-.028c-.167.316-.336.632-.501.949-.514.992-1.553,1.386-2.359,1.314-.351-.031-.502-.163-.303-.526.176-.32.347-.648.476-.989.136-.358.22-.735.329-1.114ZM72.482,33.834c-1.267-.465-2.516-.902-3.747-1.383-.66-.258-1.008-.212-1.583.389.177.134.333.305.527.39.84.371,1.678.755,2.543,1.056.454.158.962.2,1.448.214.478.014.765-.305.812-.666ZM57.994,57.762c-.056.001-.111.003-.167.004-.073-1.703-.293-3.372-1.011-4.926-.059.01-.118.02-.176.029.322,1.923.644,3.845.968,5.775.61-.058,1.058-.567,1.073-1.283.035-1.706-.546-3.254-1.216-4.78-.037-.084-.08-.166-.12-.248-.056.032-.111.065-.167.097.019.153.024.309.061.457.248.986.558,1.961.735,2.96.11.62.02,1.275.02,1.915ZM41.206,33.069c-.393-.492-.828-.612-1.346-.466-.903.253-1.813.486-2.727.7-.456.107-.926.152-1.42.23.163.459.375.769.827.771,1.663.008,3.202-.449,4.666-1.234ZM70.919,34.877c-.143-.046-.234-.069-.32-.104-1.047-.42-2.12-.787-3.132-1.281-.683-.333-.929-.35-1.367.371,1.085.967,2.351,1.539,3.804,1.652.4.031.817-.12,1.015-.639ZM50.479,51.341c-.378-.146-.658.009-.864.311-.242.355-.476.717-.682,1.094-.443.81-.198,2.109.503,2.756.169-.442.342-.88.504-1.323.169-.463.298-.943.498-1.392.211-.474.305-.93.041-1.446ZM37.416,34.764c.125.423.612.726,1.194.581.999-.25,1.99-.54,2.975-.841.294-.09.559-.271.839-.412-.434-.752-.596-.83-1.058-.668-1.3.454-2.608.887-3.951,1.34ZM62.75,47.82c0,.24-.032.416.006.576.11.464.243.923.377,1.381.146.497.018.673-.458.507-.674-.234-1.321-.542-2.037-.842-.11.16-.3.414-.468.682-.249.395-.106.69.374.702.586.014,1.18.011,1.758-.067.421-.057.878-.169,1.221-.401.569-.385.566-1.019.365-1.604-.165-.482-.573-.756-1.139-.933ZM43.55,35.017c-.579-.789-.58-.764-1.182-.54-.979.364-1.974.686-2.963,1.026-.201.069-.4.144-.616.222.195.54.587.66,1.017.597,1.315-.194,2.552-.627,3.744-1.305ZM57.563,51.278c-.06.91.549,1.53.733,2.277.187.759.465,1.496.725,2.312.196-.64.393-1.191.526-1.758.059-.251.046-.552-.035-.797-.306-.931-.822-1.691-1.95-2.034ZM69.538,35.885c-.135-.04-.276-.067-.405-.123-1.017-.438-2.063-.823-3.032-1.349-.428-.232-.598-.117-.814.166-.244.321.023.483.231.653.797.651,1.753.954,2.722,1.221.506.14,1.169-.162,1.299-.569ZM46.218,36.621c-1.158.589-2.324,1.182-3.543,1.801.045.055.114.193.225.267.611.408,1.247.331,1.849.002.374-.204.703-.492,1.044-.752.577-.44.635-.649.426-1.318ZM53.634,31.169c.149-.1.286-.146.349-.241.278-.419.464-.227.665.069.36.533.525.531.878-.035.172-.277.307-.271.501-.03.175.218.377.415.595.652.162-.315.286-.556.411-.799.197.255.359.463.592.765.024-.543-.497-1.45-.869-1.484-.225-.021-.478.269-.72.417-.039.024-.085.036-.151.062-.095-.075-.209-.14-.288-.234-.279-.332-.543-.397-.863-.036-.222.25-.43.157-.544-.128-.175-.439-.407-.362-.668-.089-.098.103-.186.214-.282.324.123.245.242.482.394.787ZM39.99,36.589c.335.428.645.752,1.157.645,1.168-.245,2.178-.841,3.177-1.444-.249-.695-.267-.691-.863-.416-.59.273-1.187.54-1.799.758-.518.184-1.062.294-1.672.457ZM67.529,37.382c.064,0,.143.025.188-.004.2-.13.39-.275.584-.415-.16-.11-.304-.266-.481-.323-.973-.314-1.904-.701-2.706-1.353-.166-.135-.322-.361-.551-.082-.179.217-.323.42-.057.692.834.855,1.928,1.167,3.023,1.485ZM46.269,39.365c-.181.1-.303.162-.42.233-.787.48-1.104.442-1.829-.142-.155-.125-.404-.134-.609-.197-.02.043-.04.086-.06.129.547.728,1.095,1.457,1.641,2.183.449-.295.844-.55,1.232-.815.057-.039.114-.131.112-.197-.011-.374-.04-.748-.067-1.194ZM45.473,36.632c-.005-.07-.01-.14-.014-.21-.352-.037-.514-.519-1.001-.28-.841.412-1.706.776-2.562,1.158-.181.081-.366.151-.559.231.316.472.789.68,1.258.474.973-.428,1.92-.912,2.878-1.373ZM68.007,29.046c.403.063.755.136,1.111.171.873.087,1.685-.077,2.345-.693.162-.151.242-.391.36-.59-.037-.04-.075-.08-.112-.12-.213.035-.426.069-.638.104-.531.088-1.061.241-1.594.249-.644.009-1.097.25-1.471.879ZM67.069,37.656c-1.127-.48-2.283-.879-3.074-1.858-.469.572-.503.782-.123,1.099.478.398.978.772,1.496,1.116.448.298,1.262.127,1.702-.356ZM67.932,31.622c-.835-.142-1.619-.197-2.346-.428-.477-.151-.878-.216-1.298.036-.103.062-.199.211-.208.327-.006.077.136.22.233.242.845.187,1.689.404,2.546.505.43.051.854-.166,1.073-.682ZM69.01,30.667c-1.051-.226-2.035-.438-3.088-.665-.144.197-.354.482-.666.908.983.157,1.831.339,2.688.408.424.034.799-.242,1.066-.651ZM65.501,38.524c-.598-.451-1.179-.863-1.731-1.312-.559-.454-.637-.468-1.29.108.564.522,1.095,1.068,1.685,1.542.414.333,1.044.134,1.336-.339ZM37.8,29.595c.406,1.109,2.335,1.026,3.757.356-.577-.291-1.046-.682-1.743-.528-.493.109-1.013.092-1.521.131-.15.012-.301.025-.493.041ZM36.279,28.032c-.03.051-.059.102-.089.152.298.315.565.857.899.902.918.126,1.865.043,2.841.043-.136-.458-.43-.594-.766-.662-.341-.069-.686-.121-1.03-.172-.618-.091-1.237-.176-1.855-.264ZM40.272,31.76c.04.118.041.156.061.174.034.031.077.055.12.074,1.196.549,2.358.271,3.503-.168.269-.103.258-.495-.022-.577-.274-.08-.592-.086-.877-.041-.549.086-1.087.238-1.633.348-.377.076-.758.126-1.151.189ZM42.895,30.911c-.409-.61-.867-.781-1.547-.465-.436.203-.955.226-1.438.327-.206.043-.414.081-.661.128.669.717,2.412.697,3.646.009ZM57.611,88.602c.154-.982-.234-1.572-1.079-1.854-.832-.278-1.636-.005-2.148.727-.32.459-.259,1.516.114,1.948.376.436.986.624,1.416.435-1.347-.43-1.268-.736-1.257-1.64.01-.834.308-1.176,1.047-1.284.784-.114,1.311.196,1.575.911.095.258.221.504.333.756ZM70.259,29.59c-.685-.059-1.382-.067-2.057-.193-.506-.095-.915-.05-1.284.31.891.698,3.079.866,3.341-.117ZM62.074,37.612c0,.441-.004.791,0,1.14.008.556,1.012,1.192,1.526.969.313-.136.421-.435.204-.627-.544-.482-1.103-.946-1.731-1.482ZM63.258,41.375c.487-.589,1.012-1.224,1.536-1.858-.474.145-.871.502-1.281.519-.463.02-.939-.267-1.499-.449.06.281.042.539.161.682.318.384.695.718,1.083,1.107ZM46.336,34.039c-.012-.068-.024-.136-.036-.204-.906.146-1.812.292-2.729.44.317.566,2.19.851,2.48.377-.048-.092-.099-.191-.15-.289.165-.123.3-.224.435-.324ZM66.645,32.698c-.818-.203-1.598-.384-2.371-.594-.484-.131-.597-.082-.765.443,1.031.624,2.594.717,3.136.15ZM55.238,88.588c.36-.029.719-.013,1.051-.099.252-.065.506-.226.682-.415.058-.062-.079-.461-.203-.509-.334-.129-.75-.281-1.058-.184-.44.137-.615.81-.472,1.208ZM44.937,32.525c-.275-.408-.616-.539-1.093-.328-.243.108-.518.148-.781.203-.457.095-.916.178-1.429.277.818.499,2.836.384,3.304-.153ZM55.502,88.909c1.268.919.96,2.289,1.125,3.563.5-.737.392-2.797-.132-3.366-.253-.274-.545-.421-.993-.198ZM65.694,33.395c-.68-.121-1.327-.198-1.955-.357-.631-.159-.7-.153-.87.475,1.507.473,2.459.452,2.825-.118ZM45.551,33.538c-.277-.47-.598-.608-1.124-.424-.454.159-.962.161-1.446.231-.13.019-.26.036-.422.058.459.562,2.12.617,2.992.134ZM65.135,34.275c-.943-.193-1.782-.371-2.624-.53-.083-.016-.187.078-.262.111.254.548.581.872,1.241.795.53-.061,1.093.113,1.645-.377ZM61.904,35.292c.525.701,1.756.547,2.147-.327-.49-.028-.961-.025-1.422-.089-.379-.053-.612.054-.725.416ZM55.311,93.088c-.153.384.032.578.433.667.538.12,1.071.258,1.608.382.131.03.268.033.424.051-.031-.54-.381-.685-.768-.77-.54-.117-1.084-.213-1.696-.331ZM60.729,53.942c.021.066.042.132.062.198.448-.187.897-.375,1.345-.562.02.03.039.061.059.091-.344.282-.688.564-1.023.838.588.391.73.35,1.025-.294.131-.286.288-.56.444-.861-.936-.649-1.246.496-1.911.588ZM53.653,52.293c-.075.575-.08,1.085.275,1.535.189.24.408.266.594.019.303-.403.482-.851.38-1.386-.38-.059-.493.081-.446.445.023.182-.065.379-.129.698-.384-.468.049-1.145-.674-1.311ZM44.654,35.241c.047.417.562.81,1.049.801.539-.01.616-.119.686-1.02-.583.074-1.158.146-1.735.219ZM51.384,50.747c-.052.005-.104.009-.156.014-.241.501-.24,1.033.014,1.52.103.197.417.284.674.446.252-1.259.249-1.285-.119-1.485-.039.171-.076.333-.113.495-.047.008-.095.015-.142.023-.053-.338-.106-.676-.159-1.013ZM46.184,38.173c-.553.367-1.074.712-1.645,1.091.377.263.654.402.956.133.359-.319,1.017-.468.689-1.223ZM57.406,92.324c.078-.403.17-.803.232-1.209.1-.659.056-1.314-.25-1.913-.111-.217-.348-.37-.528-.553-.041.037-.082.073-.123.11.763,1.094.653,2.341.67,3.565ZM55.406,92.397c.613.93,1.636.733,2.524.922-.621-.898-1.754-.399-2.524-.922ZM48.336,48.891c-.131.633.046,1.265.306,1.198.261-.068.668-.34.665-.517-.01-.598-.631-.43-.97-.68ZM45.827,53.289c-.015,1.213,1.225,1.554,1.957.967-.613-.403-1.632.049-1.957-.967ZM52.927,52.719c-.051.001-.103.003-.154.004-.04-.326-.08-.651-.12-.977-.372.835-.111,1.528.595,1.733-.026-.454-.051-.888-.076-1.323-.045-.001-.09-.003-.134-.004-.037.189-.074.378-.111.567ZM58.895,50.106c-.055.036-.109.072-.164.109-.029.338-.548.682-.078.971.147.09.583-.289.887-.454l-.645-.626ZM46.817,53.139c.328.135.603.271.893.358.127.038.284-.023.428-.039-.041-.143-.038-.345-.133-.416-.182-.137-.412-.224-.635-.286-.38-.106-.561.063-.553.384ZM61.396,52.654c-.477-.481-1.127-.435-1.446.064-.048.075-.048.205-.021.294.011.038.16.07.229.049.402-.122.798-.261,1.238-.408ZM60.179,53.665c.553.136,1.121-.148,1.402-.702-.89,0-1.297.205-1.402.702ZM58.484,49.558c-.069-.041-.138-.082-.208-.124-.203.235-.464.445-.586.716-.067.148.1.402.162.608.123-.089.306-.153.356-.272.124-.296.188-.617.276-.928ZM49.911,49.446c-.063.033-.126.066-.189.098.1.351.2.702.301,1.053.225-.133.449-.265.73-.431-.348-.298-.595-.509-.842-.72ZM63.202,36.243l-.079-.209c-.249,0-.499.001-.748,0-.297-.002-.383.151-.345.431.043.316.27.309.456.227.255-.112.479-.296.716-.449ZM60.793,51.96c-.284-.169-.526-.403-.623-.353-.305.156-.58.404-.569.91.398-.186.717-.335,1.192-.556ZM59.111,51.845c.062.022.124.044.186.066.219-.173.464-.324.641-.533.058-.068-.062-.287-.101-.437-.222.14-.473.252-.654.433-.09.091-.052.31-.072.47ZM48.696,52.457c.061-.31.173-.554.109-.617-.17-.166-.41-.273-.64-.355-.043-.016-.249.272-.24.282.206.208.432.397.771.691ZM56.961,50.775c-.033.251-.04.393-.072.529-.027.118-.071.323-.125.328-.579.061-.259.473-.379.776.586-.306.877-1.061.576-1.634ZM46.4,52.662c.046.033.092.066.138.098.329-.429.658-.858.987-1.287-.031-.042-.063-.085-.094-.127-.15.051-.372.056-.436.16-.227.367-.401.768-.595,1.156ZM55.986,91.475c.07-.01.14-.019.211-.029,0-.279.03-.563-.015-.834-.018-.108-.202-.188-.311-.281-.058.108-.182.231-.162.321.063.281.18.549.277.823ZM47.166,55.048c-.567.296-.752.8-.457,1.269.152-.423.305-.846.457-1.269ZM48.2,54.129c-.07.038-.139.077-.209.115.168.371.336.741.532,1.173.004-.006-.051.076-.106.157.044.028.089.056.133.084.079-.134.257-.307.222-.395-.157-.392-.375-.759-.571-1.135ZM56.012,51.83c-.148.205-.258.479-.461.612-.318.208-.298.418-.18.706.471-.264.562-.453.641-1.317ZM47.249,52.454c.413.153.643.247.878.322.079.025.179.021.259-.004.036-.011.077-.146.064-.156-.213-.157-.419-.35-.661-.432-.113-.038-.301.143-.54.27ZM45.411,54.55c-.381.241-.918.199-.783.814.594.054.641-.354.783-.814ZM44.023,54.261c.02.062.041.123.061.185.246.006.479.369.72-.005.043-.066-.156-.412-.248-.414-.176-.004-.355.147-.533.233ZM63.355,55.282c.063-.685-.163-.909-.78-.846.256.277.47.509.78.846ZM47.757,53.914c.009-.041.019-.083.028-.124-.51-.185-1.019-.37-1.628-.591.449.656,1.089.516,1.6.715ZM49.236,51.404c-.132-.203-.231-.38-.358-.534-.045-.054-.175-.091-.237-.065-.062.027-.124.141-.122.216.005.267.371.47.717.383ZM62.727,54.137c.266-.217.444-.363.643-.525-.544-.289-.616-.239-.643.525ZM61.4,52.126c.032-.685-.021-.745-.517-.638.189.234.353.436.517.638Z"/>
    <path class="cls-1" d="M55.352,80.948c.185.036.368.085.554.104.141.015.287-.007.43-.015.373-.02.575.116.534.528-.025.249-.005.503-.005.76-.498.051-.943.096-1.389.141l.011.194c.306.015.613.016.917.05.636.071.73.195.679.831-.009.109-.02.217-.032.351-1.077.104-2.134.271-3.188-.063-.091-.029-.211-.004-.307.027-.787.255-1.467-.066-1.766-.84-.29-.753-.324-.796-.833-1.002-.032.377-.069.73-.088,1.084-.02.355-.103.614-.546.615-.624,0-.91-.122-.909-.586,0-.629.107-1.257.167-1.886.041-.427.097-.854.115-1.282.036-.867.315-1.085,1.145-.901.45.1.913.14,1.365.233,1.105.226,1.568,1.245.93,2.17-.274.397-.261.696-.06,1.069.169.314.322.636.483.954.039-.011.077-.023.116-.034.049-.559.116-1.117.144-1.676.029-.579-.012-1.163.037-1.739.054-.624.137-.75.746-.722.587.027,1.18-.04,1.764.01.485.041.661.324.648.782-.013.459-.363.473-.672.518-.319.046-.644.048-.967.07-.008.086-.016.171-.024.257ZM52.054,81.616c.757-.238.931-.758.81-1.433-.075-.417-.23-.71-.739-.687-.263.012-.529-.104-.796-.132-.369-.039-.742-.051-1.044-.07-.197.92-.396,1.737-.538,2.564-.06.352-.032.729.021,1.086.017.112.246.192.379.287.07-.123.18-.239.203-.37.044-.25.029-.509.058-.762.056-.489.353-.653.781-.395.19.114.339.326.457.523.146.244.222.529.362.777.169.299.427.451.88.327-.276-.568-.535-1.103-.833-1.715ZM56.388,80.144c.046-.552-.311-.785-.854-.598-.138.047-.304.1-.436.068-.784-.193-.989-.046-.997.75-.008.797.042,1.601-.054,2.387-.056.455.071.673.458.697.582.035,1.169-.01,1.753-.029.312-.01.425-.168.29-.511-.514-.023-1.048-.048-1.58-.072v-.834c.509-.043.993-.084,1.477-.124.022-.043.043-.086.065-.129-.111-.084-.213-.218-.335-.241-.312-.057-.637-.045-.949-.101-.125-.023-.303-.134-.33-.238-.073-.285-.078-.587-.114-.916.569-.039,1.089-.074,1.604-.109Z"/>
    <path class="cls-1" d="M71.28,78.379c.347-.171.695-.34,1.039-.515.365-.186.669-.164.906.213.262.416.225.637-.227.859-.77.378-1.55.736-2.337,1.078-.108.047-.362,0-.401-.077-.625-1.236-1.226-2.484-1.832-3.73-.006-.012.004-.031.009-.056.701-.391,1.412-.777,2.111-1.183.373-.217.494.11.646.293.428.517.36.755-.24,1.02-.146.064-.312.113-.421.218-.096.092-.124.254-.182.385.147.011.309.066.437.022.176-.06.319-.209.489-.296.353-.182.677-.144.951.163.309.346.274.614-.12.857-.305.188-.615.367-.924.55.032.067.065.133.097.2ZM71.858,77.32c-.115-.521-.352-.633-.749-.358-.144.099-.271.223-.414.325-.388.276-.631.207-.939-.241-.257-.375-.048-.596.255-.772.269-.157.555-.287.843-.433-.41-.486-1.184-.243-2.103.623.486.99.966,1.994,1.48,2.981.064.122.366.256.459.205.698-.383,1.371-.812,2.131-1.274-.533-.263-.822.01-1.12.191-.778.474-.985.387-1.178-.569.437-.222.888-.45,1.335-.677Z"/>
    <path class="cls-1" d="M39.352,75.33c.831.395,1.61.76,2.385,1.135.417.202.291.535.129.814-.14.241-.274.559-.699.317-.3-.171-.66-.239-1.068-.378.012.599.389.667.689.803.559.253.627.636.185,1.059-.262.25-.522.245-.819.05-.221-.145-.47-.247-.706-.368-.031.059-.063.118-.094.176.256.14.512.279.768.419.535.293.62.636.221,1.062-.104.111-.371.2-.493.145-.708-.324-1.406-.675-2.086-1.055-.392-.219-.45-.529-.199-.955.613-1.042,1.175-2.115,1.786-3.225ZM41.352,77.165c.043-.071.086-.141.129-.212-.266-1.023-1.412-.721-1.968-1.294-.526.885-1.009,1.708-1.502,2.524-.376.623-.271.999.409,1.276.51.208,1.034.377,1.579.573.065-.122.134-.254.204-.387-.456-.211-.875-.401-1.29-.598-.319-.151-.406-.367-.199-.685.204-.314.443-.395.76-.177.223.154.436.322.666.464.205.126.414.183.557-.105.15-.3-.011-.453-.257-.555-.205-.085-.425-.135-.631-.217-.386-.155-.505-.428-.337-.741.21-.391.552-.512.884-.339.325.17.663.315.996.471Z"/>
    <path class="cls-1" d="M67.041,80.245c.1.385.201.769.298,1.155.011.045.002.094.002.134-.014.02-.02.04-.032.046-1.177.583-1.293.517-1.673-.722-.196-.638-.488-1.245-.725-1.871-.135-.355-.245-.72-.381-1.123.908-.478,1.816-.845,2.807-.942.499-.049,1.278.982,1.17,1.508-.2.972-.193.732.571,1.201.325.2.662.381,1.031.593-.155.141-.278.263-.41.373-.615.512-.8.511-1.48.087-.351-.219-.729-.394-1.095-.588-.027.05-.054.099-.081.149ZM65.003,78.096c.215.671.412,1.305.623,1.936.136.406.27.816.454,1.201.058.122.277.167.422.248.062-.172.185-.35.171-.516-.018-.213-.153-.414-.227-.624-.147-.416.035-.664.47-.59.276.047.54.18.803.289.264.11.51.276.782.346.191.049.413-.021.698-.044-.112-.173-.134-.247-.182-.274-.263-.147-.557-.251-.793-.431-.182-.138-.396-.357-.415-.557-.034-.35.096-.712.111-1.07.022-.545-.405-.935-.948-.853-.277.042-.554.149-.806.276-.41.207-.8.455-1.163.665Z"/>
    <path class="cls-1" d="M47.645,81.503c-.128,0-.259.02-.382-.004-.321-.062-.449.093-.531.379-.065.225-.166.451-.3.643-.249.358-.674.473-1.005.25-.316-.212-.571-.47-.428-.941.342-1.126.639-2.267.982-3.393.037-.12.267-.273.392-.26.948.096,1.832.378,2.607.965.402.305.489.687.38,1.14-.2.833-.779,1.243-1.715,1.22ZM46.328,78.538c-.475,1.1-.812,2.206-.926,3.37-.012.118.151.254.233.381.15-.099.351-.168.437-.307.082-.133.043-.341.062-.515.057-.505.347-.725.848-.641.266.044.531.117.799.134.534.035,1.011-.428,1.124-1.06.092-.512-.149-.915-.73-1.055-.599-.145-1.218-.206-1.846-.307Z"/>
    <path class="cls-1" d="M61.056,83.274c-.15-1.706.757-3.166.937-4.785.106,0,.17-.009.23.002.108.02.214.053.335.084-.332.136-1.283,3.281-1.281,4.205.326.117.55.039.63-.326.061-.284.224-.408.516-.47.355-.076.691-.242,1.035-.371.354-.132.672-.07.904.228.267.343.479.317.713-.095-.762-.996-1.538-2.011-2.313-3.025,1.528.654,1.925,2.315,3.091,3.281-.37.382-1.124.514-1.487.289-.698-.432-1.606-.223-2.036.469-.368.592-.495.647-1.274.513Z"/>
    <path class="cls-1" d="M36.022,73.197c.651.394,1.273.75,1.872,1.141.394.257.614.654.637,1.126.015.311.013.623-.406.746-.416.122-.508.509-.518.887-.034,1.29-.685,1.504-1.761,1.192-.701-.203-1.332-.738-1.905-1.228-.166-.142-.152-.731.003-.97.64-.986,1.366-1.917,2.079-2.894ZM35.903,77.891c.681.005,1.318-.345,1.254-.673-.123-.633.265-.932.634-1.286.408-.391.475-.835.077-1.22-.416-.403-.928-.71-1.419-1.028-.073-.047-.31.04-.385.134-.606.761-1.208,1.528-1.77,2.321-.11.155-.143.524-.039.642.485.547,1.103.919,1.649,1.111Z"/>
    <path class="cls-1" d="M57.488,79.4c.694-.122,1.334-.232,1.973-.347.942-.169,1.626.21,1.729.963.083.605-.365,1.532-.959,1.654-.806.165-.883.658-.841,1.301.012.188.002.378.002.611h-1.505c-.131-1.378-.266-2.792-.398-4.182ZM57.761,79.699c.114,1.196.221,2.331.331,3.487h.729c-.043-.299-.093-.562-.117-.827-.072-.787.059-.928.852-.942.738-.013,1.236-.598,1.171-1.374-.05-.593-.599-.944-1.328-.795-.527.108-1.041.283-1.639.45Z"/>
    <path class="cls-1" d="M71.732,74.419c.811-.693,1.644-1.227,2.675-1.386,1.063-.164,1.979.666,2.07,1.742.118,1.394-.555,2.296-1.65,2.975-.558.346-.724.282-1.075-.253-.662-1.012-1.328-2.022-2.021-3.077ZM74.162,77.45c1.088-.305,1.852-1.17,1.956-2.29.016-.175-.051-.378-.134-.54-.613-1.197-1.487-1.577-2.712-1.051-1.402.602-1.349.758-.599,1.884.449.673.966,1.301,1.489,1.997Z"/>
    <path class="cls-1" d="M63.437,80.986c-.123.043-.195.074-.269.092-.246.061-.494.117-.741.174.016-.273.004-.551.054-.817.058-.31.307-.383.513-.146.172.198.288.445.444.696Z"/>
    <path class="cls-1" d="M81.697,35.647c-.57.134-1.137.287-1.712.396-.354.067-.542.233-.668.58-.212.58-.497,1.134-.801,1.808-.29-.465-.57-.813-.742-1.208-.337-.774-.905-1.085-1.726-1.065-.518.013-1.038-.046-1.557-.072l-.05-.135c.4-.327.783-.68,1.206-.976.627-.438.87-.952.57-1.708-.177-.446-.247-.935-.401-1.552.497.202.859.344,1.216.497.278.119.539.297.827.366.196.047.461.009.635-.094.678-.403,1.332-.848,1.995-1.277.046.034.091.067.137.101-.086.494-.17.988-.26,1.481-.051.281-.112.56-.168.84-.065.326.019.581.295.796.435.339.845.708,1.265,1.065-.02.052-.041.105-.061.157ZM80.051,32.036c-.038-.041-.077-.083-.115-.124-.342.19-.688.371-1.024.572-.642.385-.783.862-.457,1.721.554-.753,1.075-1.461,1.596-2.168ZM78.36,35.152c.052.831.1,1.587.151,2.407.886-.947.84-1.764-.151-2.407ZM77.785,34.984c-.852.277-1.584.515-2.316.753,1.657.391,1.843.309,2.316-.753ZM80.103,32.299c-.48.712-.885,1.315-1.332,1.978,1.097-.085,1.524-.708,1.332-1.978ZM81.016,35.414c-.765-.178-1.423-.332-2.167-.506.479,1.035,1.031,1.156,2.167.506ZM77.955,34.099c.365-1.025-.017-1.498-1.328-1.722.458.593.867,1.123,1.328,1.722ZM76.494,32.662c-.036.029-.072.059-.107.088.183,1.442.411,1.7,1.356,1.449-.427-.525-.837-1.031-1.248-1.537ZM77.763,34.7c-1.054-.532-1.595-.33-2.108.717.697-.237,1.347-.458,2.108-.717ZM78.152,37.171v-1.814c-.825.591-.818,1.088,0,1.814ZM79.065,34.685c.634.173,1.201.327,1.837.5-.482-.819-.998-.958-1.837-.5Z"/>
    <path class="cls-1" d="M33.85,36.053c-.586.092-1.169.232-1.759.262-.601.03-1.007.219-1.233.813-.189.498-.467.963-.76,1.553-.158-.243-.284-.393-.362-.564-.158-.348-.323-.698-.426-1.064-.141-.5-.485-.592-.938-.618-.627-.035-1.251-.127-1.876-.195-.019-.041-.039-.082-.058-.123.218-.19.415-.414.658-.564.959-.595,1.363-1.351.877-2.472-.145-.334-.128-.738-.201-1.219.298.091.519.121.699.222.374.21.779.407,1.076.705.361.363.621.297.984.034.476-.345.987-.646,1.496-.942.119-.069.293-.045.441-.064,0,.134.023.273-.001.402-.11.594-.262,1.182-.335,1.78-.022.184.109.449.255.581.48.433,1,.821,1.505,1.227-.014.082-.028.165-.042.247ZM30.409,35.12c.36,1.162,1.391,1.11,2.438.676-.854-.237-1.604-.445-2.438-.676ZM30.69,34.541c.041.053.083.106.124.16.32-.167.783-.255.927-.518.232-.425.253-.964.363-1.456-.062-.022-.124-.045-.186-.067-.41.627-.819,1.254-1.229,1.881ZM30.389,34.458c.407-.601.815-1.202,1.278-1.884-1.16.291-1.455.703-1.278,1.884ZM28.639,32.768c.417.586.835,1.172,1.306,1.834.216-1.231.155-1.321-1.306-1.834ZM29.65,35.07c-.916-.545-1.686-.283-2.207.675.777-.238,1.492-.456,2.207-.675ZM27.776,35.919c1.338.416,1.52.516,1.829-.581-.651.207-1.24.394-1.829.581ZM33.009,35.602c-.681-1.073-1.136-1.198-2.044-.56.692.19,1.341.368,2.044.56ZM28.403,32.874c-.042.02-.084.041-.125.061.058.293.115.586.176.878.135.652.276.745,1.074.652-.39-.553-.757-1.072-1.124-1.591ZM30.234,37.398c.763-.952.725-1.281,0-1.676v1.676ZM29.963,35.749c-.687.609-.689.959,0,1.805v-1.805Z"/>
    <path class="cls-1" d="M53.426,50.532c-1.137-.692-1.996-1.671-2.813-2.699-.507-.637-.8-1.279-.735-2.157.105-1.399.028-2.812.028-4.219,0-.173,0-.346,0-.554h-.659v4.598c-.733-1.539-1.118-3.135-1.236-4.848h12.634c-.054,1.8-.532,3.475-1.272,5.107v-4.844h-.93c-.015.08-.04.154-.04.228-.001,1.871-.002,3.741.006,5.612,0,.102.068.203.171.294-.968,1.68-2.368,3.011-4.134,3.953-.101.054-.285.045-.385-.013-.232-.133-.436-.313-.652-.474.09.02.18.039.27.059v-9.7c-.253.015-.465.028-.696.041,0,2.626-.001,5.197.001,7.767,0,.65-.126,1.333.441,1.849ZM54.861,50.595c.375-.306.665-.442.662-.893-.021-2.794-.012-5.589-.007-8.383,0-.264-.001-.461-.366-.457-.354.004-.373.185-.369.456.032,1.867.061,3.734.079,5.601.011,1.179.002,2.358.002,3.675ZM51.865,48.899v-7.984h-.851c0,.203,0,.361,0,.519,0,1.932.046,3.866-.022,5.796-.027.767.331,1.202.873,1.669ZM57.296,40.867c-.284.014-.481.023-.657.032v8.251c.534-.316.683-.744.672-1.333-.039-2.041-.015-4.084-.015-6.126v-.824Z"/>
    <path class="cls-1" d="M60.822,36.632v3.229c-.197,0-.367,0-.537,0-3.993,0-7.987-.006-11.98.008-.388.001-.532-.087-.518-.499.03-.891.009-1.783.009-2.712,2.389-.167,4.796-.187,6.556-2.18,1.838,1.642,3.994,2.302,6.471,2.154ZM58.371,37.643c.033-.115.081-.278.131-.449-.124-.09-.263-.191-.371-.27-.145.1-.275.19-.396.273.052.148.106.301.157.446h.479ZM52.774,36.228c-.14.097-.271.187-.383.264.043.151.087.308.125.443h.502c.043-.16.086-.315.12-.439-.127-.094-.244-.18-.364-.268ZM54.413,35.271c-.108.077-.249.177-.374.266.051.166.102.33.141.454h.471c.059-.163.118-.324.161-.443-.141-.098-.271-.187-.4-.276ZM55.596,39.224c.057-.152.114-.306.16-.43-.123-.089-.261-.19-.388-.282-.128.093-.268.195-.39.284.049.143.105.307.147.429h.47ZM49.222,37.27c-.134-.08-.269-.161-.399-.238-.13.08-.273.168-.391.241.056.168.107.324.149.448h.483c.057-.162.11-.313.159-.451ZM60.186,39.376c.045-.148.091-.301.135-.448-.126-.088-.26-.182-.383-.267-.143.102-.284.201-.389.277.06.161.111.299.162.439h.474ZM52.855,38.79c.046.134.099.289.148.431h.475c.056-.145.117-.305.161-.421-.149-.103-.29-.2-.401-.277-.129.089-.248.172-.383.266ZM55.927,37.017h.462c.051-.15.106-.311.146-.427-.137-.105-.264-.201-.378-.288-.112.084-.252.19-.388.293.043.115.103.276.158.422ZM60.192,37.805c.228-.342.042-.562-.232-.724-.146.106-.28.203-.399.289.056.161.109.314.15.434h.48ZM48.825,38.735c-.137.111-.263.213-.372.301.047.153.091.297.128.417h.493c.035-.135.075-.289.11-.426-.117-.095-.232-.188-.36-.292ZM57.586,39.27c.171.018.331.035.479.051.038-.148.08-.311.117-.451-.118-.096-.256-.208-.368-.299-.13.106-.266.216-.38.309.052.133.101.258.152.389ZM51.075,38.686c-.114.093-.25.204-.453.369.213.148.44.305.659.457.081-.254.13-.405.171-.534-.114-.088-.251-.194-.378-.292ZM51.261,37.062c-.131-.1-.261-.2-.381-.292-.126.092-.269.197-.386.282.048.146.101.304.146.441.159-.013.319-.027.457-.038.056-.134.109-.259.164-.392Z"/>
    <path class="cls-1" d="M77.236,25.112c-.634.644-7.447,2.157-8.296,2.045,2.695-.664,5.528-1.362,8.296-2.045Z"/>
    <path class="cls-1" d="M39.705,27.615c-3.118-.314-6.086-1.176-8.935-2.469.013-.044.026-.088.039-.131,1.463.498,2.906,1.067,4.393,1.474,1.491.408,3.025.656,4.541.974-.012.051-.025.102-.037.153Z"/>
    <path class="cls-1" d="M52.394,26.979c.379.672.999.677,1.703.556-.347.275-.86.362-1.161.174-.264-.164-.656-.271-.536-.731,0,0-.006.001-.006.001Z"/>
    <path class="cls-1" d="M51.525,80.968c-.914-.023-.886-.26-.822-.713.014-.101.191-.223.313-.254.164-.041.349-.013.523.003.366.033.608.198.567.609-.043.435-.386.331-.582.355Z"/>
    <path class="cls-1" d="M67.24,78.34c.005.3-.535.684-.928.7-.157.007-.6-.567-.492-.682.196-.206.485-.389.76-.435.284-.048.608.064.659.417Z"/>
    <path class="cls-1" d="M46.984,79.253c.551.077,1.086.181,1.337.78-.261.238-1.222.372-1.463.175-.098-.08-.144-.296-.121-.434.03-.177.155-.338.246-.521Z"/>
    <path class="cls-1" d="M36.374,74.444c.312.19.561.329.795.488.344.233.355.497.08.839-.255.317-.472.22-.711-.018-.166-.166-.355-.308-.584-.505.13-.248.269-.516.42-.804Z"/>
    <path class="cls-1" d="M35.504,75.859c.269.177.568.301.754.521.134.158.117.445.167.674-.202.04-.402.091-.606.114-.068.008-.145-.056-.217-.09-.763-.37-.794-.634-.098-1.218Z"/>
    <path class="cls-1" d="M58.555,80.025c.442-.063.74-.138,1.036-.133.151.003.426.15.426.232,0,.224-.064.595-.197.643-.304.109-.695.145-.99.04-.152-.053-.175-.471-.275-.782Z"/>
    <path class="cls-1" d="M75.463,75.344c.005.455-.352,1.05-.744,1.095-.217.025-.54-.126-.678-.303-.319-.41-.571-.878-.813-1.341-.053-.101-.004-.35.084-.417.876-.661,1.689-.336,2.085.619.048.115.048.25.066.347ZM75.309,75.1c-.142-.154-.286-.427-.503-.514-.208-.083-.493.028-.745.053.03.245.034.497.1.732.04.143.163.27.269.385.295.318.482.295.685-.087.072-.136.103-.295.195-.568Z"/>
  </g>
</svg>