<?xml version="1.0" encoding="UTF-8"?>
<svg id="Insignias" xmlns="http://www.w3.org/2000/svg" viewBox="0 0 108 108">
  <defs>
    <style>
      .cls-1 {
        fill: #231f20;
      }
    </style>
  </defs>
  <g id="Star_Insignia" data-name="Star Insignia">
    <path class="cls-1" d="M53.494,89.254c-2.571-.5-5.079-.905-7.539-1.506-.968-.237-1.625-.122-2.428.442-7.478,5.253-14.988,10.46-22.49,15.68-.125.087-.262.158-.502.302.691-2.289,1.346-4.46,2.003-6.631,3.197-10.58,6.391-21.16,9.603-31.735.143-.472.058-.705-.335-1.002-7.65-5.782-15.285-11.582-22.924-17.377-2.741-2.079-5.487-4.152-8.23-6.229-.224-.17-.443-.347-.652-.677.487,0,.974.008,1.461-.001,5.212-.095,10.424-.189,15.636-.289,3.42-.066,6.839-.157,10.259-.197.497-.006.595-.291.77-.612,1.49-2.725,3.716-4.526,6.736-5.31.33-.086.679-.102,1.045-.155.021-.235.04-.454.06-.672.044-.007.105-.032.117-.017.587.731,1.414.684,2.241.816,1.068.17,2.096.599,3.138.928.209.066.401.181.659.3,3.941-11.342,7.867-22.641,11.851-34.106,3.994,11.493,7.937,22.841,11.894,34.227,1.518-.893,3.073-1.492,4.743-1.696,3.394-.415,6.305.465,8.33,3.397.514.744.881,1.594,1.267,2.418.148.317.285.469.659.473,3.034.036,6.068.088,9.101.148,5.943.118,11.886.244,17.829.368.035,0,.07.029.206.088-.359.281-.677.536-1.001.782-9.7,7.357-19.4,14.715-29.108,22.061-.392.296-.521.594-.565,1.094-.102,1.166-.367,2.317-.532,3.479-.049.348-.06.734.039,1.065,3.445,11.439,6.905,22.873,10.362,34.309.063.207.106.42.197.785-1.184-.822-2.247-1.558-3.309-2.297-6.615-4.605-13.23-9.212-19.849-13.812-.156-.109-.374-.241-.536-.212-1.835.332-3.664.693-5.525,1.052,0,1.074.03,2.197-.011,3.318-.025.697-.349,1.402.192,2.051.052.063-.016.272-.082.38-.158.26-.341.506-.528.747-.328.421-.423.793.045,1.214.402.361.36.859.281,1.368-.056.357-.045.754.052,1.1.421,1.504.993,2.974.888,4.582-.125,1.904-1.113,2.849-2.691,3.082-.908.134-1.503-.401-2.017-1.033-.836-1.028-1.088-2.237-.863-3.509.39-2.197.846-4.382,1.296-6.568.066-.323.03-.519-.185-.8-.213-.28-.365-.765-.276-1.086.237-.863.181-1.615-.35-2.349-.491-.68-.941-1.392-.428-2.176ZM48.144,52.598c.089,1.057.214,2.104.776,3.041.272.453.605.799,1.264.728-.404-.649-.805-1.235-1.143-1.855-.336-.616-.609-1.268-.91-1.903-.131-.806-.262-1.611-.393-2.421-.871.206-1.288.875-1.136,1.7.15.816.297,1.634.422,2.454.167,1.1-.175,2.112-.635,3.106.599.043.927-.127,1.292-.575.703-.864.677-1.82.408-2.824-.132-.491-.225-.992-.349-1.548.216.052.31.074.404.097ZM51.652,39.444c.088.083.174.17.266.25.989.857,1.063,1.508.29,2.556-.07.095-.14.189-.211.284.02.048.04.096.059.144.345-.097.689-.195,1.041-.294.033.114.096.329.171.587.273-.204.478-.358.61-.457.272.171.497.426.697.407.228-.021.434-.286.681-.469.147.278.291.553.485.919.201-.286.344-.49.508-.722.288.224.558.435.875.681.117-.609.22-1.12-.379-1.493-.676,1.11-.779-.182-1.254-.291-.131.19-.278.404-.522.759-.247-.39-.407-.641-.574-.903-.275.256-.449.418-.646.601-.156-.179-.285-.328-.415-.478-.178.074-.347.145-.674.281.287-.355.46-.569.625-.773-.181-.31-.301-.628-.517-.855-.309-.327-.52-.859-1.135-.715.041-.103.081-.205.113-.284.931.013,1.139.828,1.552,1.398.289-.219.512-.389.753-.572.157.187.296.352.461.549.244-.174.463-.331.715-.512.166.243.306.448.459.673.24-.219.443-.405.65-.593.293.243.542.449.79.655.06-.044.119-.088.179-.132-.218-.452-.437-.904-.654-1.354.191-.011.399-.022.674-.037-.124-.239-.213-.41-.321-.617-.847.45-1.629.493-2.343-.165-.015-.014-.03-.033-.048-.038-.231-.059-.462-.115-.693-.172-.009.045-.019.089-.028.134.074.034.149.067.273.123-1.046.328-1.396.062-1.394-1.127.449.143.914.191,1.258.421.771.515,1.512,1.011,2.513.622-.043-.11-.111-.284-.167-.427.286-.1.564-.197.784-.274-1.145-.385-2.273-.764-3.401-1.144-.787-.265-1.324-.091-1.667.486.112.075.266.126.311.226.038.084-.023.249-.094.332-.033.038-.256,0-.288-.06-.467-.882-1.303-.613-2.01-.606-.689.007-.984.845-.601,1.351.347-.264.678-.713,1.034-.734.437-.026.902.292,1.341.491.095.043.216.261.186.306-.079.12-.253.282-.356.261-.302-.061-.594-.191-.879-.318-.175-.078-.331-.2-.496-.303l-.119.164c.509.42,1.018.84,1.531,1.256ZM27.401,41.373c-7.674.158-15.267.315-22.861.471-.014.048-.028.096-.043.144,9.33,7.006,18.659,14.012,27.922,20.968.36-.493.686-.94,1.048-1.437,1.32,1.531,2.657,2.769,4.299,3.82-.265-.651-.485-1.19-.707-1.735-.111.059-.249.132-.456.242.192-.8.381-1.504.53-2.218.424-2.035,1.471-3.539,3.521-4.209,1.172-.383,1.347-.293,1.744.894.395,1.181,1.342,1.8,2.457,1.917.533.056,1.133-.527,1.702-.821-.147-.192-.218-.227-.29-.228-.932-.011-1.872-1.183-1.986-1.976-.126-.87.386-1.852,1.323-2.349.385-.204.433-.485.383-.846-.135-.979-.268-1.959-.412-2.937-.02-.136-.081-.274-.155-.392-.668-1.064-1.555-1.867-2.739-2.332-1.824-.716-3.613-.223-4.555,1.334-.916,1.515-.918,3.213-.793,4.903.041.55.263,1.086.434,1.752-2.59-.68-4.581-2.196-6.406-3.886-3.194-2.957-4.507-6.675-3.959-11.079ZM77.036,61.841c8.602-6.525,17.133-12.996,25.664-19.467-.017-.045-.034-.09-.051-.134-7.244-.146-14.488-.291-21.748-.437,0,.28-.005.46,0,.639.103,3.112-.709,5.916-2.826,8.261-1.532,1.697-3.417,2.942-5.392,4.053-.505.284-1.059.48-1.67.751,0-.499-.057-.888.01-1.255.241-1.313.12-2.593-.275-3.853-.521-1.662-1.686-2.488-3.419-2.456-1.338.025-2.389.655-3.369,1.511-1.561,1.364-1.503,3.285-1.818,5.079-.017.097.15.274.271.342,1.558.875,1.683,3.204-.239,4.091-.149.069-.283.168-.549.328.463.212.823.309,1.1.517.705.528,1.43.472,2.154.124.978-.471,1.531-1.311,1.83-2.325.123-.418.191-.853.287-1.299,1.682.556,3.007,1.514,3.812,3.036,1.047,1.978.983,4.007-.013,6.044,2.247-1.624,4.3-3.385,5.531-6.03.248.869.465,1.63.708,2.48ZM42.466,86.726c-1.509-.771-3.037-1.416-4.418-2.291-1.678-1.064-3.265-2.281-4.83-3.51-.962-.756-.857-1.944.165-2.289.663-.224,1.016-.575,1.274-1.21.319-.786.85-1.487,1.159-2.275.153-.39.173-.981-.02-1.332-.855-1.557-1.809-3.06-2.759-4.636-3.056,10.109-6.109,20.209-9.161,30.309.048.026.097.053.145.079,6.154-4.285,12.308-8.571,18.445-12.844ZM44.412,69.019c.247.221.494.416.711.64.604.625,1.259,1.216,1.776,1.908.548.733.449,1.571-.107,2.254-.583.717-1.172,1.43-1.762,2.142-.487.588-.478.683.178,1.018,2.422,1.237,5.012,1.877,7.704,2.147.86-.526,1.684.069,2.524.069.831,0,1.667-.083,2.493-.188,2.647-.337,5.158-1.11,7.497-2.412.44-.245.613-.572.273-.983-.49-.591-.964-1.224-1.561-1.692-1.028-.806-1.351-1.751-.673-2.884.434-.724,1.04-1.345,1.57-2.012.089-.112.183-.221.343-.413-2.094.115-3.721-.703-5.209-1.99-.241.575-.447,1.08-.665,1.58-.99,2.275-2.397,4.246-4.318,5.828-.378.311-.782.379-1.275.072-2.155-1.341-3.568-3.29-4.663-5.517-.249-.507-.487-1.019-.717-1.501-.675.411-1.285.854-1.955,1.17-.664.313-1.39.496-2.165.763ZM84.021,99.588c.04-.029.08-.059.12-.088-2.092-6.919-4.185-13.838-6.232-20.607-.298.481-.549,1.054-.949,1.489-.49.533-1.107.949-1.666,1.418-1.835,1.539-3.867,2.77-6.023,3.798-1.039.496-2.098.949-3.241,1.464,6.038,4.204,12.014,8.365,17.991,12.526ZM54.225,86.905c1.306-.075,2.281-.13,3.256-.186.102-.006.203-.012.304-.023,4.882-.566,9.425-2.098,13.567-4.77,1.388-.895,2.773-1.796,3.796-3.127.128-.166.208-.5.129-.673-.6-1.31-1.249-2.598-1.876-3.897-.307-.635-.392-.657-.889-.162-1.611,1.601-3.38,3.002-5.377,4.087-2.747,1.492-5.609,2.686-8.752,3.048-3.267.376-6.504.167-9.69-.629-3.802-.951-7.292-2.522-10.143-5.307-.185-.181-.418-.331-.655-.438-.41-.186-.729-.192-.947.353-.391.98-.863,1.928-1.321,2.88-.689,1.434-.705,1.442.54,2.436,5.376,4.293,11.613,6.098,18.057,6.409ZM48.976,64.996c.199.515.402,1.037.604,1.56.943,2.445,2.157,4.693,4.401,6.223.329.224.547.221.862-.01,1.595-1.169,2.593-2.794,3.432-4.522.555-1.144.996-2.343,1.514-3.577.147.156.255.268.36.383,1.086,1.19,2.28,2.126,3.968,2.403,4.303.707,6.955-3.199,6.216-6.408-.33-1.435-1.189-2.488-2.559-3.259-.746,2.411-2.336,3.605-4.84,3.52-.074.256-.144.498-.234.812,2.482.587,4.211-.352,5.477-2.416.141.154.251.243.321.356,1.443,2.342.356,5.555-2.651,5.978-2.618.368-4.966-1.244-5.804-3.896-.059-.188-.155-.365-.244-.57-.69.509-.328,1.077-.222,1.66-.288-.061-.511-.108-.692-.146-.303.861-.554,1.697-.889,2.499-.761,1.825-1.585,3.62-3.045,5.024-.562.541-.616.551-1.174.023-1.293-1.224-2.25-2.673-2.837-4.353-.372-1.065-.693-2.149-1.04-3.232-.334.061-.601.11-.813.148-.063-.401-.116-.74-.168-1.079-.46.603-.735,1.21-1.059,1.789-.883,1.577-2.217,2.484-4.045,2.512-1.591.024-2.812-.71-3.645-2.058-.844-1.366-.797-3.602.479-4.451.464.869.964,1.729,1.948,2.092.933.344,1.895.535,2.911.259-.111-.436-.052-.886-.641-.942-1.618-.152-2.772-.988-3.432-2.466-.205-.459-.454-.472-.854-.29-1.419.646-2.549,2.487-2.417,4.073.188,2.261,1.463,3.836,3.415,4.789,1.8.879,3.624.547,5.258-.541.751-.5,1.371-1.198,2.142-1.888ZM44.828,72.62c-.125.016-.244.04-.364.045-1.146.042-2.126-.477-3.125-.929-.878-.397-1.772-.753-2.756-.655-.3.03-.646.162-.862.364-.866.807-.815,1.756.313,2.789,4.678,4.285,10.302,6.328,16.579,6.631,3.091.149,6.061-.515,8.926-1.666,3.247-1.304,6.12-3.188,8.642-5.606.522-.501.906-1.09.917-1.866.012-.883-.461-1.435-1.317-1.335-.76.089-1.515.278-2.25.499-.893.268-1.756.635-2.643.921-.405.131-.801.083-1.003-.423,2.774-2.683,6.36-4.184,9.311-6.623.056.313.066.575.017.826-.277,1.417-.606,2.814-1.334,4.09-.425.746-.36,1.152.187,1.674,1.798-2.759,2.456-5.737,2.039-9.056-.753.702-1.371,1.419-2.122,1.951-2.157,1.529-4.379,2.965-6.551,4.473-1.134.788-2.271,1.601-2.917,2.887-.35.697-.146,1.191.623,1.289.498.064,1.044-.057,1.538-.2,1.321-.382,2.624-.827,3.939-1.231.188-.058.407-.052.606-.028.684.082.983.724.604,1.304-.189.288-.401.566-.633.821-2.347,2.582-5.333,4.211-8.525,5.416-4.374,1.651-8.882,1.597-13.396.566-3.332-.76-6.438-2.043-9.099-4.228-.66-.542-1.203-1.268-1.669-1.993-.415-.646-.143-1.134.596-1.305.246-.057.538-.084.768-.006.845.287,1.68.606,2.505.947.913.377,1.839.64,2.841.574.737-.049,1.199-.673.896-1.345-.186-.413-.455-.867-.816-1.109-1.125-.753-2.271-1.497-3.483-2.092-2.565-1.26-5.116-2.511-7.103-4.653-.322-.347-.759-.587-1.252-.96-.399,3.641.908,6.557,2.967,9.314.266-.525.224-.906.016-1.383-.657-1.504-1.241-3.041-1.811-4.581-.142-.384-.126-.827-.182-1.243.056-.023.112-.046.168-.069,1.893,1.838,4.295,2.836,6.554,4.073,1.015.556,1.992,1.184,2.961,1.817.442.289.845.658.702,1.312ZM54.91,21.689c-.039.014-.077.029-.116.043.013.219.031.438.037.657.125,4.493.246,8.985.373,13.478.033,1.171.039,1.173,1.231,1.343.488.07.978.124,1.661.21-.477.362-.803.61-1.116.848.249.39.493.773.754,1.182-.239.127-.389.206-.463.245.1.495.23.921.262,1.355.028.377-.149.784-.064,1.136.091.379.305.806.602,1.038.348.271.788.086,1.086-.246.298-.332.577-.682.842-1.04.41-.556.749-1.174,1.218-1.672.3-.318.384-.623.396-1.016.058-1.908-.26-3.773-.73-5.604-.82-3.194-2.228-6.141-3.979-8.925-.644-1.024-1.327-2.022-1.993-3.032ZM53.988,21.447c-.039-.013-.079-.025-.118-.038-.061.075-.132.144-.182.226-1.057,1.759-2.102,3.526-3.167,5.28-2.36,3.886-3.797,8.033-3.586,12.643.016.34.137.731.343.994.549.703,1.158,1.361,1.765,2.017.577.624,1.238.785,1.908.51.482-.198,1.519-1.53,1.438-1.954-.062-.321-.221-.67-.445-.902-.52-.539-1.115-1.006-1.661-1.521-.292-.275-.524-.328-.689.097-.458-.282-.828-.564-.657-1.143.183-.619.661-1.053,1.205-1.023.85.046,1.662.225,2.485-.345.378-.262.617-.429.636-.872.05-1.152.097-2.304.161-3.455.133-2.393.281-4.785.414-7.177.062-1.111.102-2.224.151-3.336ZM54.201,19.135c.525,1.007.917,1.976,1.491,2.821,2.065,3.039,3.985,6.158,5.096,9.681.553,1.753.904,3.573,1.267,5.379.161.801.125,1.64.184,2.534.4-.196.764-.365,1.12-.551.897-.469,1.749-1.061,2.693-1.393,1.876-.658,3.805-1.165,5.705-1.754.782-.242,1.547-.538,2.32-.809-.03-.085-.06-.169-.09-.254-4.128-.649-7.488.964-10.475,3.863-.062-.296-.105-.447-.125-.601-.134-1.048-.21-2.107-.402-3.145-.674-3.627-2.177-6.93-4.071-10.065-1.199-1.984-2.462-3.928-3.659-5.913-.368-.61-.615-1.295-.944-2.004-.108.159-.184.249-.238.352-.425.809-.815,1.639-1.273,2.429-1.736,2.991-3.56,5.933-5.221,8.964-1.315,2.401-2.179,4.985-2.391,7.75-.057.743-.152,1.483-.242,2.343-1.554-1.26-2.993-2.519-4.827-3.169-1.937-.686-4.634-.809-5.637-.204,1.33.382,2.587.764,3.855,1.104,2.432.651,4.889,1.225,6.922,2.852.269.215.632.314.929.457.136-1.417.205-2.758.404-4.079.496-3.284,1.79-6.27,3.48-9.109,1.268-2.13,2.475-4.295,3.697-6.452.174-.307.278-.654.433-1.027ZM46.391,28.206c.031.012.063.024.094.036.726-1.244,1.441-2.495,2.181-3.731,1.775-2.962,3.804-5.782,5.017-9.059.086-.233.523-.421.819-.458.159-.02.469.292.533.507.769,2.566,2.069,4.853,3.596,7.029.524.747,1.02,1.515,1.529,2.273.036-.019.071-.037.107-.056-2.065-5.943-4.13-11.886-6.195-17.829-.046.008-.093.015-.139.023-2.514,7.088-5.028,14.177-7.542,21.265ZM33.092,35.765c-.738.568-1.458,1.052-2.098,1.626-2.137,1.913-2.913,4.341-2.574,7.15.371,3.073,1.871,5.553,4.114,7.613,1.048.962,2.218,1.757,3.606,2.367.049-.27.097-.459.115-.651.097-1.064.053-2.161.305-3.186.689-2.811,2.908-4.144,5.715-3.561.278.058.551.136.826.205-.461-.493-.967-.864-1.494-1.202-.197-.127-.441-.247-.666-.254-2.464-.073-4.932,1.261-5.543,4.148-.135.64-.174,1.301-.266,2.024-.245-.139-.431-.221-.589-.338-1.39-1.027-2.566-2.248-3.419-3.766-1.003-1.786-1.579-3.658-1.053-5.711.477-1.861,1.582-3.314,3.057-4.521.227-.186.403-.57.402-.862,0-.31-.239-.62-.439-1.079ZM33.459,38.06c-.976.598-1.637,1.499-2.207,2.454-.689,1.155-1.045,2.422-.888,3.782.326,2.823,1.897,4.909,4.008,6.663.096.08.236.106.39.172.189-3.532,2.298-5.181,5.536-5.86-.38-.332-.79-.58-1.187-.85-.23-.156-.439-.343-.653-.522-.165-.139-.325-.285-.484-.43-.352-.321-.703-.642-1.053-.965-.143-.132-.259-.327-.427-.393-1.066-.421-1.159-1.689-2.015-2.287-.037-.026-.052-.118-.042-.173.139-.795-.48-1.126-.978-1.59ZM73.515,50.904c.175-.092.288-.135.381-.204,1.277-.94,2.38-2.061,3.161-3.436,1.133-1.997,1.415-4.135.676-6.338-.489-1.458-1.39-2.627-2.747-3.504-1.326,3.118-3.453,5.513-6.199,7.478,2.938.975,4.514,2.912,4.729,6.004ZM66.223,46.806c.027.054.055.108.082.163.317-.027.634-.065.952-.081,2-.1,3.729.979,4.331,2.883.392,1.241.558,2.553.832,3.865.04-.015.241-.057.408-.157,1.628-.97,3.219-1.988,4.472-3.445,2.017-2.344,2.948-5.053,2.477-8.122-.403-2.625-1.535-4.881-3.892-6.345-.139-.086-.294-.146-.424-.209-.108.346-.141.644-.285.87-.274.431-.216.678.215.99,2.592,1.874,3.698,5.116,2.847,8.16-.684,2.446-2.25,4.243-4.191,5.769-.292.23-.615.422-.98.671-.036-.581-.062-1.044-.095-1.507-.15-2.111-1.744-4.15-3.751-4.743-.446-.132-.926-.356-1.396.006-.284.219-.605.391-.89.608-.25.19-.475.414-.711.623ZM54.513,43.535c-1.837,1.247-3.682,2.101-5.881,1.811-.383-.05-.508.129-.49.49.083,1.643.019,3.308.263,4.927.535,3.556,2.346,6.324,5.532,8.1.215.12.615.136.819.015,2.295-1.356,3.975-3.268,4.97-5.746.708-1.763.76-3.645.865-5.509.038-.683.006-1.369.006-2.136-2.384.258-4.438-.301-6.084-1.952ZM63.572,40.289c.92.008,1.644-.447,2.28-1.031.401-.368.843-.509,1.358-.59,2.085-.329,4.178-.64,6.149-1.446.464-.19.955-.407,1.309-.743.224-.213.216-.67.312-1.017-.312-.04-.657-.186-.931-.103-1.261.384-2.498.846-3.753,1.255-1.579.514-3.197.923-4.737,1.532-1.085.429-2.052,1.15-3.105,1.674-.779.388-1.347.949-1.809,1.666-.385.597-.801,1.175-1.234,1.737-.365.473-.85.597-1.412.348-.163-.072-.334-.127-.498-.189-.498.748-.755-.008-1.184-.168-.212.238-.444.498-.723.812.459.264.869.499,1.351.776v-.458c.267-.144.809.377.754-.558.217.343.322.51.449.71-.342.08-.579.136-.817.192-.004.077-.008.155-.011.232.522.101,1.043.202,1.487.289.093-.281.16-.447.202-.62.046-.189.068-.384.106-.605.138.145.283.298.45.474-.159.152-.28.267-.398.38.51.679,1.068.442,1.604-.659-.129-.102-.261-.207-.403-.32,1.244-.81,1.267-.841.913-1.253.889-.382,1.026-.58.754-1.082,1.18-.216,1.713-.632,1.541-1.235ZM76.821,79.177c-.05-.117-.099-.235-.149-.352-.203.047-.451.035-.602.15-.632.479-1.229,1.004-1.85,1.498-5.02,3.996-10.694,6.391-17.12,6.807-5.758.372-11.242-.772-16.426-3.316-2.203-1.081-4.224-2.44-6.075-4.055-.15-.131-.434-.109-.656-.159.082.188.113.44.255.554,1.033.824,2.043,1.687,3.143,2.414,6.502,4.293,13.662,5.773,21.354,4.881,5.158-.598,9.938-2.25,14.187-5.275,1.367-.973,2.628-2.093,3.938-3.146ZM53.087,43.397c-.491-.571-.729-.602-1.414-.182-.969.593-2.116.455-2.881-.368-.345-.371-.661-.77-.979-1.166-.523-.652-1.06-1.26-1.882-1.58-.504-.196-.946-.548-1.421-.823-.789-.456-1.534-1.048-2.382-1.329-1.96-.649-3.973-1.141-5.961-1.71-.603-.173-1.186-.429-1.796-.561-.24-.052-.531.134-.798.211.093.266.167.541.288.793.044.091.195.138.305.188,1.707.77,3.469,1.365,5.313,1.717.888.17,1.881.195,2.621.633,1.006.595,1.963,1.196,3.295,1.312-.291.119-.431.177-.571.234-.008.058-.016.117-.024.176.605.213,1.211.427,1.83.645-.156.052-.296.098-.618.206.558.426,1.001.765,1.471,1.125-.185.023-.317.04-.449.056-.018.042-.037.084-.055.126.512.32,1.024.639,1.618,1.01-.327.054-.546.09-.844.14.534.607,1.132.879,1.828.755.244-.043.438-.368.69-.597-.341-.163-.553-.263-.765-.364.227-.062.398.002.573.026.17.023.345.005.571.005-.146.289-.263.52-.403.799,1.424-.103,1.925-.371,1.899-.987-.232-.026-.466-.052-.701-.079.004-.033.009-.066.013-.1h1.114c-.045.186-.089.365-.133.545.044.038.088.077.131.115.497-.357.994-.714,1.491-1.071-.045-.078-.09-.157-.135-.235-.28.112-.56.223-.841.335ZM40.523,60.747c-.555,1.203-.43,2.281.059,3.259.637,1.274,1.74,2.002,3.203,1.923,1.57-.084,2.845-.768,3.648-2.174.072-.127.049-.399-.043-.51-.212-.255-.493-.452-.779-.701-2.293.635-4.515.712-6.089-1.797ZM68.145,60.685c-.096.1-.155.154-.204.215-1.497,1.845-3.318,2.368-5.599,1.628-.222-.072-.481-.028-.723-.037.035.449-.64.71-.213,1.315,1.043,1.478,2.897,2.185,4.725,1.717,2.116-.542,3.036-2.756,2.015-4.838ZM54.371,70.499c1.614-1.516,2.524-3.385,3.211-5.413-.263.011-.581.039-.634.172-.294.732-.862.838-1.535.788-.095-.007-.203.02-.288.063-.968.488-1.065.473-1.818-.342-.899.678-1.313-.521-2.176-.628.565,2.149,1.594,3.88,3.241,5.36ZM43.768,72.237c.05-.062.1-.124.151-.186-.14-.148-.256-.333-.423-.437-1.135-.709-2.269-1.421-3.426-2.092-1.574-.913-3.168-1.79-4.727-2.667.194,1.28.694,2.55,1.401,3.741.241.406.643.391.952.152.456-.352.956-.352,1.447-.263.614.111,1.23.275,1.81.505.954.378,1.879.828,2.817,1.247ZM39.14,72.501c-.171.7.011,1.17.446,1.544.477.411.931.865,1.462,1.192.645.397,1.352.699,2.051.998.127.054.418-.053.508-.177.285-.393.514-.827.757-1.249.223-.386.128-.61-.315-.768-1.3-.463-2.581-.981-3.882-1.44-.307-.108-.666-.069-1.028-.101ZM74.507,66.072c-2.435,1.573-4.857,3.138-7.28,4.703.036.063.073.126.109.189.631-.209,1.256-.438,1.894-.622,1.143-.328,2.265-.801,3.505-.53.104.023.286-.123.373-.236.815-1.049,1.306-2.229,1.399-3.505ZM56.618,95.319c-.408,1.066-.276,2.148.007,3.216.302,1.138.655,2.261.984,3.392.28.962.128,1.898-.244,2.793-.318.765-1.144.995-1.748.433-.355-.33-.639-.851-.726-1.327-.11-.604-.055-1.262.046-1.877.294-1.783.653-3.555.972-5.333.1-.555.155-1.119.231-1.679-.066-.015-.132-.03-.198-.044-.05.13-.115.256-.147.39-.392,1.659-.808,3.313-1.159,4.981-.298,1.418-.488,2.856-.004,4.278.237.697.617,1.373,1.405,1.45.836.081,1.385-.512,1.763-1.199.149-.272.207-.614.234-.93.12-1.386-.223-2.703-.646-4.005-.478-1.47-.94-2.944-.77-4.538ZM71.094,71.974c-.684.18-1.286.315-1.872.499-.867.273-1.709.638-2.588.86-1.02.256-1.052.257-.451,1.151.586.87,1.342,1.193,1.973.805.621-.382,1.232-.785,1.82-1.216.639-.468,1.116-1.054,1.118-2.098ZM56.107,98.169c-.483,1.221-.957,4.575-.753,5.704.064.352.303.701.544.983.274.322.584.274.855-.092.547-.739.699-1.568.49-2.429-.337-1.384-.745-2.75-1.135-4.165ZM75.645,71.412c-.308.366-.526.663-.782.92-.397.399-.568.842-.329,1.375.43.959.883,1.906,1.313,2.865.341.76.908,1.236,1.799,1.452-.668-2.205-1.322-4.369-2.001-6.612ZM60.234,54.203c-.325,2.523-.143,3.005,1.103,3.051,0-.08.017-.163-.002-.237-.315-1.227-.256-2.447-.005-3.682.183-.903.591-1.805.243-2.749-.118-.319-.348-.597-.527-.894-.061.027-.121.054-.182.082-.175,2.484-1.042,4.707-2.692,6.781,1.086-.395,1.229-.566,2.064-2.353ZM54.633,36.44c-.084-4.89-.168-9.742-.251-14.593-.163,1.33-.218,2.661-.271,3.992-.128,3.206-.242,6.413-.392,9.618-.03.633.173.956.915.983ZM54.658,61c-.082.163-.224.322-.234.488-.035.586-.028,1.174-.031,1.761-.003.767,0,1.534,0,2.302h-.251v-4.423c-.064-.003-.127-.007-.191-.01-.05.122-.138.242-.145.367-.068,1.216-.132,2.432-.173,3.649-.007.212.047.473.173.632.145.184.427.414.603.38.219-.042.525-.311.559-.521.247-1.528.255-3.058-.31-4.625ZM73.764,38.917c-.116,0-.234-.01-.35.001-1.264.122-2.526.259-3.791.368-.564.048-.864.418-1.229.823.167.086.269.181.374.185,1.246.046,2.498.157,3.739.084.768-.045,1.276-.771,1.258-1.462ZM71.24,42.427c-1.238-.284-2.415-.477-3.535-.845-.512-.168-.834-.055-1.202.188-.249.165-.265.361.009.513,1.127.624,2.304,1.107,3.623,1.039.611-.031.961-.417,1.105-.895ZM56.022,64.767c-.052.007-.104.014-.156.021,0-.361.026-.725-.005-1.083-.083-.948-.183-1.895-.3-2.84-.015-.123-.172-.228-.263-.342-.062.126-.184.254-.178.377.068,1.431.149,2.862.246,4.292.012.173.12.469.211.48.236.029.561.009.714-.136.2-.19.362-.513.378-.788.086-1.474-.16-2.91-.638-4.305-.035-.102-.152-.176-.23-.263.254,1.553.432,3.061.221,4.587ZM67.3,41.124c1.286.582,2.524.973,3.868.845.765-.073,1.367-.627,1.4-1.144-1.184-.062-2.382-.034-3.546-.22-.682-.109-1.165.012-1.722.519ZM39.951,40.434c0-.061,0-.122.001-.183-.306-.221-.59-.592-.92-.637-1.405-.193-2.823-.291-4.24-.423-.064.596.23,1.113.853,1.213.736.118,1.486.194,2.231.2.691.005,1.384-.108,2.075-.169ZM38.699,39.313c.041-.069.082-.139.123-.208-.193-.156-.363-.377-.584-.456-.914-.326-1.848-.597-2.766-.912-.528-.181-1.041-.407-1.572-.618-.164.834.004,1.192.677,1.483.353.153.715.295,1.085.397.997.273,2.01.393,3.038.314ZM53.184,60.671c-.094-.034-.188-.068-.282-.101-.14.31-.343.606-.409.931-.22,1.083-.424,2.172-.562,3.268-.055.437.514.91.922.857.584-.075.504-.509.486-.928-.022-.505-.021-1.013.009-1.518.044-.748.122-1.495.186-2.242-.191.123-.274.262-.305.411-.253,1.195-.496,2.391-.718,3.473-.299-.576-.042-1.315.092-2.029.135-.719.383-1.416.582-2.123ZM41.179,41.383c-.492-.408-.89-.74-1.512-.577-.308.081-.643.073-.966.076-.96.009-1.921.003-2.915.003.073.62.463.865.929.968.41.09.845.126,1.265.108,1.061-.045,2.116-.159,3.198-.579ZM51.272,64.317c-.038-.003-.077-.005-.115-.008-.012-.213-.071-.435-.028-.636.228-1.065.448-2.134.744-3.181.109-.385.087-.564-.358-.668-.674,1.211-1.05,2.494-.873,3.89.064.504.254,1.004.902,1.157.093-.668.128-1.28.272-1.865.192-.78.48-1.536.703-2.309.053-.185.014-.397.017-.597-.13.13-.311.238-.38.395-.194.443-.398.895-.496,1.365-.169.81-.262,1.637-.386,2.457ZM74.64,37.069c-1.246.413-2.467.825-3.694,1.22-.365.118-.752.169-1.116.289-.122.04-.203.201-.303.307.116.055.238.166.348.156,1.209-.111,2.424-.188,3.619-.385.728-.12,1.192-.903,1.146-1.587ZM42.234,42.279c-.422-.391-.805-.688-1.448-.456-.504.182-1.067.211-1.608.285-.631.086-1.266.146-1.899.218-.028.074-.055.149-.083.223.296.193.573.508.891.556,1.378.21,2.688-.152,3.969-.628.065-.024.105-.115.178-.198ZM46.677,55.67c-.824.054-1.317.491-1.375,1.069-.072.711.288,1.294.979,1.376.802.095,1.618.078,2.428.095.355.008.469-.215.387-.527-.141-.534-.307-1.061-.491-1.689-.536,1.162-1.208,2.128-2.74,1.84.279-.744.533-1.42.812-2.165ZM56.968,59.501c-.068.018-.136.036-.204.055.204.724.457,1.44.597,2.176.137.72.315,1.463.037,2.199-.116-1.397-.28-2.772-1.058-4.001.268,1.621.537,3.242.81,4.892.471-.125.841-.383.887-.917.14-1.593-.426-3.01-1.069-4.403ZM69.766,43.758c-1.01-.356-2.026-.629-2.96-1.075-.635-.303-1.079-.249-1.609.262,1.151.816,2.385,1.317,3.76,1.418.394.029.732-.184.808-.605ZM38.494,43.635c.34.222.574.504.82.516,1.409.067,2.709-.341,4.01-1.044-.36-.337-.672-.522-1.129-.403-1.153.302-2.312.583-3.701.931ZM64.307,43.791c.978.807,2.003,1.367,3.25,1.377.293.002.587-.187.88-.289-.013-.066-.027-.132-.04-.198-.123-.05-.247-.101-.37-.151-.839-.345-1.724-.611-2.501-1.063-.552-.321-.83-.216-1.22.325ZM59.72,56.981c-.061.084-.191.22-.268.38-.09.188-.246.485-.174.579.122.156.402.257.617.26.544.008,1.094-.015,1.633-.092.693-.098,1.089-.685,1.02-1.416-.052-.554-.455-.939-1.111-.961.146.669.287,1.315.427,1.96-.053.047-.105.095-.158.142-.635-.272-1.269-.544-1.987-.852ZM39.889,44.611c.349.181.616.441.875.433,1.268-.039,2.437-.448,3.64-1.09-.366-.264-.413-.757-.985-.544-1.098.41-2.219.76-3.53,1.202ZM50.253,62.106c.344-.916.707-1.804.999-2.716.073-.227-.067-.537-.165-.786-.014-.035-.394-.001-.531.1-1.088.806-1.231,2.36-.302,3.402ZM57.063,58.679c.428,1.222.856,2.444,1.292,3.689.902-2.036.359-3.151-1.292-3.689ZM45.298,44.753c-.316-.318-.436-.702-.975-.478-.872.363-1.785.627-2.678.938-.138.048-.267.124-.4.187-.007.071-.014.142-.021.214.276.096.565.301.825.269,1.127-.14,2.191-.498,3.249-1.129ZM63.944,44.16c-.467.342-.543.534-.157.743.776.42,1.587.789,2.416,1.091.427.156.851-.119.979-.425-1.05-.457-2.099-.914-3.238-1.409ZM44.381,47.732c.388.15.659.311.947.355.817.125,1.33-.458,1.919-.876.459-.326.432-.689.255-1.076-.998.511-1.96,1.003-3.121,1.597ZM45.955,45.513c-.158-.577-.35-.708-.783-.446-.396.239-.838.411-1.277.566-.521.184-1.059.317-1.61.479.446.569.672.697,1.217.487.827-.319,1.625-.714,2.454-1.085ZM56.67,41.245c.157.179.298.341.439.502.068-.059.136-.118.205-.177-.306-.368-.611-.735-.913-1.097-.303.215-.499.353-.756.535-.328-.659-.749-.464-1.163-.103-.159-.199-.292-.366-.469-.587-.203.181-.375.336-.563.504.118.244.221.455.346.711.214-.161.383-.288.577-.433.212.224.412.434.625.659.238-.219.437-.401.63-.579.246.232.458.431.703.662.137-.24.231-.406.339-.596ZM63.094,44.867c-.367.268-.313.606.075.83.663.383,1.345.75,2.059,1.019.327.123.817.169.988-.327-1.036-.506-2.046-.998-3.123-1.523ZM45.227,48.311c-.04.063-.08.125-.12.188.452.608.904,1.215,1.351,1.815,1.216-.633,1.359-.889,1.043-1.734-.402.114-.814.351-1.193.306-.378-.045-.722-.372-1.081-.575ZM43.398,46.929c.643.683,2.644.103,3.437-.96-.539-.342-.53-.323-1.113-.053-.763.353-1.541.674-2.324,1.013ZM65.915,39.695c1.885.403,3.127-.003,3.176-1.1-.987.562-2.268-.007-3.176,1.1ZM62.375,45.501c-.025.243-.155.589-.055.68.491.443,1.002.906,1.591,1.181.318.149.806-.066,1.217-.117l-.025-.177c-.863-.496-1.726-.991-2.729-1.567ZM65.858,41.95c-.82-.2-1.594-.438-2.387-.557-.288-.043-.618.195-1.021.338,1.113.894,2.885.961,3.407.219ZM63.857,47.757c-.515-.393-1.032-.722-1.465-1.138-.398-.382-.691-.299-1.029.019.8,1.249,1.83,2.011,2.495,1.119ZM66.749,41.048c-.618-.113-1.275-.115-1.818-.364-.675-.31-.943-.046-1.196.484,1.181.671,2.599.625,3.014-.119ZM39.075,38.777c.359,1.187,1.297,1.343,3.181.874-.971-.774-2.113-.467-3.181-.874ZM45.808,42.018c-.165-.619-.541-.566-.941-.482-.691.146-1.384.278-2.075.424-.098.021-.186.086-.362.171,1.211.599,2.274.331,3.378-.112ZM55.885,91.214c-.206-.073-.243-.09-.282-.099-.721-.154-1.001-.494-.957-1.237.03-.501.127-.986.753-1.097.8-.141,1.22.079,1.497.785.076.194.174.38.329.717.047-1.019-.222-1.457-.932-1.716-.662-.241-1.33-.041-1.799.54-.314.388-.366,1.195-.058,1.608.312.419.721.673,1.448.497ZM40.48,40.123c.203.902,1.922,1.078,3.013.359-.923-.91-2.009-.143-3.013-.359ZM41.667,41.319c.599.591,2.13.545,3.189-.177-.444-.142-.789-.37-1.097-.328-.695.095-1.372.322-2.092.505ZM64.957,40.281c1.031.579,2.525.723,2.93-.169-.976.267-1.921-.486-2.93.169ZM60.992,47.004c-.125,1.203.076,1.632.847,1.773.186.034.411-.144.618-.224-.077-.158-.118-.354-.237-.468-.372-.358-.773-.685-1.227-1.08ZM61.05,48.704c-.067.043-.133.086-.2.13.333.447.666.894,1.044,1.403.471-.573.905-1.102,1.339-1.63q-1.034.444-2.183.097ZM64.783,42.796c-.681-.167-1.316-.283-1.923-.484-.409-.135-.615-.035-.732.349.908.559,2.142.643,2.655.135ZM45.293,44.131c.299.689.892.447,1.37.548.736.155.619-.539.89-.902-.73.114-1.459.228-2.26.354ZM46.576,42.748c-.285-.217-.474-.474-.615-.45-.753.129-1.495.328-2.393.538,1.072.398,1.953.258,3.008-.088ZM54.996,90.033c.069.035.138.07.207.105.357-.043.72-.059,1.066-.143.15-.036.351-.197.375-.329.025-.134-.107-.389-.23-.437-.267-.104-.678-.248-.839-.125-.271.208-.394.609-.579.93ZM55.327,90.369c1.096.8.814,1.954,1.022,2.981.357-.587.341-2.106-.023-2.645-.198-.293-.446-.52-.999-.335ZM46.987,43.48c-.191-.146-.371-.394-.523-.378-.667.069-1.325.215-2.023.34.551.478,1.722.496,2.546.038ZM63.945,43.588c-.007-.065-.013-.13-.02-.195-.551-.106-1.119-.158-1.647-.332-.5-.165-.59.072-.689.524.821.002,1.598.505,2.355.004ZM61.139,43.719c.1,1.002.853.68,1.359.757.298.045.63-.127.946-.201-.012-.063-.024-.126-.035-.188-.753-.122-1.506-.244-2.27-.368ZM62.632,44.719c-.547-.029-1.001-.079-1.452-.062-.127.005-.35.217-.342.319.011.138.177.319.32.383.398.18,1.128-.115,1.475-.641ZM55.274,93.826c-.171.5.017.657.416.713.334.047.661.144.991.221.196.046.391.095.728.177-.496-1.103-1.531-.571-2.136-1.112ZM54.726,59.462c-.093.147-.198.259-.241.392-.048.149-.039.315-.055.474-.032-.002-.063-.004-.095-.007-.114-.306-.228-.613-.342-.919-.106.038-.211.076-.317.114.135.416.257.838.419,1.243.022.056.346.07.357.04.147-.396.264-.803.385-1.208.003-.01-.025-.03-.112-.129ZM46.114,44.966c.252.44.535.704,1.033.682.582-.025.48-.453.531-.875-.522.065-.993.123-1.564.194ZM60.176,61.272q.628.346,1.204-.963-.529-.292-1.491.638c.336-.128.673-.257,1.009-.385.015.027.031.054.046.08-.256.21-.512.42-.767.63ZM51.897,58.116c-.088.008-.177.016-.265.024.046.427.049.864.159,1.273.039.145.337.221.616.388v-1.289c-.046-.005-.092-.01-.138-.015l-.163.432c-.033-.005-.065-.01-.098-.015-.037-.266-.074-.532-.111-.799ZM57.033,93.136c.238-2.231.138-2.768-.393-2.792.134.954.273,1.937.393,2.792ZM57.386,94.109c-.52-.697-1.382-.388-2.042-.687.509.707,1.316.575,2.042.687ZM46.103,48.341c.448.412.739.219,1.049-.013.29-.217.538-.423.312-.859-.445.285-.874.56-1.361.872ZM44.355,34.315c-.055-.009-.11-.019-.164-.028.012.737-.807,1.332-.403,2.137.075.013.149.025.224.038.115-.716.229-1.431.344-2.147ZM49.428,56.457c-.09.071-.18.141-.27.212.138.298.276.596.414.894.199-.143.399-.287.598-.43-.247-.225-.495-.45-.742-.676ZM48.813,61.094c-.555-.218-1.111-.437-1.609-.632.149.832.688,1.083,1.609.632ZM59.039,59.913c.044.061.089.122.133.183.378-.126.755-.253,1.133-.379-.001-.071-.002-.141-.004-.212-.205-.038-.444-.16-.608-.094-.246.099-.439.329-.655.503ZM53.476,60.438c-.033-.417-.059-.753-.096-1.229-.098.249-.146.371-.194.492-.036-.002-.072-.005-.107-.007-.032-.235-.064-.471-.103-.754-.349.627-.205,1.076.501,1.498ZM58.221,57.587c-.071.026-.142.052-.214.078v.818c.275-.108.551-.217.994-.391-.376-.243-.578-.374-.781-.505ZM47.985,59.944c.019.073.038.147.057.22.36.105.72.21,1.081.315.042-.082.083-.165.125-.247-.234-.144-.453-.337-.707-.414-.157-.048-.368.078-.555.126ZM58.211,57.1c.25.175.411.288.573.401.209-.323.419-.647.628-.97-.038-.023-.077-.046-.115-.069-.308.181-.617.362-1.086.638ZM60.58,60.145c-.042-.097-.084-.193-.126-.29-.398.173-.796.346-1.194.519.049.108.098.217.147.325.391-.185.782-.369,1.173-.554ZM57.954,56.962c-.906.62-.951.757-.404,1.226.129-.39.243-.736.404-1.226ZM61.886,45.902c-.033-.111-.066-.221-.099-.332-.302.086-.605.173-.907.259.045.127.121.366.129.363.296-.083.586-.188.877-.29ZM51.35,57.598c-.273-.245-.475-.426-.676-.607-.046.026-.091.051-.137.077.043.307.086.615.147,1.047.288-.224.44-.342.666-.517ZM59.902,59.114c-.295-.145-.523-.324-.588-.277-.207.15-.353.383-.522.584l.143.131c.254-.115.507-.23.967-.438ZM58.568,59.12c.231-.196.431-.333.58-.513.039-.047-.063-.316-.13-.329-.307-.058-.606.421-.45.842ZM47.661,59.645c.049.044.099.088.148.132.277-.358.554-.716.831-1.074-.708-.008-.638.643-.979.942ZM49.461,59.469c.095-.063.19-.126.285-.189-.105-.164-.18-.37-.327-.474-.081-.058-.283.054-.431.089.158.191.315.383.473.574ZM56.83,58.284c-.047-.008-.095-.016-.142-.023-.127.183-.275.355-.375.552-.096.189-.143.403-.211.606.092.029.183.057.275.086.151-.407.303-.813.454-1.22Z"/>
    <path class="cls-1" d="M52.281,85.371c-.184-.266-.369-.532-.553-.797-.059.016-.118.032-.177.048-.031.286-.075.571-.091.857-.019.338-.14.52-.519.516-.362-.004-.659-.056-.716-.476-.027-.2-.037-.408-.016-.609.085-.804.148-1.614.307-2.404.041-.205.403-.488.617-.487.499.001,1.001.137,1.496.247.846.188,1.286.917.832,1.64-.491.783-.038,1.258.389,1.834.052-.825.139-1.65.148-2.476.01-.906-.021-.914.858-.983.383-.03.771-.045,1.153-.019.38.026.673.222.666.646-.008.457-.388.454-.709.492-.213.026-.429.027-.644.039-.015.052-.03.104-.045.157.116.062.228.171.348.179.99.067.99.061.864,1.057-.353.035-.716.07-1.08.106.485.367,1.621-.116,1.224,1.23-.383.027-.8.081-1.217.08-.742,0-1.484-.017-2.225-.058-.515-.029-.889-.262-.93-.84.26.145.519.29.779.436.036-.05.073-.101.109-.151-.213-.45-.426-.9-.645-1.361.187-.132.346-.223.48-.342.363-.323.216-1.368-.22-1.467-.472-.108-.958-.177-1.441-.208-.146-.009-.411.138-.438.256-.169.729-.308,1.467-.41,2.209-.044.318-.147.728.324.842.029.007.176-.483.272-.74.07-.188.148-.373.222-.56.244.105.555.152.713.333.168.192.19.512.275.776ZM56.451,85.746c-.426-.776-1.137-.253-1.56-.614.01-.168.022-.361.033-.532.462-.075.869-.142,1.275-.208-.011-.075-.021-.15-.032-.225-.431-.059-.862-.118-1.29-.177-.027-.332-.05-.607-.074-.893.499-.045.945-.086,1.391-.126.014-.095.029-.191.043-.286-.24-.08-.475-.188-.722-.229-.166-.027-.354.084-.521.06-.654-.093-.79-.005-.816.663-.025.646.027,1.299-.04,1.94-.047.455.112.692.522.705.54.018,1.082-.042,1.791-.077Z"/>
    <path class="cls-1" d="M68.015,80.315c.201-.091.414-.161.599-.276.406-.253.749-.196.985.209.243.418-.101.566-.391.73-.177.1-.342.222-.512.334.028.048.056.097.084.145.261-.129.525-.254.783-.389.372-.194.653-.133.858.255.206.389-.03.557-.324.698-.584.279-1.165.566-1.761.816-.135.056-.431.033-.477-.051-.562-1.025-1.092-2.069-1.636-3.119.677-.388,1.241-.702,1.796-1.032.452-.268.571.129.738.374.187.274.175.52-.2.669-.239.095-.451.255-.676.385.044.084.088.169.132.253ZM68.428,79.307c-.59-.33-.939-.209-1.853.553.385.792.759,1.6,1.177,2.385.081.151.399.342.494.293.589-.301,1.146-.665,1.713-1.008-.041-.076-.083-.151-.124-.227-.256.112-.525.204-.767.341-.655.373-.798.312-.951-.483.366-.189.741-.382,1.12-.578-.101-.428-.328-.506-.667-.292-.12.076-.232.166-.34.258-.324.275-.552.111-.763-.156-.256-.324-.068-.521.202-.682.221-.131.454-.243.759-.404Z"/>
    <path class="cls-1" d="M42.877,81.215c.318.054.567.172.407.558-.15.361-.405.571-.816.388-.213-.095-.409-.227-.613-.342-.03.048-.059.095-.089.143.22.128.438.261.66.384.327.182.4.412.207.751-.183.321-.389.356-.698.18-.526-.299-1.088-.542-1.589-.878-.144-.096-.246-.487-.168-.645.475-.961,1.007-1.893,1.527-2.847.549.255,1.063.493,1.577.731.837.387.876.579.258,1.269-.368-.118-.738-.236-1.107-.354-.03.043-.059.086-.089.129.092.135.184.27.276.405-.081-.006-.18.016-.24-.023-.207-.133-.447-.256-.576-.449-.051-.076.126-.431.259-.473.203-.064.46.018.688.064.236.048.466.128.699.194-.229-.934-1.08-.793-1.621-1.198-.47.795-.922,1.517-1.329,2.263-.206.377-.098.72.325.898.412.173.826.342,1.252.472.093.028.238-.117.463-.239-.457-.204-.776-.329-1.077-.487-.233-.123-.483-.261-.273-.609.198-.328.425-.333.701-.112.095.076.188.166.297.211.175.073.363.115.546.17.047-.185.095-.371.142-.556Z"/>
    <path class="cls-1" d="M67.703,83.044c-.75.784-.921.8-1.77.269-.213-.133-.454-.223-.795-.388.066.325.102.511.141.697.037.175.078.35.114.512-1.007.582-1.116.518-1.436-.532-.218-.715-.518-1.407-.807-2.098-.155-.37-.058-.562.315-.679.443-.14.868-.344,1.317-.461,1.001-.262,1.649.352,1.572,1.395-.016.215.153.508.329.659.284.245.644.403,1.02.626ZM63.392,81.244c.301.89.581,1.752.895,2.602.046.124.252.189.384.281.056-.171.178-.352.155-.512-.041-.281-.17-.549-.256-.805.904-.497,1.488.735,2.39.284-.148-.136-.234-.279-.349-.309-.747-.193-.829-.682-.749-1.364.1-.856-.465-1.208-1.266-.837-.419.194-.813.443-1.203.66Z"/>
    <path class="cls-1" d="M49.298,81.834c-.444-.049-.889-.133-1.332-.13-.176.001-.461.159-.507.305-.244.772-.444,1.56-.618,2.352-.028.125.15.296.233.445.118-.127.316-.24.341-.383.159-.913.185-.941,1.095-.775.441.081.84.069,1.107-.393.281-.485.287-.915-.137-1.314.564.187.832.561.709,1.161-.119.578-.683,1.075-1.241,1.033-.577-.044-1.001.031-1.164.698-.105.431-.495.558-.878.387-.348-.155-.54-.425-.388-.885.286-.865.524-1.748.745-2.633.085-.34.26-.452.561-.363.497.148.985.327,1.476.493Z"/>
    <path class="cls-1" d="M39.929,77.77c.344.316.765.583,1.007.964.19.3.205.711-.295.957-.21.103-.349.478-.403.752-.193.983-.643,1.332-1.558.967-.57-.227-1.092-.629-1.555-1.044-.14-.125-.116-.622.018-.83.527-.816,1.127-1.583,1.752-2.441.373.246.714.472,1.056.698-.291-.118-.581-.237-.889-.362-.356.464-.687.9-1.024,1.332q-.974,1.246.317,2.124c.034.023.064.051.099.072.61.367,1.308-.003,1.398-.709.025-.2.159-.411.298-.568.741-.841.741-.923-.094-1.716-.054-.052-.084-.13-.125-.195Z"/>
    <path class="cls-1" d="M61.164,81.614c-.339,1.174-.678,2.349-1.017,3.523.049.044.098.089.147.133.154-.065.402-.092.446-.202.289-.716,1.01-.64,1.554-.862.14-.058.437.099.576.241.279.287.438.215.609-.125-.629-.821-1.265-1.652-1.901-2.482,1.261.546,1.597,1.917,2.604,2.762-.519.252-.927.482-1.484.14-.54-.331-1.157-.086-1.526.433-.134.189-.315.387-.52.473-.344.145-.625.038-.57-.407.064-.521.146-1.041.262-1.552.139-.612.315-1.217.494-1.819.037-.123.163-.219.248-.327.026.023.052.047.078.07Z"/>
    <path class="cls-1" d="M57.075,82.358c.627-.106,1.202-.215,1.78-.298.537-.077,1.027-.006,1.264.578.19.467-.046,1.211-.491,1.519-.299.207-.734.312-.9.588-.166.274-.073.705-.092,1.056-1.132.27-1.237.205-1.353-.921-.085-.826-.138-1.655-.208-2.523ZM57.258,82.56c.102.952.19,1.817.289,2.682.046.403.289.424.615.297,0-.101.008-.182-.001-.261-.118-1.021-.115-1.006.92-1.251.536-.127.725-.556.717-1.063-.008-.529-.362-.795-.837-.756-.538.044-1.066.214-1.702.352Z"/>
    <path class="cls-1" d="M69.661,77.79c-.332.288-.182.592.004.862.468.68.959,1.345,1.452,2.031,1.204-.144,2.165-1.678,1.444-2.721-.389-.562-.944-.825-1.738-.672-.235.045-.462.134-.693.204,1.002-.817,2.131-.74,2.756.188.368.546.293,1.855-.145,2.356-.2.229-.403.462-.635.656-.709.594-.964.546-1.46-.218-.497-.765-1.004-1.524-1.554-2.359.212-.122.391-.224.569-.327Z"/>
    <path class="cls-1" d="M61.61,82.981c.146.205.292.41.493.693-.314.127-.569.23-.996.403.119-.485.197-.801.274-1.116.076.007.153.014.229.021Z"/>
    <path class="cls-1" d="M37.022,45.636c-.423.08-.847.234-1.268.223-.695-.017-1.097.277-1.332.905-.131.351-.321.68-.572,1.199-.256-.578-.465-.984-.615-1.41-.143-.407-.379-.557-.815-.56-.517-.004-1.033-.111-1.718-.193.464-.414.799-.748,1.171-1.035.4-.309.449-.673.329-1.13-.122-.464-.194-.942-.288-1.414.045-.049.089-.097.134-.146.472.272.986.493,1.402.834.32.263.505.192.787.002.498-.336,1.021-.634,1.533-.948.053.031.106.063.158.094-.096.563-.15,1.138-.303,1.684-.106.379.033.562.298.762.385.29.751.604,1.125.908-.01.075-.019.149-.029.223ZM36.194,45.428c-.716-.198-1.346-.372-2.089-.577.519.89,1.166,1.057,2.089.577ZM34.37,44.392c.958-.035,1.353-.666,1.044-1.607-.354.545-.682,1.05-1.044,1.607ZM34.088,44.371c.41-.598.746-1.087,1.126-1.641-1.079.264-1.306.574-1.126,1.641ZM31.711,45.378c.599-.182,1.198-.365,1.887-.575-.882-.49-1.122-.422-1.887.575ZM32.6,42.811c.392.559.731,1.043,1.155,1.646.142-1.145.012-1.317-1.155-1.646ZM36.385,45.315c-.767-1.019-.951-1.071-1.752-.519.571.169,1.099.326,1.752.519ZM33.445,44.343c-.357-.497-.665-.925-1.073-1.493.088,1.413.107,1.438,1.073,1.493ZM33.49,45.039c-.602.187-1.07.332-1.613.5.888.459,1.287.351,1.613-.5ZM33.766,46.936v-1.543c-.617.482-.488.93,0,1.543ZM34.016,45.361v1.44c.594-.813.592-.968,0-1.44Z"/>
    <path class="cls-1" d="M72.946,44.292c-.059-.493-.108-.988-.18-1.479-.035-.234-.113-.462-.211-.848.622.268,1.118.517,1.639.688.202.066.496.017.689-.088.547-.298,1.064-.651,1.771-1.095-.123.743-.154,1.32-.325,1.852-.183.567.038.871.459,1.168.276.195.514.444.895.781-.621.15-1.111.228-1.568.395-.229.084-.46.295-.582.509-.249.437-.425.915-.684,1.492-.272-.437-.511-.772-.697-1.134-.282-.547-.694-.815-1.319-.777-.451.027-.905.005-1.357.005-.014-.076-.027-.153-.041-.229.51-.42,1.02-.84,1.53-1.26-.157.243-.313.485-.548.848.641-.217,1.163-.393,1.808-.611-.344-.17-.556-.274-.768-.378h.694c-.13-.264-.233-.472-.335-.68.184.146.369.291.554.437.35-.745.04-1.135-1.033-1.294.169.295.335.586.5.876-.234-.202-.467-.404-.701-.606-.057.029-.114.058-.171.087.172.396.344.793.518,1.19-.177.052-.357.102-.536.152ZM75.759,42.954c-.211.388-.421.775-.662,1.219.953-.195,1.208-.595,1.083-1.581-.152.131-.298.258-.444.385.116-.247.232-.493.352-.749-1.255.296-1.645.822-1.289,1.813.174-.205.325-.388.481-.565.156-.177.319-.348.479-.522ZM74.825,46.97c.8-1.052.738-1.66-.106-1.982.033.619.066,1.23.106,1.982ZM74.199,44.724c-.692.241-1.26.439-1.939.676,1.251.376,1.561.274,1.939-.676ZM75.153,44.661c.355.92.727,1.011,1.761.449-.623-.159-1.159-.295-1.761-.449ZM74.509,46.627v-1.545c-.699.594-.699.608,0,1.545ZM76.949,44.949c-.747-.847-.863-.874-1.603-.442.507.14.98.27,1.603.442Z"/>
    <path class="cls-1" d="M53.652,57.996c-1.295-.765-2.208-1.897-2.993-3.145-.086-.136-.071-.347-.071-.524-.005-1.524-.003-3.047-.003-4.777-.271.189-.553.292-.556.402-.032,1.195-.02,2.392-.02,3.676-.609-1.338-.982-2.659-1.026-4.126h10.694c.221.839-.372,3.353-.982,4.209v-3.979h-.862c0,.257,0,.513,0,.77,0,1.16-.13,2.339.033,3.476.204,1.421-.546,2.232-1.485,3.016.183-.365.514-.725.524-1.094.054-1.907.019-3.816.031-5.724.003-.44-.136-.609-.615-.391,0,1.173-.008,2.367.002,3.562.01,1.215.038,2.431.058,3.646-.611.453-1.193.957-1.851,1.324-.18.1-.589-.211-.893-.333.064-.075.183-.149.183-.225.014-2.564.015-5.128.02-7.693,0-.459-.262-.4-.576-.325-.009.194-.023.354-.023.514-.001,2.219-.019,4.438.018,6.656.006.363.256.723.393,1.084ZM51.535,49.712c0,2.013-.027,3.958.027,5.902.009.313.381.616.586.924.036-.029.071-.058.107-.087v-6.739h-.72ZM54.775,57.891c.093.023.186.046.279.069.106-.259.302-.518.305-.778.024-2.335.016-4.67.013-7.005,0-.156-.033-.312-.049-.463-.568.003-.579.003-.578.456.002.812.026,1.624.029,2.436.005,1.762.001,3.524.001,5.285Z"/>
    <path class="cls-1" d="M54.391,44.204c1.621,1.457,3.486,1.943,5.561,1.89v2.673h-11.172c0-.805-.019-1.594.02-2.379.006-.126.263-.32.423-.343.662-.094,1.337-.101,1.998-.203,1.211-.186,2.304-.641,3.171-1.638Z"/>
    <path class="cls-1" d="M66.676,38.138c2.333-.575,4.667-1.15,7-1.725-2.239.962-4.613,1.371-7,1.725Z"/>
    <path class="cls-1" d="M41.947,38.489c-2.649-.247-5.099-1.001-7.498-2.069,2.502.69,4.972,1.372,7.498,2.069Z"/>
    <path class="cls-1" d="M60.196,53.944c.126-.465.252-.931.378-1.396.079.022.158.044.236.066-.151.452-.301.904-.452,1.356-.054-.009-.108-.017-.162-.026Z"/>
    <path class="cls-1" d="M72.463,78.918c-.342.383-.55.752-.863.901-.131.062-.499-.328-.729-.544-.111-.105-.171-.277-.223-.43-.083-.243-.268-.646-.186-.716.317-.27.743-.521,1.153-.195.293.233.501.572.847.984ZM71.527,79.535c.101-.009.201-.018.302-.027.079-.319.24-.648.202-.952-.019-.153-.389-.307-.625-.366-.106-.027-.402.226-.386.267.141.37.331.721.507,1.078Z"/>
    <path class="cls-1" d="M49.241,83.05c-.378,0-.766.047-1.124-.036-.081-.019-.055-.494-.078-.759.077-.035.153-.07.23-.105.355.211.71.422,1.064.634-.031.089-.061.178-.092.267Z"/>
    <path class="cls-1" d="M51.67,82.591c.383.317.742.47.822.714.121.371-.257.373-.518.358-.28-.016-.679.093-.65-.394.01-.173.166-.338.346-.679Z"/>
    <path class="cls-1" d="M64.003,81.253c.419-.033.751-.082,1.08-.065.069.004.206.344.175.372-.251.218-.535.398-.853.621-.145-.336-.238-.55-.401-.928Z"/>
    <path class="cls-1" d="M39.281,78.181c.239.351,1.102.27.682,1.05-.167.31-.387.253-.635.035-.552-.487-.567-.543-.047-1.085Z"/>
    <path class="cls-1" d="M38.605,79.297c.224.318.451.633.659.962.007.011-.223.238-.285.214-.308-.118-.633-.247-.871-.462-.07-.063.127-.421.201-.644l.296-.071Z"/>
    <path class="cls-1" d="M58.131,82.767c.354.048.711.083,1.057.167.034.008.043.446-.019.47-.286.11-.61.213-.901.174-.123-.017-.197-.392-.293-.604.052-.069.104-.138.156-.206Z"/>
  </g>
</svg>