<?xml version="1.0" encoding="UTF-8"?>
<svg id="Insignias" xmlns="http://www.w3.org/2000/svg" viewBox="0 0 108 108">
  <defs>
    <style>
      .cls-1 {
        fill: #231f20;
      }
    </style>
  </defs>
  <g id="Second_Class_Insignia" data-name="Second Class Insignia">
    <path class="cls-1" d="M3.616,3.333c.685.749,1.332,1.485,2.01,2.192,3.303,3.448,7.179,6.166,11.164,8.744,1.398.904,2.793,1.773,4.395,2.337,1.189.419,2.225,1.254,3.371,1.82.853.421,1.773.707,2.663,1.051.145.056.325.068.433.164,1.672,1.493,3.373,2.957,4.981,4.517.678.658,1.219,1.484,1.709,2.301.889,1.481.702,3.084-.45,4.373-.379.424-.823.794-1.258,1.164-.665.565-1.222,1.16-1.599,2.001-.354.79-1.077,1.407-1.571,2.145-.295.441-.522.949-.671,1.459-.143.49.111.829.589,1.089,3.801,2.065,7.809,3.577,12.015,4.57,5.655,1.335,11.375,1.743,17.168,1.27,6.355-.519,12.426-2.074,18.172-4.855.699-.338,1.389-.701,2.065-1.084,1.248-.708,1.53-1.678.836-2.922-1.113-1.992-2.579-3.693-4.537-4.868-1.045-.627-1.522-1.496-1.467-2.584.047-.93.231-1.936.656-2.75,1.774-3.394,4.608-5.772,7.851-7.671,2.506-1.467,5.082-2.814,7.629-4.21,3.032-1.661,5.832-3.614,8.097-6.271.532-.624,1.168-1.161,1.764-1.73,1.696-1.618,3.298-3.307,4.122-5.587.064.009.128.017.192.026.363,1.463.762,2.918,1.082,4.391.522,2.402.763,4.836.564,7.294-.07.861-.247,1.716-.409,2.568-.775,4.062-2.209,7.91-3.882,11.672-.216.486-.635.885-.973,1.314-.17.215-.363.413-.558.606-1.045,1.036-1.336,2.183-.968,3.674.722,2.924,2.192,5.459,3.736,7.977.155.253.338.494.462.762.344.739.817,1.189,1.703,1.339,1.291.218,1.825,1.245,1.538,2.59-.192.902-.612,1.681-1.331,2.263-2.344,1.896-4.64,3.859-7.065,5.646-4.891,3.605-10.3,6.289-15.904,8.582-2.43.994-4.843,2.112-7.37,2.764-3.441.887-6.978,1.407-10.483,2.034-1.46.261-2.943.395-4.379.582.24.936.53,1.839.687,2.764.097.574.105,1.213-.051,1.766-.2.709-.044,1.391-.095,2.078-.099,1.317-.282,2.629-.474,3.937-.143.972-.018,1.879.543,2.685.232.333.191.568-.027.852-.348.453-.712.897-1.019,1.378-.316.495-.629,1.007-.836,1.552-.255.669-.112,1.283.46,1.798.881.793,1.301,1.753.844,2.991-.156.031-.347.07-.652.131.249.964.483,1.888.726,2.81.623,2.36,1.336,4.7,1.851,7.083.491,2.276.287,4.548-.591,6.737-.253.63-.565,1.197-1.174,1.544-.966.55-1.879,1.27-2.916,1.606-2.169.703-3.696-.501-4.929-2.104-1.794-2.331-2.269-4.989-1.766-7.855.462-2.631.834-5.28,1.389-7.891.596-2.807,1.359-5.579,2.051-8.365.043-.174.101-.345.157-.532-.301-.204-.594-.379-.861-.587-.879-.687-1.042-1.483-.564-2.481.1-.209.105-.468.138-.705.041-.292-.03-.652.117-.867.437-.64.225-1.244-.049-1.808-.528-1.086-1.137-2.132-1.693-3.205-.152-.294-.24-.622-.346-.938-.106-.315-.199-.635-.297-.953-.084.008-.169.017-.253.025.327-.995.655-1.989,1-3.04-1.287-.139-2.577-.267-3.864-.419-15.409-1.814-29.52-6.847-41.639-16.81-.936-.77-1.909-1.521-2.711-2.417-.489-.546-.801-1.324-.981-2.051-.202-.813.24-1.43,1.118-1.82.602-.268,1.242-.456,1.872-.656.638-.202.977-.602,1.228-1.247.403-1.036.943-2.026,1.494-2.996.868-1.528,1.905-2.966,2.259-4.743.222-1.115.013-2.137-.557-3.096-1.577-2.653-3.255-5.252-4.72-7.965-2.009-3.722-3.127-7.711-2.847-11.99.112-1.709.337-3.412.561-5.11.104-.785.564-1.386,1.327-1.836ZM53.986,61.888c5.702-.181,9.763-.666,13.779-1.502,9.629-2.004,18.52-5.76,26.65-11.306,2.561-1.747,5.026-3.598,6.896-6.125.25-.338.321-.574.052-.954-.421-.595-.813-1.226-1.12-1.886-1.234-2.652-2.427-5.323-3.644-7.982-.35-.764-.673-.812-1.266-.228-5.623,5.538-12.07,9.771-19.348,12.89-6.587,2.823-13.379,4.261-20.5,4.342-3.829.043-7.63-.289-11.404-.934-5.889-1.005-11.555-2.726-16.928-5.355-4.343-2.125-8.332-4.766-11.767-8.201-.75-.75-1.565-1.403-2.698-1.504-.5-.045-.783.059-.984.578-.411,1.065-.891,2.105-1.384,3.136-1.076,2.248-2.169,4.488-3.276,6.722-.206.416-.171.673.2.983,1.175.983,2.282,2.051,3.477,3.009,5.063,4.055,10.698,7.104,16.769,9.341,9.063,3.338,18.348,5.46,26.495,4.977ZM103.499,4.927c-.081-.048-.162-.096-.243-.144-.087.133-.154.287-.265.395-1.329,1.29-2.607,2.64-4.008,3.845-3.676,3.162-7.848,5.614-11.957,8.149-3.1,1.913-6.184,3.839-8.788,6.432-1.137,1.132-2.104,2.358-2.457,3.962-.052.234-.031.574.105.745.592.741,1.355,1.311,2.34,1.208,1.056-.11,2.114-.326,3.135-.618,1.272-.364,2.48-1.076,3.765-1.232,1.671-.203,3.187-.736,4.73-1.313.619-.232,1.348-.333,2.005-.27,1.605.155,2.38,1.822,1.49,3.079-1.345,1.897-2.936,3.567-4.721,5.055-3.043,2.537-6.498,4.417-9.94,6.334-5.869,3.267-12.159,5.113-18.821,5.697-5.105.447-10.192.225-15.254-.633-7.796-1.321-15.095-3.926-21.826-8.125-2.819-1.758-5.165-3.977-7.191-6.572-.237-.304-.432-.649-.597-.999-.528-1.118-.313-2.421.526-2.82.827-.393,1.723-.706,2.652-.371,1.716.618,3.442,1.221,5.117,1.939,2.346,1.005,4.683,1.886,7.309,1.863,1.326-.012,2.033-.526,2.446-1.71.284-.815-.013-1.51-.399-2.143-.943-1.545-2.187-2.856-3.766-3.728-2.802-1.546-5.662-2.99-8.517-4.439-3.575-1.814-7.152-3.626-10.219-6.254-1.511-1.294-2.905-2.724-4.394-4.045-.655-.582-1.415-1.046-2.233-1.64-1.017,8.392,2,15.308,6.76,21.749.492-1.112.786-2.09-.009-3.148-.486-.646-.773-1.45-1.107-2.201-1.515-3.413-2.802-6.902-3.399-10.607-.063-.394.046-.817.085-1.365.272.203.377.281.481.36,1.866,1.433,3.624,3.045,5.624,4.258,3.261,1.979,6.714,3.638,10.02,5.547,2.293,1.324,4.49,2.817,6.699,4.28.8.53,1.352,1.291,1.471,2.298.055.463-.065.782-.6.738-.954-.079-1.962-.011-2.846-.306-1.814-.605-3.581-1.365-5.331-2.142-2.098-.931-4.225-1.641-6.561-1.363-1.368.163-3.041,2.205-2.788,3.545.256,1.354.763,2.682,1.812,3.628,4.373,3.943,9.158,7.299,14.454,9.9,6.753,3.316,13.886,5.196,21.392,5.67.603.038,1.259-.044,1.788.176.379.157.706.349,1.134.336,1.509-.046,3.02-.047,4.528-.119,4.571-.219,9.018-1.114,13.36-2.538,6.644-2.18,12.678-5.542,18.391-9.523.131-.091.254-.194.371-.302,1.09-1.006,2.188-2.004,3.264-3.025.927-.879,1.945-1.694,2.715-2.697,1.371-1.784,1.348-3.628.181-5.296-.345-.493-.768-.712-1.377-.733-2.07-.07-4.042.366-5.972,1.061-1.999.72-3.994,1.453-6.004,2.144-.805.276-1.628.279-2.353-.27-.418-.316-.534-.67-.063-1.066.894-.749,1.715-1.603,2.675-2.253,3.826-2.591,7.705-5.103,11.541-7.679,2.251-1.511,4.692-2.77,6.564-4.803.046-.05.097-.122.154-.132.282-.047.569-.106.847-.082.047.004.11.399.083.602-.138,1.018-.208,2.059-.48,3.042-.723,2.612-1.258,5.3-2.776,7.629-.247.379-.428.812-.574,1.243-.396,1.161-.103,2.167.839,2.833,4.3-6.411,5.819-13.445,4.982-21.036ZM55.829,64.269c1.804-.16,4.799-.334,7.769-.709,5.314-.672,10.513-1.873,15.583-3.635,9.301-3.234,17.517-8.238,24.673-14.993.349-.329,1.051-.643.544-1.254-.55-.663-1.007-.047-1.428.306-6.839,5.726-14.105,10.711-22.487,14.019-7.175,2.831-14.535,4.612-22.221,5.009-7.329.378-14.572-.313-21.709-2.047-8.086-1.965-15.682-5.089-22.694-9.598-2.972-1.911-5.762-4.056-8.357-6.454-.392-.362-.768-.481-1.188-.067-.452.445-.1.706.217.991,5.282,4.741,11.126,8.633,17.565,11.624,10.32,4.794,21.212,6.858,33.733,6.807ZM7.839,14.172c.028.325.03.46.053.592.528,3.098,1.635,5.984,3.219,8.69.393.671.903.85,1.637.579.401-.148.752-.428,1.148-.594.385-.162.799-.359,1.201-.36,1.635-.004,3.246.257,4.753.893,2.041.86,4.037,1.826,6.061,2.726.588.261,1.205.456,1.809.681.051-.06.103-.121.154-.181-.13-.233-.209-.526-.399-.688-.678-.578-1.346-1.19-2.104-1.648-2.365-1.429-4.735-2.856-7.165-4.169-3.555-1.921-7.167-3.737-10.367-6.521ZM29.296,32.24c-.412-.18-.618-.279-.831-.362-3.171-1.238-6.335-2.498-9.524-3.688-.573-.213-1.255-.16-1.888-.174-.44-.01-.612.276-.635.718-.055,1.059.303,1.963,1.09,2.63,1.62,1.374,3.264,2.722,4.948,4.017,1.098.845,2.334,1.457,3.774,1.434.248-.004.586-.135.722-.323.495-.684.957-1.398,1.364-2.138.367-.666.645-1.381.98-2.115ZM99.692,13.224c-.22.166-.306.234-.395.299-1.863,1.361-3.666,2.814-5.602,4.06-2.882,1.855-5.868,3.549-8.787,5.347-.862.531-1.649,1.187-2.47,1.785.244.102.419.078.589.038,3.016-.713,5.855-2.043,8.961-2.479,1.157-.162,2.258-.176,3.394.002.227.035.596-.087.718-.262.728-1.05,1.48-2.096,2.078-3.221.896-1.686,1.359-3.519,1.514-5.57ZM91.496,27.589c-.3.023-.532.009-.746.064-1.39.356-2.809.636-4.156,1.114-2.28.809-4.483,1.855-6.975,1.873-.47.003-.712.448-.478.891.683,1.292,1.425,2.545,2.676,3.398.954.649,1.936.679,2.885.062,1.074-.698,2.185-1.345,3.212-2.107.93-.69,1.835-1.44,2.63-2.279.74-.782,1.021-1.809.954-3.016ZM56.051,80.873c-.601-.045-.612-.048-.755.54-.887,3.661-1.785,7.32-2.647,10.988-.692,2.947-1.214,5.917-.786,8.963.253,1.8.806,3.46,2.225,4.728.63.563,1.317.786,2.14.671,1.549-.218,3.718-2.162,3.86-3.712.154-1.673.286-3.403.026-5.044-.362-2.287-1.043-4.531-1.688-6.764-.776-2.69-1.459-5.383-1.325-8.213.024-.506.083-1.011.126-1.516-.777,1.932-.915,3.941-.467,5.92.584,2.578,1.388,5.105,2.047,7.667.475,1.846,1.199,3.682.737,5.639-.286,1.212-.61,2.431-1.092,3.572-.196.465-.806.92-1.314,1.058-1.874.509-3.64-.685-4.159-2.702-.474-1.842-.271-3.691.062-5.515.788-4.311,1.648-8.609,2.463-12.915.211-1.114.365-2.239.546-3.366ZM55.942,88.281c-.059.133-.131.261-.174.398-1.323,4.176-1.739,8.49-1.809,12.836-.02,1.222.662,2.256,1.765,2.927.484.294.837.238,1.231-.206,1.634-1.843,1.884-3.98,1.448-6.293-.615-3.262-2.188-6.283-2.461-9.662ZM55.186,72.239c-.006-.069-.012-.139-.018-.208-.083-.021-.164-.05-.248-.061-1.517-.191-2.212-.938-2.26-2.442-.009-.274-.01-.549-.001-.823.031-.945.307-1.78,1.233-2.198,1.023-.462,2.76-.233,3.344.499.371.465.545,1.085.817,1.63.179.36.375.712.563,1.067l.191-.081c-.024-.284-.018-.575-.079-.851-.111-.5-.126-1.11-.429-1.457-.45-.515-1.078-.916-1.697-1.235-2.234-1.151-5.232.927-4.903,3.314.209,1.519,1.219,2.776,2.748,2.937.241.025.493-.059.74-.093ZM53.827,69.737c.548-.133,1.04-.268,1.54-.37.536-.109,1.105-.113,1.608-.302.452-.17.503-.755.202-1.174-.451-.629-1.861-1.081-2.397-.767-.766.448-1.259,1.812-.953,2.613ZM54.329,70.279c1.277.769,1.781,1.962,1.926,3.323.104.974.108,1.958.158,2.937.012.227.032.454.048.681.075.012.15.023.225.035.08-.186.193-.365.235-.559.345-1.607.37-3.227-.036-4.815-.138-.54-.506-1.068-.892-1.487-.428-.464-1.015-.579-1.663-.115ZM58.763,80.826c-.142-1.09-.688-1.495-1.969-1.704-.953-.156-1.897-.375-2.874-.571-.299.744-.092,1.183.839,1.281.91.097,1.797.187,2.632.626.383.202.854.236,1.373.369ZM57.824,77.238c.074.004.148.007.222.011.14-.794.248-1.595.428-2.38.32-1.388.147-2.715-.391-4.011-.225-.542-.573-.933-1.061-.95.31,1.135.619,2.238.911,3.347.097.37.228.758.204,1.128-.063.954-.203,1.904-.313,2.855ZM54.091,77.281c.508,1,3.238,2,5.074,1.748-.423-.826-1.199-.996-1.99-1.147-1.042-.199-2.082-.406-3.084-.602ZM55.512,75.536c.339-2.19.23-2.528-.744-2.392-.228.903.176,1.617.744,2.392Z"/>
    <path class="cls-1" d="M29.017,46.068c-.324.651-.615,1.237-.944,1.899-1.317-.64-2.597-1.263-3.937-1.914-.162.33-.297.607-.46.94,1.193.595,2.349,1.173,3.584,1.789-.304.634-.596,1.242-.914,1.905-1.216-.589-2.396-1.161-3.625-1.756-.224.448-.415.83-.647,1.293,1.36.679,2.696,1.346,4.095,2.045-.315.638-.612,1.24-.941,1.907-2.093-1.034-4.13-2.041-6.229-3.078,1.333-2.701,2.632-5.335,3.957-8.019,2.033,1.003,4.012,1.98,6.058,2.99ZM23.826,45.149c1.342.652,2.622,1.274,3.934,1.912.133-.281.226-.478.333-.704-1.625-.798-3.21-1.576-4.834-2.372-1.142,2.317-2.236,4.539-3.354,6.807,1.701.843,3.33,1.651,5.013,2.485.123-.259.223-.472.337-.711-1.392-.693-2.713-1.352-4.084-2.035.43-.868.828-1.672,1.24-2.503,1.242.602,2.405,1.167,3.611,1.752.124-.252.221-.447.34-.691-1.212-.607-2.382-1.194-3.592-1.8.366-.742.686-1.393,1.054-2.141Z"/>
    <path class="cls-1" d="M82.602,45.774c.197.348.351.623.515.913,1.173-.63,2.316-1.245,3.529-1.897.34.618.665,1.208,1.022,1.856-1.183.65-2.319,1.274-3.527,1.937.215.407.423.799.678,1.279,1.345-.721,2.658-1.426,4.048-2.171.341.633.659,1.221,1.008,1.868-2.06,1.12-4.055,2.206-6.103,3.32-1.427-2.627-2.829-5.207-4.271-7.861,1.999-1.088,3.932-2.141,5.925-3.225.347.632.661,1.204,1.023,1.863-1.283.707-2.531,1.394-3.847,2.119ZM81.689,45.506c1.306-.719,2.557-1.408,3.838-2.113-.145-.257-.252-.445-.386-.681-1.594.87-3.146,1.718-4.732,2.583,1.235,2.265,2.431,4.458,3.638,6.672,1.69-.921,3.289-1.793,4.921-2.682-.153-.259-.264-.448-.399-.676-1.339.725-2.636,1.426-4.008,2.169-.458-.845-.887-1.635-1.338-2.465,1.209-.662,2.362-1.293,3.54-1.937-.152-.25-.268-.44-.405-.665-1.173.632-2.313,1.246-3.514,1.892-.393-.712-.763-1.382-1.157-2.096Z"/>
    <path class="cls-1" d="M53.262,56.427v1.446h4.506v2.108h-6.869v-8.82h6.646v2.024h-4.28v1.079h3.883c.041.118.078.179.08.241.075,1.857.075,1.864-1.779,1.917-.706.02-1.412.003-2.189.003ZM52.579,52.554h4.322v-.741h-5.322v7.509h5.547v-.773h-4.521v-2.803h3.968c-.015-.303-.027-.52-.041-.808h-3.953v-2.384Z"/>
    <path class="cls-1" d="M82.604,53.489c-.694.301-1.309.599-1.95.823-.165.058-.512-.056-.604-.2-.342-.535-.645-1.102-.899-1.684-.238-.544-.566-.74-1.122-.494-.475.21-.951.418-1.486.653.22.525.42,1.003.621,1.481.202.479.404.958.627,1.484-.73.32-1.393.611-2.154.945-1.174-2.735-2.338-5.447-3.541-8.249,1.635-.672,3.174-1.444,4.797-1.937,2.159-.656,3.782,1.254,3.224,3.351.875,1.346,1.663,2.558,2.488,3.828ZM75.657,52.235c.488-.215.886-.389,1.282-.566,1.788-.8,2.312-.849,3.122,1.157.382.946.447.929,1.372.367-.785-1.083-.67-3.037-2.979-2.63.28-.263.397-.372.512-.482.652-.621.779-1.245.414-2.038-.377-.82-1.199-1.417-1.961-1.17-1.504.487-2.96,1.123-4.454,1.705,1.041,2.423,2.019,4.7,3.016,7.021.352-.149.617-.262.931-.395-.427-1.01-.832-1.967-1.255-2.969Z"/>
    <path class="cls-1" d="M48.964,55.669c1.015,1.354-.24,2.901.678,4.245-.081.036-.161.072-.242.108-.738-.089-1.479-.159-2.211-.287-.117-.02-.263-.3-.267-.463-.016-.661-.008-1.325.041-1.985.039-.53-.116-.829-.684-.872-.538-.041-1.073-.128-1.648-.199-.13,1.078-.253,2.091-.386,3.192-.742-.08-1.458-.157-2.329-.251.339-2.949.677-5.878,1.023-8.887,1.507.18,2.954.312,4.386.543.61.098,1.263.293,1.764.636,1.15.787,1.475,2.862-.126,4.219ZM47.483,55.527c.526-.291,1.129-.453,1.47-.844.992-1.136.251-2.909-1.295-3.169-1.08-.182-2.174-.287-3.263-.41-.284-.032-.575-.005-.881-.005-.29,2.496-.574,4.939-.866,7.45.356.043.66.079,1.01.122.137-1.092.266-2.122.4-3.192.483.056.887.116,1.294.148,2.194.174,2.432.452,2.208,2.606-.103.99-.03,1.058,1.006.895-.085-1.321.936-2.95-1.082-3.602Z"/>
    <path class="cls-1" d="M66.038,59.337c.161-2.262.311-4.404.466-6.546.059-.821.154-1.64.183-2.462.013-.371.158-.543.495-.602.023-.004.046-.006.067-.012q1.809-.536,2.899,1.009c1.341,1.909,2.677,3.821,4.012,5.734.102.146.179.31.306.533-.747.205-1.441.431-2.151.563-.179.033-.483-.185-.612-.37-.705-1.011-.674-.893-1.865-.72-1.404.204-1.491,1.059-1.297,2.169-.865.243-1.651.464-2.504.704ZM73.347,56.51c-.124-.19-.242-.381-.37-.565-1.281-1.838-2.577-3.666-3.837-5.518-.256-.376-.492-.482-.897-.303-.402.178-.952.072-.97.811-.034,1.347-.18,2.691-.27,4.037-.076,1.125-.139,2.251-.209,3.395,1.564-.054.883-1.287,1.244-2.037.736-.214,1.559-.404,2.343-.694.712-.263,1.14-.142,1.517.562.45.841.524.812,1.449.312Z"/>
    <path class="cls-1" d="M11.309,46.336c1.649-2.563,3.238-5.033,4.872-7.572,1.444.955,2.882,1.801,4.201,2.805,1.407,1.07,1.362,3.33-.578,4.18-.26.875-.343,1.673-.716,2.299-.731,1.229-2.204,1.604-3.471.907-1.437-.79-2.809-1.701-4.308-2.62ZM12.263,46.098c.904.585,1.753,1.158,2.628,1.69.484.294.991.58,1.525.758.761.254,1.64-.143,2.139-.862.532-.766.523-1.342-.028-2.135-.099-.143-.188-.294-.313-.491.18.015.292.02.403.035.949.13,1.436-.093,1.823-.838.37-.712.342-1.474-.32-1.991-1.177-.92-2.452-1.714-3.729-2.591-1.416,2.205-2.758,4.294-4.128,6.425Z"/>
    <path class="cls-1" d="M90.908,48.945c-1.627-2.528-3.208-4.985-4.878-7.58,1.482-.874,2.917-1.792,4.422-2.577.755-.394,1.612-.208,2.386.166,1.776.857,3.23,3.464,2.986,5.417-.116.924-.556,1.705-1.332,2.235-1.151.785-2.333,1.526-3.584,2.34ZM91.107,48.013c1.053-.684,2.05-1.286,2.996-1.96.727-.518,1.116-1.259,1.061-2.185-.106-1.76-.891-3.178-2.347-4.127-.502-.328-1.362-.567-1.856-.361-1.386.579-2.666,1.411-4.018,2.161,1.444,2.244,2.778,4.318,4.164,6.472Z"/>
    <path class="cls-1" d="M35.848,48.528c1.609.427,3.18.742,4.675,1.271,1.308.463,1.819,1.913,1.407,3.4-.401,1.452-1.559,2.326-2.992,2.18-.699-.071-1.384-.271-2.173-.432-.24.924-.482,1.858-.741,2.856-.787-.192-1.527-.373-2.309-.564.71-2.898,1.403-5.73,2.133-8.71ZM36.27,54.119c.858.201,1.673.414,2.498.58,1.157.233,2.196-.479,2.517-1.688.353-1.33-.137-2.359-1.347-2.735-.718-.223-1.455-.385-2.187-.562-1.414-.342-1.421-.34-1.77,1.074-.485,1.965-.961,3.932-1.456,5.961.367.09.682.167,1.019.249.139-.541.26-1.001.377-1.462.116-.461.228-.924.35-1.415Z"/>
    <path class="cls-1" d="M61.351,59.67c-.724.032-1.383.089-2.038.066-.139-.005-.375-.298-.386-.469-.126-1.942-.217-3.885-.319-5.829-.044-.839-.093-1.677-.145-2.607,1.668-.052,3.266-.189,4.856-.125,1.427.057,2.351,1.401,2.3,3.063-.048,1.567-1.12,2.712-2.636,2.812-.569.037-1.138.069-1.737.106,0,.521-.013.996.004,1.471.017.475.063.949.103,1.513ZM60.579,56.076c.811-.057,1.628-.101,2.442-.176,1.121-.104,1.89-.967,1.923-2.126.039-1.364-.588-2.348-1.713-2.401-1.334-.062-2.677.053-4.069.093.144,2.604.282,5.082.419,7.552h.999v-2.943Z"/>
    <path class="cls-1" d="M75.366,51.57c-.395-.919-.752-1.749-1.142-2.658.896-.375,1.735-.786,2.613-1.077.746-.247,1.378.119,1.669.82.32.769.135,1.402-.624,1.792-.787.405-1.618.726-2.517,1.123ZM75.717,50.687c.647-.287,1.209-.527,1.762-.785.393-.183.618-.455.43-.926-.202-.505-.577-.633-1.045-.456-.57.214-1.122.478-1.742.746.199.474.379.905.596,1.421Z"/>
    <path class="cls-1" d="M44.136,54.759c.109-.968.212-1.88.325-2.885,1.004.136,1.954.21,2.878.408.748.161,1.057.773.947,1.578-.096.704-.547,1.184-1.284,1.166-.924-.022-1.846-.167-2.866-.268ZM45.064,52.631c-.067.443-.151.777-.153,1.112,0,.153.141.422.252.441.58.1,1.171.165,1.759.185.421.014.66-.244.703-.678.046-.472-.168-.748-.621-.815-.626-.094-1.256-.159-1.939-.243Z"/>
    <path class="cls-1" d="M70.867,54.732c-.982.273-1.893.526-2.746.763,0-1.296-.005-2.56.009-3.824.001-.102.129-.286.199-.287.157,0,.388.04.462.15.696,1.037,1.365,2.092,2.077,3.197ZM69.809,54.341c-.341-.532-.628-.98-.915-1.428-.046.023-.092.047-.138.07-.029.522-.057,1.045-.09,1.639.413-.102.714-.176,1.143-.282Z"/>
    <path class="cls-1" d="M15.064,43.573c.815.53,1.578.985,2.295,1.504.692.501.829,1.215.432,1.852-.444.713-1.126.967-1.877.572-.818-.431-1.579-.968-2.414-1.489.532-.829,1.02-1.589,1.564-2.438ZM14.418,45.807c.644.397,1.208.776,1.803,1.099.402.218.745.052.991-.321.26-.394.088-.721-.221-.946-.543-.396-1.125-.739-1.723-1.125-.294.447-.54.822-.849,1.292Z"/>
    <path class="cls-1" d="M15.433,43.001c.481-.751.904-1.413,1.367-2.137.82.552,1.612,1.041,2.352,1.598.525.394.597.992.293,1.524-.3.523-.872.78-1.46.493-.852-.417-1.648-.947-2.552-1.477ZM16.37,42.777c.624.373,1.189.752,1.796,1.043.167.08.579-.038.664-.187.088-.154-.007-.553-.159-.677-.506-.413-1.073-.752-1.66-1.148-.225.34-.409.619-.641.969Z"/>
    <path class="cls-1" d="M91.55,46.818c-1.12-1.746-2.19-3.412-3.281-5.113.626-.406,1.187-.796,1.774-1.144.867-.514,1.63-.464,2.4.199.89.766,1.496,1.731,1.688,2.903.14.855-.123,1.581-.887,2.07-.535.343-1.07.685-1.695,1.085ZM91.757,45.887c.777-.579,1.824-.794,1.738-1.992-.076-1.053-1.186-2.724-1.998-2.935-.995-.258-1.537.563-2.316.926.891,1.383,1.715,2.662,2.577,4.001Z"/>
    <path class="cls-1" d="M37.183,50.364c.746.181,1.394.306,2.022.497.93.284,1.296.943,1.071,1.831-.237.935-.795,1.318-1.773,1.15-.667-.115-1.322-.3-2.057-.472.248-1.01.483-1.969.738-3.007ZM37.259,52.872c.483.114.918.22,1.354.319.546.125.876-.104,1.011-.635.136-.536-.065-.891-.592-1.042-.43-.123-.867-.219-1.355-.34-.146.592-.273,1.111-.418,1.698Z"/>
    <path class="cls-1" d="M60.441,55.289c-.06-1.113-.112-2.064-.17-3.129.856,0,1.674-.061,2.479.017.767.074,1.116.557,1.169,1.361.052.783-.31,1.405-1.053,1.542-.773.143-1.573.142-2.425.209ZM61.086,54.505c.539,0,.998.041,1.447-.011.508-.058.741-.407.722-.916-.018-.487-.272-.776-.757-.802-.491-.026-.984-.006-1.538-.006.049.676.087,1.192.126,1.735Z"/>
  </g>
</svg>