<?xml version="1.0" encoding="UTF-8"?>
<svg id="Insignias" xmlns="http://www.w3.org/2000/svg" viewBox="0 0 108 108">
  <defs>
    <style>
      .cls-1 {
        fill: #231f20;
      }
    </style>
  </defs>
  <g id="Life_Insignia" data-name="Life Insignia">
    <path class="cls-1" d="M53.597,10.855c1.92-1.327,3.743-2.674,5.65-3.889,4.662-2.971,9.633-5.254,15.083-6.353,5.462-1.101,10.804-.816,15.905,1.637,3.722,1.789,6.716,4.465,9.298,7.656,3.157,3.903,4.86,8.44,5.886,13.274,1.096,5.168,1.18,10.373.517,15.607-.892,7.046-3.104,13.681-6.118,20.078-4.301,9.131-9.89,17.41-16.499,25.02-7.083,8.155-15.04,15.339-23.884,21.538-1.149.805-2.326,1.571-3.471,2.382-.362.256-.639.25-1.027.035-4.839-2.678-9.339-5.853-13.657-9.292-8.79-7.001-16.484-15.051-23.02-24.197-4.996-6.991-9.174-14.445-12.359-22.43-1.117-2.801-2.201-5.645-2.941-8.561-1.188-4.683-1.519-9.484-1.208-14.322.263-4.092,1.064-8.054,2.7-11.826,2.457-5.668,6.431-9.958,11.837-12.922,2.825-1.549,5.797-2.765,8.969-3.353,4.864-.901,9.652-.456,14.337,1.124,5.264,1.776,9.767,4.773,13.769,8.576.086.082.174.162.234.218ZM53.486,12.405c-.033-.031-.151-.136-.264-.247-3.556-3.514-7.535-6.41-12.196-8.297-4.735-1.917-9.632-2.697-14.706-1.886-4.401.703-8.418,2.435-12.054,4.982C7.878,11.433,4.579,17.789,3.349,25.343c-.622,3.821-.649,7.66-.263,11.509.353,3.518,1.009,6.959,2.218,10.299,3.877,10.713,9.295,20.577,16.219,29.614,5.831,7.611,12.499,14.41,19.965,20.426,4.222,3.402,8.638,6.522,13.336,9.237.412.238.703.261,1.115-.039,2.638-1.927,5.355-3.75,7.942-5.741,7.012-5.399,13.362-11.5,19.123-18.224,7.067-8.247,12.892-17.267,17.167-27.267,2.607-6.099,4.339-12.43,4.867-19.059.353-4.441.101-8.852-.891-13.205-.855-3.753-2.093-7.363-4.303-10.557-2.224-3.215-4.909-5.983-8.28-8.016-5.167-3.116-10.747-3.728-16.58-2.628-5.143.97-9.864,3.038-14.28,5.784-2.444,1.52-4.762,3.244-7.216,4.93Z"/>
    <path class="cls-1" d="M53.403,86.095c-2.575-.517-5.132-.904-7.618-1.558-4.561-1.2-8.64-3.377-12.167-6.537-.216-.194-.416-.439-.537-.701-.37-.797-.107-1.461.734-1.7.559-.158.846-.434,1.058-.975.261-.665.691-1.262,1.038-1.894.435-.79.407-1.517-.122-2.302-1.142-1.694-2.224-3.424-2.782-5.432-.466-1.679-.26-3.344.006-5.004.059-.371.467-.686.679-.978,1.438,1.281,2.775,2.472,4.113,3.664.045-.043.091-.086.136-.129-.206-.524-.413-1.047-.632-1.605-.115.072-.258.162-.434.272.008-.096.004-.151.017-.201.292-1.119.468-2.287.907-3.345.625-1.509,1.761-2.55,3.431-2.909.723-.155,1.057.014,1.235.722.286,1.14,1.196,1.97,2.34,2.136.789.115,1.175-.542,1.709-.814-.491-.286-1.017-.484-1.401-.837-1.152-1.059-.923-2.783.461-3.534.463-.251.534-.572.469-1.016-.136-.924-.191-1.868-.427-2.764-.13-.493-.497-.968-.868-1.343-1.205-1.221-2.652-1.871-4.399-1.495-1.218.262-2.001,1.076-2.367,2.241-.589,1.871-.705,3.76.032,5.679-1.025-.029-1.828-.495-2.6-.972-1.673-1.034-3.308-2.136-4.606-3.642-2.417-2.805-3.518-6.053-2.979-9.737.363-2.481,1.884-4.28,3.855-5.734,2.471-1.823,5.194-2.097,8.108-1.395,1.392.335,2.591,1.033,3.774,1.785.162.103.321.208.499.324.22-1.072.4-2.089.639-3.092.648-2.713,1.895-5.169,3.312-7.546,1.447-2.427,2.927-4.834,4.342-7.279.479-.827.767-1.762,1.22-2.606.139-.26.516-.456.821-.533.13-.033.462.283.524.492.813,2.751,2.316,5.128,3.915,7.469,2.419,3.543,4.161,7.39,4.985,11.623.046.235.07.475.109.712.038.234.082.467.136.771.491-.335.938-.659,1.403-.956,2.276-1.455,4.792-2.128,7.447-1.782,2.155.28,4.022,1.299,5.327,3.161,1.439,2.052,2.226,4.309,2.047,6.822-.218,3.069-1.41,5.736-3.816,7.692-1.483,1.207-3.157,2.182-4.762,3.234-.305.2-.692.276-1.171.459.023-.48-.001-.853.065-1.21.259-1.4.102-2.76-.38-4.08-.633-1.733-2.346-2.509-4.289-1.959-1.63.461-2.785,1.551-3.459,3.038-.359.791-.305,1.761-.513,2.633-.136.571.045.858.498,1.206,1.317,1.013,1.104,2.858-.373,3.686-.185.104-.376.197-.575.3,1.09,1.255,2.747,1.296,3.892.132.783-.796,1.087-1.797,1.195-2.972,1.875.635,3.278,1.722,4.04,3.524.759,1.795.601,3.576-.226,5.354,2.168-1.57,4.162-3.257,5.384-5.892.153.544.273.963.387,1.384.115.425.227.85.332,1.277.64,2.584.098,5.049-.797,7.464-.38,1.025-.721,2.081-1.55,2.886-.167.163-.206.554-.166.819.224,1.495,1.117,2.681,1.886,3.92.062.1.217.159.342.202.918.318,1.225,1.002.799,1.891-.135.282-.341.549-.571.762-3.622,3.351-7.877,5.641-12.527,7.159-1.828.597-3.796.764-5.701,1.127-.076.014-.15.034-.079.018-.098,1.446-.197,2.826-.28,4.206-.014.235-.048.545.077.697.442.534.136.907-.183,1.305-.1.125-.19.258-.283.389-.24.335-.215.601.049.964.235.322.434.819.363,1.183-.122.623-.019,1.161.167,1.732.421,1.295.874,2.599.753,3.987-.155,1.778-.542,2.366-2.051,2.986-.673.277-1.368.217-1.975-.292-1.236-1.037-1.693-2.397-1.446-3.93.353-2.188.832-4.357,1.268-6.531.061-.304.067-.513-.169-.798-.217-.263-.356-.757-.266-1.075.248-.88.146-1.643-.394-2.366-.48-.644-.816-1.318-.384-2.034ZM60.269,57.687c-.214.192-.428.385-.642.577.01.028.02.056.029.084.335-.127.67-.253,1.005-.38.037.04.074.081.111.121-.143.092-.288.182-.429.277-.137.091-.27.187-.421.292.691.335.85.199,1.249-1.136-.358.071-.641.128-.924.184-.02-.111-.053-.321-.06-.32-.418.053-.877.042-1.02.686.367-.128.734-.257,1.101-.385ZM64.941,65.887c-1.894.011-3.531-.692-4.975-1.969-.199.468-.362.853-.527,1.238-.994,2.316-2.333,4.378-4.347,5.951-.467.365-.865.389-1.403.044-2.053-1.314-3.391-3.201-4.447-5.334-.243-.492-.476-.989-.7-1.455-.686.416-1.29.852-1.952,1.165-.647.306-1.353.487-2.093.743.314.26.611.467.86.722.544.556,1.122,1.093,1.578,1.717.545.745.452,1.593-.11,2.276-.566.688-1.131,1.377-1.698,2.064-.519.628-.518.674.196,1.021,4.348,2.114,8.912,2.614,13.642,1.78,2.123-.374,4.142-1.074,6.034-2.117.652-.36.749-.582.282-1.154-.513-.628-1.157-1.146-1.716-1.738-.249-.263-.597-.582-.61-.888-.026-.592.008-1.272.281-1.771.445-.812,1.103-1.508,1.703-2.294ZM74.959,75.67c-.732-1.549-1.382-2.921-2.027-4.296-.316-.674-.352-.687-.895-.145-3.015,3.01-6.61,5.056-10.661,6.283-3.825,1.159-7.718,1.081-11.596.292-4.131-.841-7.909-2.445-11.01-5.414-.25-.24-.593-.418-.924-.523-.147-.047-.477.108-.55.256-.64,1.314-1.232,2.651-1.86,3.97-.139.292-.099.473.143.668.577.465,1.11.992,1.716,1.414,6.383,4.447,13.448,6.26,21.169,5.281,5.054-.641,9.676-2.484,13.806-5.481.979-.71,1.845-1.577,2.688-2.307ZM48.916,59.478c-.045.008-.09.016-.134.023-.331.638-.632,1.293-.999,1.909-.958,1.611-2.417,2.423-4.264,2.282-1.559-.119-2.716-.987-3.389-2.439-.539-1.164-.461-3.246.689-3.91.462.841.951,1.685,1.916,2.039.92.338,1.864.484,2.902.128-.177-.321-.387-.739-.644-.77-1.62-.2-2.758-1.014-3.417-2.49-.195-.436-.449-.423-.807-.254-1.543.727-2.278,2.047-2.355,3.643-.108,2.232,1.147,3.786,2.97,4.874,1.733,1.034,3.532.766,5.19-.172.882-.499,1.596-1.297,2.427-1.996.142.37.295.777.454,1.182.87,2.214,1.854,4.347,3.775,5.899,1.074.868,1.231.89,2.222-.091,1.422-1.407,2.392-3.098,3.135-4.935.318-.787.644-1.571,1.006-2.452,2.059,2.577,4.553,3.682,7.606,2.253,2.063-.966,2.944-2.854,2.819-5.093-.095-1.703-1.024-2.973-2.569-3.847-.122.271-.238.48-.313.702-.613,1.815-2.426,2.742-3.819,2.71-.623-.014-.816.187-.818.733,1.742.785,3.464.054,5.375-2.319.057.094.102.184.161.263.914,1.236.931,3.162.035,4.462-.943,1.368-2.671,1.865-4.279,1.47-2.023-.496-3.332-1.826-3.966-3.814-.054-.168-.137-.327-.213-.506-.695.478-.369,1.038-.226,1.612-.296-.064-.503-.109-.687-.149-.305.858-.567,1.716-.911,2.54-.726,1.742-1.523,3.45-2.905,4.798-.627.612-.631.608-1.281-.022-1.443-1.4-2.413-3.076-2.968-5.005-.225-.783-.494-1.554-.74-2.322-.34.044-.616.079-.801.103-.069-.407-.123-.724-.176-1.041ZM57.918,35.307c-.459.344-.781.584-1.086.813.249.384.485.748.743,1.146-.215.118-.365.199-.36.197.027.682.054,1.257.072,1.832.008.26-.077.553.017.772.149.344.354.776.651.908.254.113.693-.1,1.011-.252.2-.095.34-.333.484-.524.603-.796,1.207-1.592,1.787-2.406.104-.145.124-.371.132-.561.081-2.061-.261-4.077-.813-6.044-1.06-3.78-2.91-7.184-5.15-10.387-.205-.293-.391-.599-.562-.862,0,1.949-.032,3.89.008,5.83.056,2.763.181,5.525.234,8.288.012.601.216.885.799.953.608.071,1.212.175,2.033.296ZM75.573,59.578c-1.98,2.28-4.386,3.727-6.742,5.25-1.241.802-2.43,1.695-3.575,2.63-.461.377-.803.942-1.088,1.48-.28.528-.104.825.457,1.074.632.28,1.215.019,1.806-.167,1.272-.402,2.534-.842,3.825-1.173.34-.087.874.051,1.127.29.329.309.152.76-.128,1.138-1.018,1.379-2.33,2.416-3.757,3.332-3.216,2.064-6.65,3.512-10.513,3.759-3.664.234-7.24-.214-10.687-1.502-2.739-1.023-5.355-2.259-7.236-4.637-.365-.462-.717-.974-.354-1.517.35-.525.974-.477,1.533-.317.422.121.833.284,1.242.448.501.201.978.488,1.496.619.768.194,1.56.371,2.346.392.765.021,1.142-.696.826-1.404-.112-.25-.29-.477-.465-.693-.877-1.087-2.136-1.607-3.345-2.175-2.768-1.301-5.476-2.676-7.603-4.958-.241-.259-.583-.423-.914-.656-.636,2.483,1.223,8.02,2.904,8.925.277-.443.111-.823-.077-1.276-.65-1.567-1.23-3.163-1.809-4.758-.099-.272-.066-.591-.093-.889.051-.019.102-.038.154-.057,1.789,1.701,4.013,2.684,6.143,3.829,1.091.587,2.135,1.263,3.184,1.925.433.273.759.652.739,1.251-.144.022-.287.085-.41.057-.81-.187-1.623-.369-2.421-.601-1.012-.294-1.992-.723-3.019-.926-.959-.19-1.925.758-1.687,1.598.157.552.453,1.152.868,1.531,4.639,4.24,10.224,6.2,16.409,6.466,1.753.075,3.565-.224,5.286-.623,4.528-1.051,8.423-3.32,11.764-6.547.492-.475.813-1.034.893-1.725.088-.761-.438-1.427-1.185-1.362-.71.062-1.426.196-2.109.4-.918.274-1.803.657-2.709.971-.402.139-.782.083-1.125-.346,2.709-2.705,6.287-4.132,9.17-6.56.04.396.045.74-.028,1.067-.295,1.328-.611,2.645-1.31,3.843-.396.679-.282,1.158.257,1.517,1.749-2.681,2.359-5.603,1.96-8.922ZM49.618,36.654c-.569-.301-.824-.665-.642-1.226.186-.572.664-.968,1.191-.917.803.077,1.535.16,2.329-.309.481-.284.681-.499.693-.999.021-.86.042-1.72.09-2.579.199-3.521.409-7.042.611-10.563.008-.142-.026-.285-.049-.514-.12.137-.181.189-.22.254-1.173,1.959-2.357,3.913-3.514,5.882-2.113,3.599-3.294,7.457-3.137,11.667.012.317.103.691.293.931.62.785,1.289,1.533,1.965,2.27.415.452,1.327.56,1.831.202.27-.192.434-.527.682-.76.792-.747.813-1.4.01-2.143-.499-.462-1.042-.876-1.539-1.339-.29-.271-.471-.249-.595.143ZM46.301,37.704c.055-1.042.058-1.945.159-2.837.417-3.703,1.73-7.086,3.653-10.263,1.243-2.054,2.402-4.158,3.588-6.247.169-.298.273-.633.415-.968.519.986.961,1.922,1.489,2.807.84,1.411,1.789,2.758,2.601,4.184,2.01,3.533,3.409,7.277,3.699,11.373.037.525.005,1.055.005,1.722.884-.492,1.608-.914,2.35-1.301.581-.302,1.164-.625,1.783-.826,2.32-.752,4.655-1.456,6.982-2.184.186-.058.358-.159.537-.24-.029-.07-.059-.14-.088-.21-4.041-.64-7.313.959-10.251,3.795-.07-.4-.123-.662-.161-.926-.186-1.286-.258-2.601-.571-3.855-.934-3.75-2.623-7.169-4.788-10.361-1.282-1.89-2.563-3.783-3.346-5.955-.021-.06-.103-.097-.195-.18-.354.696-.654,1.369-1.025,2.001-1.623,2.765-3.296,5.5-4.894,8.279-1.518,2.641-2.636,5.436-2.945,8.503-.083.826-.17,1.652-.268,2.599-1.495-1.244-2.905-2.474-4.692-3.089-1.789-.616-3.612-.849-5.627-.331.249.119.349.185.459.217,1.69.488,3.373,1.009,5.076,1.445,1.642.421,3.21.966,4.583,2.001.423.319.922.536,1.47.846ZM33.462,33.789c-.083.029-.162.042-.228.08-3.586,2.089-5.071,5.189-4.283,9.135.828,4.147,3.436,6.958,7.092,8.89.095.05.219.047.396.082.017-.213.029-.384.045-.555.09-.993.101-2.001.286-2.976.472-2.496,2.595-4.175,5.282-3.712.401.069.797.17,1.195.257-.478-.478-.982-.874-1.531-1.195-.276-.161-.637-.276-.951-.257-2.642.161-4.95,1.741-5.187,4.821-.03.389-.095.776-.154,1.248-.238-.124-.423-.191-.576-.303-2.063-1.513-3.57-3.448-4.317-5.91-.435-1.432-.381-2.874.208-4.28.595-1.421,1.527-2.568,2.707-3.547.227-.188.374-.589.38-.895.006-.284-.225-.573-.362-.882ZM73.082,48.489c.098-.052.191-.085.266-.142,2.291-1.752,4.025-3.838,4.198-6.888.148-2.602-.909-4.597-3.061-6.214-.098.813-.949,1.141-.9,1.968.011.182-.16.435-.322.557-.47.356-.668.882-.985,1.329-.505.711-1.217,1.299-1.84,1.941-.567.585-1.292,1.016-1.943,1.519-.017.013.003.074.007.112,2.497.623,4.426,2.895,4.58,5.818ZM35.02,48.809c.224-3.516,2.256-5.199,5.472-5.819-.414-.346-.855-.585-1.25-.883-.326-.245-.554-.654-.906-.823-.532-.255-.944-.571-1.215-1.097-.072-.139-.254-.236-.403-.32-.95-.536-1.25-1.619-1.981-2.338-.013-.012-.02-.039-.017-.057.119-.768-.46-1.107-.979-1.603-.361.338-.721.646-1.047.986-1.258,1.31-2.066,2.889-1.987,4.691.135,3.071,1.816,5.336,4.314,7.262ZM72.556,49.468c0-.512.013-.87-.002-1.226-.107-2.501-1.967-4.709-4.311-5.099-.217-.036-.482-.001-.676.097-.368.187-.712.428-1.044.676-.224.168-.409.389-.696.668.481,0,.796.009,1.111-.002,1.123-.036,2.138.248,3.013.978.841.702,1.285,1.642,1.5,2.673.202.967.279,1.959.42,3.001.195-.086.425-.151.614-.278.897-.599,1.8-1.193,2.671-1.83,2.054-1.504,3.336-3.517,3.901-6,.661-2.905-.025-5.517-1.718-7.896-.617-.867-1.444-1.519-2.413-1.976-.087.329-.091.641-.24.851-.334.47-.172.703.241,1.016,2.54,1.925,3.467,4.529,2.836,7.592-.615,2.985-2.647,4.99-5.205,6.754ZM54.234,41.391c-1.605,1.1-3.395,1.936-5.538,1.652-.386-.051-.55.115-.531.512.074,1.538.009,3.095.224,4.612.503,3.547,2.246,6.337,5.43,8.116.216.121.609.162.804.046,2.404-1.43,4.146-3.428,5.047-6.103.728-2.162.668-4.412.699-6.65.006-.413-.252-.333-.524-.356-.909-.075-1.864-.043-2.708-.329-1-.34-1.903-.967-2.903-1.499ZM63.325,38.297c.687-.349,1.415-.581,1.96-1.034.609-.507,1.262-.72,2.001-.835.969-.151,1.962-.236,2.894-.517,1.33-.401,2.625-.929,3.914-1.456.446-.182.573-.663.367-1.076-.21-.418-.614-.221-.957-.109-2.053.669-4.09,1.397-6.168,1.976-1.332.371-2.559.899-3.708,1.647-.268.174-.543.354-.841.462-1.239.447-2.079,1.316-2.696,2.445-.115.21-.258.406-.399.6-.834,1.139-1.047,1.205-2.37.731-.197.435-.48.427-.763.085-.296-.357-.503-.2-.708.082-.102.14-.196.286-.338.493.429.24.832.466,1.236.692.004-.077.008-.154.012-.231.137-.057.277-.107.41-.172.153-.074.3-.162.523-.283.055.095.152.26.273.467-.327.049-.549.082-.771.115-.01.076-.019.151-.029.227.499.114.999.227,1.459.332.129-.455.228-.802.334-1.177.114.127.252.28.31.344-.089.287-.144.462-.198.638.251.034.577.183.737.079.313-.206.532-.553.819-.873-.224-.153-.355-.243-.506-.346,1.214-.709,1.296-.821.922-1.217.889-.406,1.059-.66.709-1.063,1.284-.277,1.76-.642,1.573-1.025ZM55.157,84.73c.693-.055,1.974-.123,3.246-.264,4.206-.467,8.175-1.688,11.863-3.79,2.049-1.168,3.904-2.592,5.61-4.212.134-.127.145-.384.214-.58-.191.043-.411.04-.565.14-.284.183-.531.426-.792.645-7.543,6.329-16.127,8.806-25.859,6.925-5.23-1.011-9.939-3.154-13.978-6.68-.09-.079-.177-.194-.281-.215-.116-.024-.294,0-.363.077-.057.064-.031.255.024.353.065.116.199.194.305.285,5.753,4.922,12.46,7.229,20.576,7.318ZM52.967,41.131c-.286-.547-.722-.52-1.187-.254-1.205.691-2.247.548-3.167-.463-.269-.296-.496-.63-.767-.924-.402-.437-.771-.936-1.253-1.262-.892-.603-1.854-1.105-2.792-1.639-.485-.276-.955-.619-1.478-.781-1.674-.52-3.372-.964-5.057-1.451-.863-.249-1.711-.557-2.582-.773-.235-.058-.53.123-.798.194.091.26.135.553.287.769.114.161.362.237.561.326,2,.893,4.095,1.45,6.252,1.814.571.096,1.195.262,1.645.597.668.497,1.381.782,2.169.952.186.04.371.085.641.148-.239.078-.386.125-.532.173-.007.062-.014.124-.021.185.601.208,1.202.416,1.833.635-.161.046-.3.085-.642.182.554.43.982.762,1.509,1.171-.272-.04-.411-.061-.551-.081-.027.055-.053.109-.08.164.527.33,1.055.66,1.642,1.027-.273.056-.508.105-.835.173.574.52,1.133.86,1.832.686.242-.061.422-.369.662-.594-.377-.163-.617-.268-.858-.372.011-.023.021-.045.032-.068.387.062.774.124,1.178.189-.124.238-.238.454-.368.702,1.235.008,1.864-.311,1.878-.944-.209-.015-.421-.03-.633-.046,0-.032.001-.064.002-.095h1.031c-.039.155-.088.348-.136.541.039.031.078.062.117.093.503-.361,1.005-.722,1.508-1.083-.035-.065-.071-.13-.106-.195-.303.099-.606.198-.935.305ZM57.077,35.633c-1.217-.414-2.354-.815-3.5-1.186-.729-.236-1.301.006-1.505.478.141.141.322.258.304.318-.038.133-.175.239-.282.369-.54-.726-.943-.879-1.943-.803-.776.059-1.114.724-.744,1.427.308-.279.578-.683.942-.806.309-.104.757.057,1.087.218.219.107.337.42.5.641-.272.043-.547.126-.816.113-.144-.007-.273-.194-.423-.272-.159-.083-.334-.133-.502-.198-.02.049-.04.098-.059.147.629.52,1.27,1.026,1.884,1.562.741.648.819,1.419.262,2.205-.11.155-.21.318-.315.477.026.046.052.093.078.139.312-.097.624-.194.969-.302.032.103.096.311.175.57.28-.202.495-.357.735-.53.106.209.184.363.316.623.304-.198.596-.388.912-.594.135.261.275.53.456.878.21-.279.36-.478.511-.678.278.209.539.404.862.647.104-.608.224-1.108-.398-1.443-.681,1.12-.725-.224-1.261-.302-.086.166-.207.397-.328.629-.083.007-.167.014-.25.021-.139-.265-.279-.529-.422-.802-.299.281-.469.441-.662.623-.15-.183-.273-.334-.398-.486-.186.08-.351.151-.677.291.292-.366.471-.592.706-.886-.554-.598-1.083-1.17-1.6-1.729.878,0,1.12.782,1.52,1.389.275-.197.513-.366.758-.541.168.189.308.348.461.52.234-.168.44-.315.688-.493.16.225.301.425.501.706.47-1.034.92-.363,1.378.046l.137-.169c-.209-.447-.418-.894-.627-1.343h.653c-.108-.234-.187-.405-.288-.624-.836.466-1.603.464-2.307-.16-.015-.013-.031-.029-.05-.033-.233-.053-.466-.104-.699-.155l-.028.139c.077.027.154.054.296.104-1.046.291-1.282.115-1.408-1.109.46.138.883.214,1.259.391.431.204.792.591,1.235.724.375.113.825-.023,1.277-.051-.099-.182-.202-.37-.274-.502.282-.061.584-.127.906-.197ZM40.696,58.19c-.913,1.839.039,4.086,1.977,4.847,1.765.693,4.389-.538,4.931-2.34-.141-.088-.372-.148-.425-.279-.29-.717-.758-.431-1.271-.325-1.556.319-3.079.309-4.342-.86-.317-.293-.56-.666-.87-1.042ZM67.745,58.083c-.705,1.019-1.669,1.679-2.823,2.015-1.179.343-2.322-.019-3.429-.392-.139.282-.283.483-.334.705-.05.219-.092.515.014.681,1.16,1.829,3.67,2.424,5.559,1.346,1.391-.794,1.943-3.03,1.013-4.355ZM54.269,67.677c1.609-1.446,2.454-3.307,3.122-5.309-.304.083-.513.254-.717.432-.147.128-.265.329-.434.385-.622.209-1.254.482-1.892.51-.391.017-.792-.516-1.202-.537-.488-.025-.949.067-1.306-.36-.039-.046-.064-.117-.112-.139-.163-.073-.334-.13-.651-.248.603,2.146,1.563,3.863,3.193,5.266ZM35.592,63.887c.216,1.515.701,2.775,1.435,3.926.106.166.643.264.808.149.723-.509,1.474-.369,2.181-.13,1.074.362,2.107.847,3.161,1.271.256.103.525.173.788.258.03-.067.06-.134.091-.201-2.477-2.23-5.86-3.014-8.464-5.272ZM44.74,71.424c-1.503-.573-2.855-1.122-4.233-1.593-.368-.125-.817-.011-1.229-.007.134.416.261.834.408,1.245.031.085.129.152.208.213.63.495,1.237,1.024,1.902,1.467.407.271.895.432,1.364.589.149.05.444-.016.52-.13.363-.543.674-1.122,1.059-1.784ZM74.014,63.365c-2.389,1.541-4.747,3.063-7.106,4.584.032.06.064.121.096.181.471-.146.944-.286,1.412-.44,1.232-.407,2.457-.844,3.794-.684.129.015.324-.066.403-.169.794-1.033,1.32-2.178,1.4-3.472ZM70.606,69.137c-.781.234-1.511.457-2.244.67-.84.244-1.678.501-2.528.708-.346.084-.465.199-.294.523.093.177.185.355.291.525.501.805,1.268,1.222,1.825.88.849-.522,1.664-1.109,2.438-1.737.4-.325.624-.82.512-1.569ZM56.026,91.682c-.077-.018-.153-.036-.23-.054-.056.154-.13.304-.166.462-.403,1.772-.826,3.541-1.191,5.321-.251,1.225-.329,2.467.103,3.677.243.682.616,1.293,1.408,1.403.613.085,1.476-.598,1.771-1.339.087-.219.155-.469.143-.7-.041-.796-.067-1.599-.201-2.383-.117-.684-.377-1.344-.564-2.017-.181-.654-.399-1.304-.508-1.971-.108-.661-.1-1.342-.143-2.014-.15.64-.278,1.309-.16,1.93.227,1.192.559,2.369.912,3.532.338,1.114.535,2.219.155,3.35-.166.496-.373.993-1.024,1.028-.586.032-1.138-.29-1.385-.861-.108-.251-.222-.547-.189-.805.198-1.581.43-3.158.665-4.733.191-1.277.403-2.55.605-3.825ZM61.168,54.762c-.45-1.55-.263-3.021.043-4.502.135-.651.153-1.338.132-2.006-.012-.374-.173-.776-.694-.879-.209,2.441-1.001,4.637-2.512,6.564,1.158-.311,1.529-1.244,1.887-2.21-.029.334-.098.655-.176.974-.292,1.188.142,1.917,1.321,2.059ZM55.973,94.853c-.02.031-.066.075-.081.127-.517,1.74-.704,3.526-.662,5.332.007.323.223.685.439.949.367.447.662.397.999-.074.63-.881.581-1.844.316-2.818-.319-1.172-.67-2.335-1.011-3.516ZM47.732,47.749c-.252.135-.479.204-.634.349-.512.479-.468,1.091-.39,1.726.136,1.101.307,2.208.306,3.312,0,.598-.329,1.196-.518,1.823.657.032,1.021-.348,1.347-.793.607-.829.472-1.731.261-2.641-.109-.468-.212-.937-.349-1.543.26.147.357.202.48.271-.168-.834-.324-1.612-.503-2.504ZM54.282,20.082c-.046-.003-.092-.005-.138-.008,0,.338.012.676-.002,1.013-.167,4.102-.326,8.205-.519,12.306-.031.656.222.91.906.929-.082-4.757-.165-9.499-.247-14.24ZM54.072,58.529c-.098-.009-.197-.018-.295-.027-.074.686-.189,1.371-.212,2.059-.026.756-.022,1.522.083,2.267.034.244.425.438.652.655.201-.242.555-.471.575-.727.084-1.033.088-2.075.071-3.113-.007-.401-.148-.8-.228-1.2-.061-.013-.123-.025-.184-.038-.076.169-.196.333-.219.509-.04.315-.025.638-.025.958-.002,1.012,0,2.025,0,3.037-.073,0-.145.002-.218.003v-4.383ZM68.03,37.923c.164.09.264.19.366.194,1.232.041,2.47.141,3.696.069.747-.044,1.248-.794,1.199-1.376-1.247.108-2.491.267-3.74.305-.653.02-1.088.268-1.522.809ZM55.737,57.576c-.061.016-.123.032-.184.048.339,1.463.566,2.93.267,4.418-.115-1.387-.009-2.8-.596-4.145-.127.139-.216.293-.207.44.018.317.113.63.126.947.043,1.053.053,2.107.101,3.16.009.19.108.51.217.534.22.047.568.013.694-.134.202-.236.357-.584.375-.894.078-1.351-.157-2.668-.574-3.951-.048-.149-.144-.282-.218-.423ZM70.796,40.06c-.612-.059-1.193-.073-1.756-.18-.585-.112-1.16-.29-1.725-.484-.629-.216-.959-.125-1.376.499,1.091.71,2.275,1.145,3.572,1.201.731.032,1.119-.324,1.285-1.035ZM72.292,38.53c-.282,0-.415.003-.547,0-1.054-.026-2.125.051-3.154-.119-.662-.109-1.096.051-1.669.508,1.396.572,2.691,1.095,4.148.747.546-.131.909-.514,1.222-1.135ZM40.165,38.256c.008-.064.016-.128.024-.192-.359-.219-.712-.616-1.076-.626-1.341-.037-2.657-.177-3.95-.534-.028-.008-.069.03-.102.045-.035.704.291,1.182.935,1.294.528.092,1.067.182,1.6.175.857-.011,1.714-.104,2.57-.162ZM52.615,62.303c-.06-.002-.119-.004-.179-.007-.022-.425-.124-.864-.051-1.272.144-.803.388-1.588.581-2.383.05-.205.062-.419.092-.629-.052-.015-.103-.029-.155-.044-.091.118-.218.223-.268.357-.198.521-.433,1.039-.54,1.581-.138.701-.203,1.422-.229,2.136-.018.491.508.934.945.873.547-.076.45-.485.457-.871.017-.897.07-1.794.11-2.69.015-.341.035-.682.053-1.024-.648,1.255-.892,2.579-.817,3.97ZM34.249,35.002c-.242.553-.148,1.03.354,1.299,1.352.724,2.812.929,4.382.731-.158-.251-.344-.481-.582-.567-.693-.248-1.415-.414-2.111-.657-.691-.241-1.364-.536-2.043-.807ZM51.282,61.596c-.056.003-.112.006-.168.009,0-.216-.037-.44.006-.647.218-1.029.431-2.062.704-3.077.101-.376.072-.556-.354-.629-.676,1.172-.979,2.416-.861,3.747.048.541.259,1.027.901,1.2.084-.668.108-1.289.25-1.881.18-.75.467-1.473.685-2.214.054-.183.019-.392.026-.589-.128.128-.321.234-.373.388-.242.715-.479,1.435-.65,2.169-.115.495-.116,1.016-.167,1.525ZM41.326,39.18c-.435-.395-.802-.659-1.361-.596-.692.079-1.392.103-2.089.126-.589.02-1.18.004-1.804.004.066.662.524.846,1.021.953.289.062.594.072.892.069,1.113-.012,2.209-.135,3.342-.556ZM74.152,34.956c-1.703.555-3.381,1.102-5.058,1.648.134.195.274.301.402.288,1.19-.117,2.389-.196,3.564-.407.688-.124,1.124-.891,1.093-1.53ZM46.739,53.178c-.84.033-1.346.51-1.386,1.146-.037.588.375,1.177.978,1.24.791.083,1.592.083,2.39.094.337.005.453-.216.37-.529-.138-.523-.288-1.044-.463-1.671-.532,1.185-1.184,2.118-2.696,1.822.271-.705.521-1.357.807-2.102ZM37.495,40.108c.172.576.521.828,1.007.778,1.005-.104,2.008-.246,3.006-.406.294-.047.569-.208.963-.359-.503-.403-.84-.777-1.447-.529-.289.118-.617.154-.932.196-.843.113-1.688.21-2.596.321ZM69.539,41.568c-1.223-.44-2.247-.723-3.188-1.176-.621-.299-.981-.103-1.462.315,1.173.794,2.374,1.346,3.756,1.351.262.001.525-.279.894-.49ZM56.993,62.103c.692-.209.897-.438.882-1.09-.012-.517-.015-1.051-.147-1.544-.232-.865-.561-1.705-.849-2.556-.086.022-.171.044-.257.067.396,1.412.94,2.808.625,4.299-.104-1.375-.297-2.722-.893-3.973l-.154.031c.262,1.576.524,3.152.793,4.767ZM43.43,40.852c-.402-.414-.791-.492-1.29-.322-.619.211-1.263.354-1.903.498-.451.102-.913.157-1.389.236.154.51.451.685.882.653.318-.024.639-.037.953-.089.963-.159,1.878-.456,2.747-.977ZM68.007,42.446c-.979-.421-1.942-.794-2.866-1.248-.557-.274-.719-.271-1.037.337,1.005,1.211,3.295,1.756,3.902.912ZM59.523,54.443c-.069.099-.176.242-.273.391-.36.552-.246.815.405.823.554.007,1.114-.029,1.662-.109.593-.086.981-.596.974-1.174-.009-.7-.296-1.05-1.09-1.212.144.694.279,1.343.414,1.993-.053.044-.105.089-.158.133-.623-.273-1.247-.545-1.934-.845ZM44.419,41.74c-.266-.595-.57-.706-1.131-.482-.994.396-2.034.678-3.269,1.078.433.195.743.466,1.026.439,1.175-.11,2.296-.447,3.375-1.034ZM50.226,59.509c.337-.903.687-1.753.96-2.626.076-.242-.077-.555-.125-.835-.2.041-.455.017-.59.134-1.033.891-1.13,2.169-.245,3.328ZM45.332,42.499c-.311-.655-.682-.584-1.205-.35-.724.323-1.507.512-2.264.761-.156.051-.308.113-.461.17l-.028.213c.27.105.556.329.807.296,1.113-.148,2.172-.492,3.151-1.09ZM58.182,59.754c.752-2.063.37-3.289-1.293-3.739.444,1.285.857,2.478,1.293,3.739ZM63.659,41.893c-.508.382-.54.553.065.885.675.371,1.398.675,2.133.904.383.12.831.003,1.058-.381-1.102-.477-2.137-.925-3.256-1.409ZM44.611,45.319c.282.424.724.583,1.165.419.509-.189.957-.536,1.439-.8.51-.279.493-.682.351-1.126-.996.508-1.959.999-2.955,1.506ZM56.985,39.59c.162-.687-.32-.911-.628-1.145-.126-.096-.523.163-.842.277-.322-.43-.724-.466-1.125-.02-.495-.649-.51-.649-1.009-.024.114.201.234.412.37.651.21-.177.356-.3.523-.44.212.231.395.43.69.752.181-.252.338-.471.602-.839.189.326.348.599.538.925.222-.333.333-.499.449-.674.14.174.248.308.432.537ZM62.843,42.594c-.331.22-.371.557.033.79.7.404,1.427.777,2.179,1.071.324.127.756.048.799-.385-1.016-.498-1.97-.965-3.011-1.475ZM42.466,43.889c.258.386.604.606,1.093.4.733-.31,1.46-.637,2.175-.987.104-.051.126-.271.186-.413-.16-.065-.355-.226-.474-.181-.983.365-1.952.768-2.98,1.181ZM45.234,45.944l-.055.178c.399.543.791,1.091,1.206,1.621.061.077.256.12.355.084.859-.314,1.058-.734.774-1.729-.781.875-1.526.25-2.28-.154ZM47.044,43.804c-.447-.37-.716-.538-1.167-.253-.519.328-1.116.533-1.684.783-.218.096-.447.169-.671.252,0,.072,0,.144,0,.216.306.076.667.295.91.202.864-.329,1.688-.765,2.613-1.2ZM68.714,36.572c-1.82-.017-2.759.296-2.964.972,1.608.384,2.834-.004,2.964-.972ZM64.861,44.791c-.908-.529-1.768-1.031-2.652-1.546-.325.303-.314.618.104.92.323.233.631.486.955.716.532.378,1.039.239,1.593-.09ZM62.231,39.532c1.057.901,2.854.954,3.356.064-1.135.205-2.144-.81-3.356-.064ZM63.414,38.953c1.227.677,2.552.636,3.02-.129-.437-.056-.852-.079-1.252-.168-.405-.09-.796-.245-1.229-.383-.173.218-.354.446-.539.68ZM61.116,44.327c.945,1.384,1.873,1.93,2.436,1.068-.469-.354-.977-.672-1.402-1.077-.373-.355-.666-.365-1.034.009ZM42.335,37.626c-.298-.546-2.063-1.005-3.042-.841.677,1.47,1.928.771,3.042.841ZM40.558,37.929c.475.91,2.156,1.024,3.055.349-.915-.889-1.976-.118-3.055-.349ZM42.544,39.848c.978.643,1.888.383,2.782.153.19-.049.337-.265.504-.404-.234-.103-.485-.322-.698-.29-.824.127-1.635.333-2.589.54ZM41.801,39.116c.678.586,2.051.539,3.088-.134-.353-.159-.654-.423-.911-.386-.718.102-1.417.329-2.177.52ZM48.268,50.609c-.103,1.653.812,3.265,1.839,3.227-.608-1.067-1.215-2.132-1.839-3.227ZM55.69,88.008c-.179-.057-.267-.081-.351-.113-.656-.254-.874-.606-.802-1.293.07-.676.34-.975.941-1.043.63-.071,1.025.189,1.283.833.076.19.173.373.333.714.012-1.173-.606-1.822-1.534-1.803-.789.016-1.476.76-1.418,1.536.062.823.619,1.281,1.548,1.17ZM61.571,47.937c.551-.666.971-1.174,1.391-1.682q-.954.331-2.261.082c-.096.748.778.854.87,1.6ZM64.719,38.082c.982.703,2.369.65,2.808-.201-.957.398-1.898-.527-2.808.201ZM60.742,44.674c0,.341-.003.569,0,.796.008.53.575,1.034,1.099.949.132-.022.289-.132.354-.247.041-.073-.031-.268-.113-.342-.403-.369-.825-.716-1.34-1.156ZM43.823,40.567c.652.439,1.98.385,2.775-.203-.305-.116-.553-.306-.763-.271-.68.114-1.345.31-2.012.474ZM45.368,41.886c.384.534,1.112.66,1.935.402.113-.267.205-.485.336-.796-.776.135-1.502.261-2.271.394ZM64.466,40.567c-.667-.173-1.328-.374-2.003-.5-.188-.035-.417.148-.746.279,1.174.645,2.312.698,2.749.222ZM55.041,86.939c.338-.028.645-.004.916-.091.214-.069.384-.276.574-.421-.172-.174-.313-.432-.52-.506-.63-.226-1.065.254-.97,1.019ZM56.262,90.056c.27-.813.287-1.638-.004-2.444-.155-.43-.508-.549-.953-.37.988.723.705,1.841.956,2.814ZM44.543,41.203c.58.495,1.771.497,2.559-.049-.306-.117-.55-.302-.773-.279-.585.058-1.161.207-1.785.328ZM63.239,41.835c-.846-.132-1.588-.249-2.373-.372.425.841,1.569,1.037,2.373.372ZM63.658,41.336c-.009-.061-.018-.122-.026-.183-.543-.11-1.098-.183-1.626-.342-.451-.136-.557.07-.644.463.801.206,1.554.399,2.297.062ZM53.972,56.856c-.069.005-.137.011-.206.016-.206.436-.061.847.185,1.23.053.083.325.139.334.122.175-.334.335-.678.476-1.028.029-.072-.027-.179-.044-.271-.054-.013-.109-.026-.163-.039-.095.28-.189.559-.313.925-.109-.387-.189-.671-.269-.956ZM62.286,42.448c-.563.217-1.259-.478-1.756.256.545.604,1.379.503,1.756-.256ZM47.206,57.526c.117,1.011.557,1.368,1.313,1.088.48-.177.599.115.772.388.108.171.171.37.297.654.118-.7-.184-1.028-.64-1.214-.579-.236-1.384.009-1.742-.915ZM46.134,42.723c.394.453.745.795,1.242.558.2-.095.272-.458.467-.818-.662.101-1.127.172-1.709.26ZM57.269,91.597c-.571-.988-1.505-.57-2.168-.933.023.21.076.464.19.495.598.166,1.211.275,1.978.438ZM52.408,55.964c-.058-.003-.117-.006-.175-.009-.076.125-.153.249-.276.452-.052-.354-.088-.595-.124-.837-.453.918-.223,1.514.517,1.482.019-.361.039-.724.058-1.087ZM56.501,87.138c.131.922.265,1.866.375,2.644.345-1.627.224-2.406-.375-2.644ZM46.19,45.972c.521.372.664.364,1.208-.163.144-.139.16-.41.234-.62-.051-.013-.102-.025-.153-.038-.411.262-.822.523-1.289.82ZM49.443,53.948c-.085.062-.17.124-.255.185.122.297.243.594.365.891l.603-.409c-.238-.222-.475-.445-.713-.667ZM55.249,90.191c.533.617,1.277.579,1.991.633-.519-.66-1.341-.379-1.991-.633ZM52.916,56.345c-.393.632-.175,1.245.497,1.433-.028-.347-.055-.679-.095-1.173-.127.289-.18.409-.232.529-.034-.006-.067-.013-.101-.019-.021-.241-.043-.482-.069-.77ZM57.886,54.96c-.039.392-.067.665-.094.937.287-.093.574-.187.861-.28-.005-.069-.01-.138-.015-.206-.206-.123-.412-.247-.752-.451ZM58.036,54.572c.245.167.405.277.566.387.209-.313.417-.626.626-.939-.036-.025-.073-.051-.109-.076-.306.177-.612.355-1.082.628ZM47.988,57.402l.076.175c.355.102.71.203,1.125.322-.032-.573-.389-.65-.706-.697-.152-.023-.329.128-.495.201ZM60.063,57.153c.005-.064.01-.128.014-.192-.194-.048-.421-.183-.575-.125-.243.092-.437.313-.652.48.043.062.085.124.128.185.362-.116.723-.232,1.085-.348ZM57.762,54.609c-.867.457-.899.569-.364,1.028.131-.369.247-.698.364-1.028ZM61.62,43.639c-.033-.117-.066-.234-.099-.35-.288.082-.577.163-.865.245.05.116.12.338.145.333.277-.055.547-.146.819-.227ZM50.661,54.465c-.052.022-.104.044-.157.066.046.301.092.602.16,1.043.268-.237.428-.378.613-.541-.245-.226-.431-.396-.616-.567ZM58.332,56.561c.253-.19.445-.315.611-.468.053-.049.062-.178.043-.259-.012-.052-.141-.134-.168-.118-.277.16-.698.232-.486.844ZM59.682,56.555c-.274-.165-.486-.344-.531-.31-.207.162-.367.383-.544.582l.132.147c.257-.114.514-.229.943-.42ZM49.918,56.61c-.288-.207-.439-.359-.621-.424-.073-.026-.215.139-.326.217.158.128.302.28.479.371.069.035.209-.068.468-.164ZM48.633,56.168c-.051-.047-.102-.093-.152-.14-.493.162-.494.688-.736,1.036.045.034.091.068.136.103.251-.333.501-.666.752-.998Z"/>
    <path class="cls-1" d="M52.074,81.901c-.151-.138-.303-.276-.555-.506-.044.396-.082.663-.102.931-.022.302-.071.547-.464.564-.389.017-.68-.071-.759-.492-.029-.156-.034-.322-.016-.479.092-.812.187-1.623.297-2.432.051-.373.267-.575.667-.508.473.079.95.142,1.417.248.832.189,1.161.845.846,1.638-.329.829-.31.958.329,1.847.067-.811.132-1.52.182-2.23.015-.219-.005-.441-.015-.661-.015-.362.114-.569.517-.559.537.014,1.084-.057,1.607.028.199.033.345.396.515.609-.189.143-.359.339-.572.414-.234.082-.508.053-.81.199.13.066.258.182.392.19.924.057.925.05.802,1.048-.348.031-.706.063-1.064.094-.002.057-.004.114-.006.171.253.013.507.026.76.038.355.018.539.168.543.56.004.385-.2.498-.515.49-.678-.016-1.355-.055-2.032-.08-.156-.006-.317-.015-.469.011-.926.159-1.195-.042-1.511-1.15.308.235.327.856,1.041.697-.23-.481-.439-.918-.659-1.38.166-.119.316-.213.45-.328.306-.262.283-1.299-.071-1.396-.62-.17-1.273-.216-1.912-.315-.174.938-.341,1.756-.469,2.58-.052.333-.033.686.513.776.029-.33.07-.62.075-.911.01-.504.341-.538.645-.361.195.113.273.427.404.651ZM56.031,79.925c.023-.1.046-.199.069-.299-.24-.073-.477-.172-.723-.211-.183-.029-.389.067-.566.025-.469-.111-.699.066-.708.527-.012.619.038,1.24-.007,1.856-.055.77.069.952.842.935.319-.007.639-.055.953-.118.104-.021.187-.146.28-.223-.098-.074-.19-.2-.296-.213-.351-.043-.706-.045-1.066-.063v-.622c.445-.072.854-.138,1.263-.205-.008-.072-.017-.144-.025-.216-.424-.065-.848-.13-1.28-.196-.024-.303-.045-.575-.068-.862.476-.041.904-.078,1.332-.115Z"/>
    <path class="cls-1" d="M65.885,76.667c.759-.42,1.387-.767,2.052-1.135.137.149.285.282.398.441.227.32.217.577-.205.742-.206.08-.383.233-.573.353l.088.214c.185-.066.367-.168.557-.191.289-.035.643-.12.862.005.321.182.364.516-.039.751-.233.136-.461.282-.691.423.026.049.051.097.077.146.25-.118.504-.229.749-.357.331-.172.613-.173.815.191.21.379.035.592-.306.753-.663.314-1.321.638-2.064.998-.603-1.17-1.156-2.241-1.72-3.334ZM68.096,76.302c-.734-.395-1.13.084-1.558.337-.116.068-.205.38-.148.51.312.714.654,1.418,1.036,2.097.078.138.43.27.556.207.541-.271,1.046-.616,1.563-.934-.019-.056-.039-.112-.058-.169-.153.023-.316.019-.455.074-.184.073-.351.19-.521.294-.287.175-.529.167-.697-.162-.16-.312-.016-.475.269-.598.267-.116.521-.262.81-.41-.419-.667-.738-.209-1.036.009-.349.255-.556.07-.744-.192-.203-.283-.074-.486.192-.635.222-.124.447-.243.792-.43Z"/>
    <path class="cls-1" d="M42.878,78.162c.185.122.463.211.524.378.05.137-.115.457-.267.534-.171.087-.441.02-.656-.032-.175-.042-.332-.161-.497-.245-.025.051-.051.102-.076.152.235.128.517.212.69.398.137.147.225.439.181.631-.072.309-.321.437-.652.261-.51-.272-1.033-.521-1.539-.801-.352-.195-.427-.45-.199-.835.507-.855.966-1.738,1.475-2.664.676.322,1.362.568,1.955.956.547.357.089.703-.144,1.008-.39-.126-.755-.244-1.12-.362l-.085.121c.085.139.17.277.255.416-.079-.011-.176.004-.234-.036-.199-.14-.43-.271-.552-.466-.045-.072.148-.401.291-.453.181-.066.426.013.635.063.233.055.457.148.684.224-.199-.936-1.043-.795-1.57-1.172-.441.745-.857,1.448-1.274,2.15-.266.448-.128.763.329.953.368.153.74.303,1.122.413.118.034.275-.07.414-.111-.385-.317-.76-.455-1.081-.673-.109-.074-.168-.404-.095-.517.075-.117.352-.177.516-.143.18.037.32.235.498.318.149.07.327.076.492.11-.006-.192-.012-.385-.018-.577Z"/>
    <path class="cls-1" d="M67.343,79.971c-.752.81-.868.82-1.754.268-.196-.122-.42-.2-.754-.356.1.466.173.804.262,1.22-.238.103-.483.283-.735.292-.184.007-.479-.169-.547-.336-.337-.831-.6-1.692-.92-2.53-.146-.382-.068-.602.321-.728.436-.142.858-.336,1.302-.446.986-.244,1.62.394,1.483,1.412-.024.179.114.45.264.567.312.243.683.411,1.077.637ZM64.133,81.175c.877-.484-.023-1.002.197-1.453.789-.442,1.407.731,2.316.314-.172-.149-.247-.266-.346-.292-.724-.189-.843-.635-.748-1.337.114-.842-.46-1.191-1.25-.828-.416.191-.806.438-1.191.651.338.975.669,1.926,1.022,2.945Z"/>
    <path class="cls-1" d="M49.38,78.878c.743.306.918.575.778,1.198-.126.562-.674,1.05-1.243.986-.583-.065-.924.077-1.09.677-.115.414-.505.544-.877.39-.361-.15-.506-.471-.379-.892.259-.86.483-1.731.747-2.59.042-.136.246-.349.32-.329.595.165,1.177.378,1.764.577-.49-.081-.98-.177-1.475-.234-.121-.014-.335.07-.372.163-.365.904-.676,1.826-.667,2.81.406.175.54.011.596-.341.131-.831.225-.902.992-.721.532.126.941.036,1.205-.491.25-.498.133-.886-.301-1.204Z"/>
    <path class="cls-1" d="M60.962,78.459c-.369,1.307-.695,2.463-1.021,3.619l.164.111c.131-.048.355-.069.378-.148.219-.771.97-.66,1.495-.897.148-.067.414.147.633.207.179.05.369.063.554.092.015-.064.03-.128.045-.192l-1.872-2.451c1.222.57,1.585,1.881,2.576,2.757-.55.154-.929.458-1.46.099-.499-.338-1.167-.083-1.51.418-.119.173-.27.367-.452.445-.444.19-.737-.026-.639-.492.231-1.092.507-2.175.783-3.257.026-.101.174-.171.326-.311Z"/>
    <path class="cls-1" d="M39.693,74.574c.695.31,1.444.587,1.452,1.526.002.188-.193.378-.3.565-.14.246-.404.488-.405.734-.008,1.134-.848,1.285-1.734.914-.467-.196-.929-.507-1.26-.884-.164-.187-.151-.716-.002-.957.48-.777,1.061-1.492,1.65-2.295.214.143.417.28.62.417-.311-.093-.554-.069-.745.261-.19.326-.45.613-.69.908-1.151,1.416-.923,1.276.365,2.169.033.023.063.052.098.07.486.246,1.207-.074,1.334-.538.093-.34.243-.692.462-.962.385-.476.419-.832-.027-1.251-.257-.242-.544-.452-.818-.676Z"/>
    <path class="cls-1" d="M56.939,79.316c.612-.101,1.196-.207,1.782-.293.543-.079,1.013.038,1.199.624.175.55-.129,1.378-.654,1.511-.707.178-.827.592-.797,1.209.007.141-.213.423-.313.416-.327-.023-.824.263-.931-.322-.096-.527-.133-1.066-.181-1.601-.045-.51-.07-1.023-.105-1.543ZM57.106,79.525c.098.9.197,1.73.275,2.562.038.404.248.443.589.342.009-.088.031-.166.022-.24q-.125-1.055.882-1.222c.438-.073.743-.552.714-1.097-.027-.514-.371-.735-.798-.698-.545.046-1.079.22-1.685.354Z"/>
    <path class="cls-1" d="M68.715,75.178c.213-.164.365-.281.378-.291.075.289.086.655.255.92.405.637.885,1.228,1.349,1.857.949-.111,1.823-1.163,1.669-2.058-.18-1.042-1.073-1.481-2.394-1.177.578-.454,1.273-.559,1.84-.249.647.353.881.915.869,1.646-.018,1.032-.633,1.637-1.415,2.135-.355.226-.64.174-.888-.235-.516-.851-1.086-1.67-1.663-2.547Z"/>
    <path class="cls-1" d="M71.59,75.412c.313.348.299.724.053,1.087-.352.519-.802.494-1.12-.05-.101-.172-.209-.346-.272-.533-.087-.259-.595-.466-.174-.794.378-.295.823-.427,1.251-.056.114.099.189.243.283.366-.336-.096-.783-.463-.974.026-.184.472.219.82.822,1.15.051-.469.091-.833.131-1.197Z"/>
    <path class="cls-1" d="M61.944,80.622c-.444.124-.692.193-.94.262-.042-.04-.084-.081-.126-.121.129-.273.257-.546.386-.819.184.184.369.367.68.678Z"/>
    <path class="cls-1" d="M77.066,43.117c-1.641-.185-2.295.82-2.673,2.262-.257-.398-.447-.612-.547-.861-.341-.849-.987-1.128-1.848-1.085-.308.015-.619-.034-.929-.054l-.054-.155c.331-.27.647-.563.998-.805.473-.326.658-.705.453-1.277-.146-.407-.214-.842-.353-1.408.585.26,1.036.508,1.518.655.24.073.574.032.801-.084.524-.269,1.009-.615,1.51-.929.047.032.095.063.142.095-.096.56-.144,1.133-.301,1.674-.13.449.003.716.342.973.313.237.6.508.898.763.015.079.029.158.044.237ZM75.206,40.749c-.194.371-.388.742-.596,1.14.934-.147,1.117-.418,1.057-1.516-.168.138-.326.268-.484.397.128-.257.256-.515.402-.807-1.346.449-1.599.794-1.294,1.798.32-.354.617-.683.915-1.012ZM74.298,44.695c.725-.982.866-1.505,0-1.978v1.978ZM71.823,43.099c1.079.35,1.778.256,1.801-.609-.592.2-1.159.392-1.801.609ZM72.735,40.288c.431.528.782.958,1.216,1.489q.104-1.125-1.216-1.489ZM74.629,42.394c.382.89.798.988,1.754.43-.607-.149-1.153-.283-1.754-.43ZM73.767,41.867c-.418-.5-.753-.901-1.088-1.301.026,1.198.118,1.311,1.088,1.301ZM74.135,44.373c-.027-.621-.048-1.085-.073-1.645-.717.669-.711.836.073,1.645ZM73.702,42.247c-.951-.462-1.106-.405-1.727.586.583-.198,1.101-.373,1.727-.586ZM74.698,42.222c.631.153,1.083.262,1.671.405q-.712-.757-1.671-.405Z"/>
    <path class="cls-1" d="M37.249,43.366c-.524.084-1.045.212-1.571.237-.429.02-.652.207-.815.57-.193.432-.418.85-.714,1.443-.247-.566-.448-.984-.611-1.417-.129-.343-.343-.503-.711-.525-.537-.032-1.072-.101-1.807-.175.414-.34.695-.598,1.003-.819.519-.371.7-.816.48-1.446-.136-.391-.168-.818-.141-1.393.442.253.928.452,1.313.773.356.297.589.269.934.016.459-.336.962-.61,1.447-.911.049.038.098.076.147.115-.098.535-.161,1.08-.305,1.602-.105.381.014.597.304.812.38.281.736.595,1.102.895-.019.074-.038.149-.056.223ZM35.647,42.832c-.38-.057-.759-.115-1.189-.18.466.833,1.045.973,1.898.507-.252-.12-.49-.234-.731-.349.302.034.605.068.92.104-.635-.856-.973-.941-1.554-.417.215.11.436.222.656.334ZM34.631,42.155c1.017-.098,1.168-.318,1.175-1.769-.438.659-.789,1.188-1.175,1.769ZM34.373,42.154c.408-.619.723-1.097,1.119-1.697-1.176.436-1.276.583-1.119,1.697ZM34.063,42.169c.183-1.039-.075-1.377-1.127-1.574.371.518.714.996,1.127,1.574ZM31.932,43.135c.735-.233,1.3-.413,1.986-.631-.983-.438-1.207-.365-1.986.631ZM32.315,43.225c1.1.431,1.2.394,1.457-.469-.524.169-.991.319-1.457.469ZM33.757,42.082c-.356-.497-.655-.915-1.039-1.451.159,1.417.065,1.43,1.039,1.451ZM34.139,43.012c-.654.721-.654.788-.082,1.564.027-.513.05-.956.082-1.564ZM34.33,43.041v1.431c.572-.79.573-.892,0-1.431Z"/>
    <path class="cls-1" d="M53.621,55.47c-1.061-.547-1.801-1.436-2.513-2.358-.362-.468-.571-.931-.526-1.578.086-1.238.019-2.486.037-3.73.006-.423-.153-.54-.603-.387v3.676c-.057.013-.114.026-.171.039-.324-1.3-.648-2.6-.991-3.975h10.74c-.029,1.485-.417,2.844-1.071,4.302v-4.082h-.848c0,.628-.015,1.243.003,1.858.034,1.126.094,2.252.127,3.378.003.122-.09.258-.167.368-.77,1.098-1.739,1.977-2.875,2.695-.503.318-.84.229-1.155-.217.057-.105.162-.21.163-.316.008-2.459.001-4.919.009-7.378.001-.459-.217-.48-.604-.346,0,.181,0,.359,0,.536,0,2.14.012,4.279-.009,6.419-.005.455.086.82.455,1.095ZM52.21,54.045v-6.664h-.719c0,1.753.03,3.473-.016,5.19-.017.627.171,1.073.735,1.473ZM56.216,54.261c.086.022.172.044.258.067.108-.369.304-.736.31-1.107.031-1.935.015-3.87.015-5.838h-.583v6.878ZM54.719,55.399c.531-.099.538-.415.537-.747-.003-2.264,0-4.528-.004-6.791,0-.156-.024-.311-.036-.453-.46-.162-.562.051-.554.428.025,1.161.047,2.322.054,3.483.009,1.341.002,2.682.002,4.08Z"/>
    <path class="cls-1" d="M54.31,41.966c1.548,1.395,3.361,1.939,5.437,1.814v2.684h-10.874v-2.654c1.953-.163,3.988-.157,5.437-1.844Z"/>
    <path class="cls-1" d="M73.155,34.313c-.863.57-5.565,1.705-6.621,1.639,2.111-.523,4.38-1.084,6.621-1.639Z"/>
    <path class="cls-1" d="M34.74,34.309c2.486.687,4.906,1.356,7.326,2.024-2.534-.235-4.939-.953-7.326-2.024Z"/>
    <path class="cls-1" d="M51.852,80.813c-.255-.273-.509-.425-.569-.634-.106-.37.206-.417.479-.384.301.036.713.013.664.471-.017.16-.296.293-.575.546Z"/>
    <path class="cls-1" d="M64.172,79.174c-.187-.343-.288-.53-.478-.878.387-.066.702-.147,1.02-.154.086-.002.268.311.251.328-.228.233-.483.44-.793.705Z"/>
    <path class="cls-1" d="M49.246,79.952h-1.383c.145-.33.23-.525.369-.842.381.205.742.4,1.103.595-.03.082-.059.164-.089.247Z"/>
    <path class="cls-1" d="M39.461,75.229c1.038.68,1.057.745.391,1.262-.94-.659-.919-.739-.391-1.262Z"/>
    <path class="cls-1" d="M38.78,76.311c.229.304.464.604.674.921.014.021-.196.26-.241.242-.321-.125-.646-.263-.916-.47-.048-.037.162-.409.252-.626.077-.022.154-.044.231-.067Z"/>
    <path class="cls-1" d="M57.768,79.705c.528.068.88.104,1.223.179.022.005.023.437-.044.462-.281.104-.6.192-.886.151-.105-.015-.157-.401-.294-.793Z"/>
  </g>
</svg>