<?xml version="1.0" encoding="UTF-8"?>
<svg id="Insignias" xmlns="http://www.w3.org/2000/svg" viewBox="0 0 108 108">
  <defs>
    <style>
      .cls-1 {
        fill: #231f20;
      }
    </style>
  </defs>
  <g id="Scout_Insignia" data-name="Scout Insignia">
    <path class="cls-1" d="M54.027,3.26c.342,1.16.885,2.195,1.413,3.202.171.326.342.652.505.981,1.636,3.301,3.694,6.362,5.684,9.323.954,1.418,1.94,2.885,2.859,4.349,3.049,4.857,4.84,8.799,5.81,12.782.163.671.305,1.368.443,2.042.065.32.13.639.198.956l.308,1.452,1.329-.662c.301-.15.6-.306.899-.463.632-.331,1.229-.644,1.843-.892,2.204-.89,4.555-1.341,6.988-1.341.737,0,1.494.041,2.251.123,6.391.689,10.772,4.254,13.393,10.899,1.285,3.256,1.78,6.819,1.47,10.587-.227,2.767-1.239,5.444-3.094,8.184-2.39,3.53-5.712,6.47-10.157,8.987-.089.051-.179.101-.269.151.591-2.834.525-5.584-.198-8.18-.951-3.415-3.361-5.456-7.162-6.067-.319-.051-.656-.077-1.002-.077-2.614,0-5.71,1.469-7.36,3.493-2.096,2.571-3.351,5.191-3.834,8.01-.111.649-.177,1.19-.207,1.703-.041.696.404,1.221.541,1.365.264.278.539.545.814.812.214.208.428.415.635.629,1.426,1.465.796,3.851-.184,4.941-.295.328-.719.626-1.167.941-.246.173-.497.35-.744.54l-.652.502.247.726c.04.176.108.399.262.624.899,1.314,2.579,2.719,4.598,2.719.227,0,.456-.018.681-.054,2.243-.36,3.763-1.618,4.396-3.638.3-.956.456-1.979.471-3.099,2.794,1.704,4.73,3.693,5.916,6.076.952,1.915,1.283,3.691.982,5.278-.52,2.744-1.756,4.582-3.778,5.621-.316.162-.589.346-.853.523-.114.076-.227.153-.343.226-.894.562-1.952.877-3.329.992-.495.041-.977.062-1.433.062-1.498,0-2.813-.218-4.02-.665-1.146-.425-2.14-1.21-3.191-2.041-.204-.161-.408-.322-.603-.473-.023-.02-.045-.043-.072-.07l-.141-.138-1.002-.957-.756,1.161-.106.16c-.088.131-.169.254-.244.381-2.217,3.762-5.009,7.327-8.532,10.895-.018.004-.046.009-.081.009-.05,0-.087-.009-.096-.009-.003,0-.003,0-.001.002-1.625-1.348-3.049-2.88-4.233-4.552-1.032-1.458-2.036-2.985-3.006-4.462-.425-.647-.85-1.294-1.279-1.938-.067-.101-.132-.203-.205-.318l-.128-.202-.779-1.215-1.011,1.03c-1.121,1.142-2.387,1.978-3.872,2.554-1.602.622-3.134.937-4.554.937-.748,0-1.483-.088-2.184-.26-3.342-.824-5.523-2.325-6.669-4.588-1.407-2.78-1.253-5.587.456-8.344.78-1.258,1.774-2.427,2.81-3.613.184-.211.52-.407.875-.615.203-.119.406-.238.598-.366.444-.295.888-.589,1.333-.883-.009.557.002,1.123.065,1.695.308,2.812,2.301,4.657,5.332,4.936.088.008.179.012.271.012.539,0,1.103-.143,1.547-.391.854-.478,1.754-.999,2.549-1.662.285-.237.877-.731.839-1.505-.039-.774-.656-1.192-1.065-1.469l-.098-.066c-.746-.504-1.45-.98-1.795-1.635-.689-1.306-.96-3.746,1.116-5.118.967-.639,1.341-1.458,1.175-2.579-.621-4.201-2.034-7.251-4.447-9.6-1.92-1.868-4.304-2.815-7.088-2.815-.265,0-.532.008-.803.025-.613.038-1.156.101-1.659.194-2.14.392-3.78,1.708-4.875,3.913-1.034,2.083-1.518,4.412-1.48,7.121.015,1.049.141,2.066.376,3.042-.537-.293-1.061-.587-1.579-.897-3.815-2.285-6.711-4.881-8.856-7.936-2.017-2.874-3.141-5.788-3.436-8.908-.127-1.347-.121-2.713-.073-4.35.006-.192.086-.453.171-.729.098-.317.208-.677.254-1.075.829-7.22,6.861-13.577,14.03-14.785.976-.165,1.967-.248,2.946-.248,3.057,0,6.125.806,9.119,2.396l.114.061c.116.062.233.125.351.183.169.084.353.126.547.126h.051s.043-.005.043-.005h.941l.186-.923c.06-.299.118-.598.176-.898.12-.624.245-1.269.39-1.887.901-3.846,2.472-7.527,4.801-11.254,1.169-1.871,2.405-3.751,3.6-5.569,1.195-1.819,2.431-3.699,3.608-5.581,1.243-1.989,2.342-4.087,3.403-6.117l.175-.335c.345-.659.469-1.375.578-2.006l.019-.11M54.641,0c-1.056.712-1.507,1.727-1.719,2.902-.119.659-.208,1.362-.511,1.941-1.127,2.153-2.248,4.317-3.535,6.375-2.346,3.752-4.863,7.398-7.208,11.151-2.249,3.599-3.972,7.448-4.946,11.601-.219.935-.384,1.882-.573,2.82-.04,0-.071.005-.095.005-.014,0-.026-.002-.036-.007-.147-.073-.291-.153-.437-.23-3.071-1.63-6.313-2.53-9.659-2.53-1.036,0-2.083.086-3.136.264-8.207,1.384-14.154,8.577-14.982,15.788-.074.643-.413,1.265-.432,1.902-.044,1.496-.063,3.004.078,4.492.329,3.48,1.641,6.612,3.64,9.46,2.43,3.463,5.606,6.106,9.206,8.262,1.324.793,2.704,1.493,4.092,2.253.017-.135.033-.171.024-.198-.061-.172-.12-.346-.193-.513-.65-1.496-.956-3.062-.979-4.69-.033-2.299.328-4.517,1.36-6.593.849-1.709,2.105-2.937,4.052-3.293.502-.092,1.014-.145,1.523-.177.247-.015.49-.023.731-.023,2.385,0,4.507.758,6.286,2.489,2.521,2.453,3.611,5.554,4.112,8.944.104.705-.09,1.067-.672,1.451-2.524,1.667-2.531,4.658-1.499,6.614.498.944,1.399,1.53,2.265,2.116.682.462.762.616.135,1.138-.721.601-1.551,1.081-2.374,1.542-.282.158-.649.245-.986.245-.056,0-.112-.002-.166-.007-2.242-.206-4.021-1.418-4.294-3.916-.135-1.233-.003-2.495.007-3.723-.043.025-.199.106-.345.203-.948.623-1.895,1.247-2.839,1.875-.578.384-1.262.678-1.703,1.183-1.044,1.195-2.088,2.42-2.921,3.764-1.88,3.032-2.108,6.304-.505,9.469,1.502,2.967,4.34,4.426,7.42,5.186.817.201,1.639.294,2.459.294,1.679,0,3.352-.387,4.97-1.015,1.604-.623,3.022-1.542,4.277-2.821.135.21.237.375.344.537,1.43,2.146,2.814,4.323,4.304,6.427,1.261,1.78,2.752,3.374,4.437,4.772.22.183.528.272.832.272.331,0,.657-.105.859-.31,3.345-3.383,6.324-7.052,8.745-11.16.095-.162.204-.316.323-.497.135.129.208.212.294.278,1.299,1.005,2.548,2.112,4.107,2.69,1.431.53,2.917.737,4.42.737.508,0,1.018-.024,1.529-.066,1.356-.113,2.67-.426,3.846-1.165.37-.233.722-.501,1.109-.7,2.628-1.349,3.871-3.728,4.383-6.429.389-2.05-.138-4.106-1.082-6.005-1.444-2.903-3.737-4.975-6.467-6.619-.542-.326-1.106-.618-1.733-.966.03.361.053.615.071.869.093,1.324.016,2.631-.385,3.908-.537,1.715-1.772,2.572-3.48,2.847-.169.027-.335.04-.499.04-1.612,0-2.975-1.232-3.649-2.218-.075-.11-.094-.26-.105-.293.732-.564,1.503-.999,2.063-1.622,1.421-1.579,2.006-4.609.154-6.512-.472-.485-.974-.941-1.44-1.431-.122-.129-.236-.34-.227-.506.031-.527.103-1.054.193-1.576.486-2.833,1.792-5.269,3.592-7.477,1.405-1.723,4.176-3.069,6.469-3.069.281,0,.556.02.819.063,3.087.496,5.353,2.07,6.236,5.24.733,2.631.713,5.274.118,7.922-.157.698-.382,1.381-.613,2.205.964-.512,1.812-.938,2.637-1.405,4.177-2.365,7.827-5.332,10.543-9.343,1.791-2.646,3.026-5.54,3.288-8.735.312-3.797-.143-7.545-1.547-11.104-2.584-6.549-7.071-10.836-14.34-11.62-.796-.086-1.587-.13-2.374-.13-2.535,0-5.018.455-7.419,1.425-.972.393-1.887.925-2.824,1.392-.212-.998-.402-2.021-.648-3.031-1.155-4.749-3.376-9.016-5.953-13.121-2.836-4.518-6.105-8.764-8.486-13.571-.762-1.538-1.688-3-2.022-4.714-.141-.725-.209-1.464-.314-2.22h0Z"/>
  </g>
</svg>