<?xml version="1.0" encoding="UTF-8"?>
<svg id="Insignias" xmlns="http://www.w3.org/2000/svg" viewBox="0 0 108 108">
  <defs>
    <style>
      .cls-1 {
        fill: #231f20;
      }
    </style>
  </defs>
  <g id="Tenderfoot_Insignia" data-name="Tenderfoot Insignia">
    <path class="cls-1" d="M36.116,41.085c.065-.329.121-.57.16-.813.318-1.959.55-3.935.966-5.873.872-4.06,2.351-7.914,4.428-11.505,2.351-4.062,4.879-8.022,7.23-12.084,1.668-2.881,3.175-5.855,4.737-8.798.22-.414.328-.886.509-1.323.092-.222.231-.425.379-.69.114.149.184.202.203.27,1.421,4.958,3.962,9.345,6.905,13.525,2.129,3.024,4.005,6.191,5.563,9.548,1.93,4.16,3.519,8.433,4.344,12.958.253,1.389.359,2.806.543,4.208.019.142.111.392.165.391.174-.003.371-.066.515-.168,1.581-1.109,3.088-2.344,4.746-3.322,2.486-1.466,5.226-2.33,8.111-2.54,1.542-.112,3.143-.153,4.648.137,3.24.623,6.097,2.022,8.241,4.693,2.141,2.667,3.476,5.684,4.021,9.018.238,1.458.109,2.983.073,4.476-.043,1.784-.478,3.518-1.078,5.175-1.092,3.015-2.88,5.601-5.272,7.753-2.789,2.51-5.9,4.548-9.206,6.303-.104.055-.214.102-.324.145-.049.019-.107.019-.173.029.085-.774.205-1.531.244-2.291.135-2.602-.26-5.122-1.418-7.468-.884-1.792-2.367-2.966-4.292-3.452-3.692-.931-6.816.268-9.441,2.852-.903.889-1.63,1.975-2.336,3.038-.322.485-.459,1.121-.575,1.709-.31,1.58-.564,3.171-.838,4.757-.037.214-.071.429-.088.645q-.088,1.089.876,1.552c1.38.663,2.094,2,1.833,3.376-.318,1.676-2.007,2.634-3.156,2.66-.193.004-.387,0-.552,0-.047.087-.088.128-.079.152.389,1.135.489,2.467,2.057,2.75.569.103,1.008.444,1.311,1.009.12.224.605.359.922.356,4.449-.038,6.886-2.849,7.696-6.433.039-.17.099-.336.167-.565,2.732,1.308,4.801,3.175,5.845,6.065.856,2.37.685,4.69-.106,7.043-1.04,3.094-3.201,5.121-6.065,6.433-1.64.751-3.43.833-5.218.56-.674-.103-1.347-.214-2.015-.35-2.384-.486-4.19-1.935-5.887-3.562-.14-.134-.289-.259-.516-.461-.266.611-.492,1.165-.745,1.706-.975,2.083-1.871,4.21-2.965,6.23-1.102,2.034-2.532,3.858-4.263,5.42-.526.475-1.049.953-1.594,1.406-.329.273-.648.392-1.093.073-2.091-1.5-4.157-3.019-5.589-5.221-1.703-2.619-3.167-5.364-4.345-8.26-.314-.772-.353-.792-.922-.159-1.222,1.36-2.702,2.362-4.371,3.041-2.221.903-4.513,1.281-6.9.619-2.106-.584-3.936-1.659-5.39-3.246-1.222-1.334-2.345-2.809-2.884-4.576-.428-1.402-.452-2.861-.23-4.332.367-2.429,1.681-4.31,3.539-5.739.91-.7,2.176-.944,3.295-1.358.294-.109.516.065.583.411.45,2.304,1.822,3.809,3.972,4.703.912.379,1.818.627,2.799.555.188-.014.391-.125.545-.245.371-.287.675-.692,1.082-.896.909-.456,1.474-1.221,2.031-2.008.101-.143.183-.31.228-.478.105-.388.021-.661-.463-.651-.473.01-.948.016-1.421.002-1.289-.037-2.875-1.499-2.913-2.772-.052-1.742.979-3.068,2.628-3.468.695-.169.88-.388.74-1.093-.272-1.369-.611-2.726-.848-4.101-.115-.665-.104-1.36-.075-2.038.026-.609-.031-1.145-.394-1.675-1.206-1.76-2.556-3.328-4.511-4.332-1.414-.726-2.903-1.168-4.446-1.204-2.636-.06-4.798.955-6.375,3.179-1.241,1.75-1.658,3.725-1.789,5.777-.102,1.607-.032,3.226-.009,4.84.005.343.133.684.239,1.195-1.058-.573-2.028-1.037-2.936-1.601-2.974-1.848-5.81-3.877-8.196-6.476-1.581-1.722-2.665-3.736-3.697-5.817-1.604-3.234-2.066-6.645-1.868-10.174.221-3.946,1.927-7.206,4.814-9.877,2.38-2.202,4.989-4.029,8.224-4.673,1.249-.249,2.565-.165,3.852-.223.344-.016.691-.01,1.035.009,4.726.272,8.673,2.368,12.282,5.255.147.118.308.22.538.383ZM51.677,41.836l.014.013c-.116-.304-.233-.609-.355-.93.714-.285,1.402-.163,2.019.156.802.415,1.543.947,2.327,1.399.408.235.852.405,1.356.639-.05-.356-.078-.555-.109-.773.573.172,1.091.327,1.61.482.042-.041.083-.082.125-.123-.233-.397-.466-.793-.746-1.27.76.271,1.38.164,2.035-.342-.184-.051-.251-.074-.32-.089-1.11-.239-2.238-.413-3.324-.733-1.03-.303-2.013-.766-3.021-1.145-1.013-.38-2.235-.108-2.868.648-.128.153-.175.375-.248.541.264-.124.438-.206.612-.288.098.275.225.544.273.827.011.064-.261.164-.384.269-.073.063-.109.169-.209.335-.271-.39-.461-.742-.728-1.021-.2-.209-.481-.409-.755-.463-.615-.122-1.249-.155-1.875-.217-1.448-.142-2.405,1.046-1.965,2.443.043.135.14.253.182.326.301-.373.496-.771.814-.968.329-.204.778-.212,1.175-.307-.003-.026-.006-.052-.009-.078l-.553-.067c-.007-.054-.014-.109-.021-.163.2-.034.407-.119.598-.091.502.073,1.037.111,1.485.321.477.224.901.597,1.273.978.094.096-.018.551-.172.701-.337.328-1.97.048-2.114-.386-.217-.652-.654-.483-1.189-.484.178.191.282.329.411.436.866.714,1.75,1.406,2.601,2.137.476.409.954.837,1.333,1.332.808,1.056.782,2.137.007,3.197-.281.384-.572.761-.873,1.16q1.546.137,1.812-.686c.704.208.11,1.028.695,1.359.4-.325.825-.669,1.318-1.069.167.447.297.793.384,1.026.987.388,1.317-.377,1.819-1.169.24.55.387.941.58,1.306.101.191.286.339.433.506.142-.152.301-.292.422-.459.166-.23.303-.481.487-.778.546.486,1.022.91,1.503,1.338.471-.904.378-1.713-.193-2.416-.313-.385-.478-.285-.687.074-.381.656-.782.64-1.196-.028-.191-.308-.389-.613-.64-1.007-.255.32-.433.548-.615.772-.374.46-.605.462-.993.013-.236-.273-.473-.546-.728-.839-.224.211-.37.342-.508.48-.623.623-.642.637-1.135-.097-.244-.364-.434-.2-.677-.044-.203.13-.423.234-.635.35-.037-.056-.075-.112-.112-.168.388-.473.777-.945,1.109-1.35-.26-.406-.472-.709-.656-1.029-.493-.859-1.111-1.57-2.066-1.949-.177-.07-.279-.328-.415-.499.068-.075.136-.15.204-.225.6.334,1.3.566,1.774,1.029.5.489.785,1.198,1.179,1.834.495-.389.94-.739,1.435-1.128.16.222.297.406.426.595.359.524.489.543.946.119.087-.08.159-.176.245-.258.394-.376.662-.34.931.138.147.261.271.536.443.878.292-.325.524-.563.731-.82.35-.436.69-.381,1.03-.003.145.161.251.364.415.499.173.143.394.227.694.392.014-1.266-.758-1.998-1.386-2.953.563.096.958.164,1.54.263-.189-.44-.307-.774-.481-1.076-.038-.067-.276-.037-.419-.021-.24.027-.483.06-.715.124-.159.044-.322.122-.447.227-.112.095-.174.248-.251.366-1.091-.353-2.136-.691-2.967-1.484-.128-.122-.463-.15-.64-.075-.919.386-1.677.074-2.403-.466ZM80.168,81.976c.161.13.289.195.363.299,1.483,2.087,1.865,4.408,1.087,6.803-1.303,4.011-5.016,5.4-8.593,4.771-3.471-.61-5.995-2.691-7.452-5.953-.263-.59-.411-1.23-.636-1.838-.062-.168-.211-.303-.321-.453-.144.111-.324.195-.426.337-.423.588-.561,1.209-.126,1.862.044.065.096.136.107.209.025.167.097.393.019.491-.072.09-.324.086-.479.05-.281-.066-.548-.186-.892-.309-.109.484-.188.926-.31,1.356-.671,2.355-1.653,4.584-2.744,6.769-1.135,2.274-2.459,4.412-4.334,6.166-.84.786-.909.797-1.763.046-.015-.013-.029-.026-.044-.04-2.362-2.125-4.118-4.684-5.241-7.641-.761-2.004-1.366-4.068-1.996-6.119-.154-.502-.358-.567-.798-.399-.27.103-.574.16-.86.151-.103-.003-.308-.357-.28-.389.606-.694-.003-1.138-.313-1.732-.078.179-.123.283-.169.386-.874,1.943-1.678,3.938-3.292,5.422-2.939,2.704-7.408,3.426-10.972.392-2.422-2.062-3.371-5.554-1.99-8.777.247-.577.795-1.026,1.268-1.613.916,1.772,1.852,3.358,3.692,4.074,1.731.673,3.518.863,5.424.538-.114-.418-.25-.75-.285-1.093-.046-.45-.308-.574-.692-.638-.617-.103-1.237-.204-1.841-.364-1.363-.362-2.6-.97-3.444-2.148-.55-.767-1.073-1.566-1.497-2.407-.278-.55-.559-.548-1.057-.379-3.132,1.067-5.102,5.001-4.797,7.858.478,4.475,3.134,7.369,7.164,9.072,1.287.544,2.671.479,4.071.364,1.345-.111,2.594-.483,3.746-1.069,1.72-.875,3.142-2.173,4.348-3.692.153-.193.328-.367.587-.654.236.483.443.851.602,1.239.642,1.567,1.23,3.157,1.908,4.709,1.557,3.563,3.846,6.548,7.069,8.777.356.246.712.387,1.084.114.572-.419,1.142-.849,1.668-1.323,1.557-1.403,2.671-3.154,3.767-4.913,1.447-2.32,2.366-4.885,3.383-7.403.223-.552.45-1.102.713-1.747.231.257.365.397.489.545,2.076,2.478,4.483,4.429,7.844,4.781,3.208.336,6.122-.308,8.445-2.726,2.344-2.44,3.444-5.334,2.887-8.706-.475-2.876-2.142-4.98-4.731-6.494-.187.4-.401.772-.539,1.17-.496,1.431-1.247,2.681-2.5,3.574-1.693,1.207-3.525,1.968-5.667,1.72-.135-.016-.373.128-.424.254-.143.358-.214.745-.312,1.119,1.255.667,2.569.623,3.9.369,2.842-.543,4.774-2.295,6.182-4.768ZM59.785,44.85c.106.256.194.461.275.669.092.235.175.473.266.708.412,1.062-.087,2.115-.044,3.181.031.787.342,1.723,1.109,2.057.643.279,1.333.24,1.84-.337.648-.737,1.272-1.498,1.877-2.272.884-1.131,1.748-2.277,2.602-3.43.128-.173.208-.414.227-.63.19-2.098-.038-4.171-.368-6.242-.506-3.176-1.21-6.284-2.343-9.317-1.75-4.683-4.046-9.064-6.735-13.258-.915-1.426-1.833-2.85-2.742-4.28-.079-.124-.102-.285-.151-.428-.099,2.896-.141,5.597-.089,8.295.067,3.504.199,7.007.321,10.51.103,2.957.245,5.914.335,8.871.018.575.229.882.772,1.001.363.079.717.212,1.083.259.916.117,1.837.191,2.754.299.138.016.344.095.375.191.036.109-.052.318-.154.4-.365.297-.755.564-1.143.832-.166.115-.35.205-.507.295.396.549.795,1.018,1.099,1.542.444.766.338.939-.661,1.083ZM45.729,43.379c-.377-.305-.779-.552-1.075-.891-.449-.514-.414-1.118-.116-1.712.381-.76.837-1.516,1.774-1.546.978-.031,1.961.144,2.944.179.266.01.553-.132.805-.255.469-.227.894-.574,1.383-.721.734-.221.898-.319.96-1.09.067-.838.127-1.676.171-2.515.069-1.351.112-2.704.184-4.055.129-2.419.272-4.838.407-7.257.041-.729.076-1.459.115-2.188.175-3.247.352-6.493.526-9.74.013-.241.002-.483.002-.724-.05-.01-.101-.02-.151-.03-.19.314-.384.627-.57.944-.991,1.683-1.951,3.384-2.975,5.046-2.856,4.632-5.786,9.213-7.453,14.468-.835,2.633-1.481,5.303-1.757,8.036-.201,1.996-.111,4.022-.134,6.035-.002.178.078.39.19.531.452.57.927,1.121,1.4,1.673.869,1.015,1.705,2.063,2.635,3.018.341.35.895.522,1.381.694.86.305,1.651.009,2.352-.443.162-.335.355-.647.594-.919.207-.236.477-.414.699-.638,1.089-1.105,1.167-2.212.08-3.314-1.022-1.035-2.156-1.96-3.259-2.913-.7-.605-.715-.588-1.11.326ZM54.423,2.632c-.165.257-.314.451-.422.665-.53,1.055-.985,2.153-1.581,3.168-2.807,4.781-5.658,9.536-8.482,14.307-2.834,4.786-5.156,9.784-6.057,15.328-.303,1.863-.447,3.751-.657,5.629-.047.424-.064.851-.105,1.409-.287-.149-.484-.214-.636-.337-.553-.446-1.083-.919-1.634-1.367-3.126-2.541-6.48-4.517-10.615-5.018-1.872-.227-3.683-.246-5.523.024-.368.054-.729.153-1.093.232.003.053.007.106.01.159.274.099.543.213.822.293,2.034.586,4.071,1.163,6.105,1.747,1.84.529,3.662,1.128,5.521,1.577,1.861.45,3.568,1.184,5.155,2.244,1,.668,2.03,1.29,3.062,1.909.344.206.733.337,1.126.513.066-1.333.058-2.575.205-3.798.241-2.008.547-4.01.892-6.003.397-2.288,1.104-4.487,1.978-6.643,1.375-3.395,3.124-6.584,5.035-9.701,2.344-3.824,4.956-7.508,6.433-11.807.058-.169.194-.31.36-.566.415.889.759,1.668,1.139,2.429.501,1.001.972,2.025,1.562,2.973,1.01,1.623,2.155,3.164,3.151,4.795,3.538,5.799,6.482,11.857,7.929,18.554.618,2.861,1.098,5.733.944,8.677-.009.176.061.357.118.662,1.189-.65,2.281-1.228,3.356-1.838,1.417-.804,2.769-1.69,4.376-2.16,4.494-1.315,8.958-2.735,13.429-4.128.304-.095.569-.315.977-.547-1.525-.442-2.883-.665-4.255-.455-1.924.295-3.883.516-5.737,1.069-3.149.939-5.789,2.833-8.242,4.984-.482.423-.977.832-1.506,1.282-.096-.196-.177-.293-.191-.398-.13-1.013-.213-2.034-.379-3.041-.367-2.232-.597-4.507-1.2-6.677-1.34-4.821-3.276-9.424-5.837-13.73-1.552-2.609-3.288-5.108-4.91-7.677-1.685-2.667-3.369-5.339-4.355-8.372-.033-.103-.132-.184-.269-.367ZM18.885,67.923c-.533-.311-.952-.495-1.3-.768-1.974-1.552-3.856-3.193-5.242-5.331-2.045-3.154-3.657-6.427-3.232-10.359.131-1.215.301-2.395.787-3.537,1.164-2.736,2.926-4.989,5.279-6.79.795-.609.902-1.216.389-2.073-.117-.195-.177-.434-.22-.661-.114-.6-.216-.68-.704-.351-.976.66-1.981,1.294-2.878,2.052-3.389,2.863-5.408,6.374-5.495,10.969-.056,2.949.44,5.724,1.574,8.398,2.244,5.289,6.054,9.168,10.984,12.009.559.322,1.142.6,1.827.957.086-.424.195-.74.205-1.058.028-.84.002-1.682.017-2.523.025-1.424.334-2.792.698-4.17,1.145-4.329,5.648-7.527,11.09-5.834.334.104.69.135,1.036.2l.081-.186c-.167-.139-.315-.359-.505-.404-.739-.173-1.179-.745-1.745-1.16-.584-.429-1.294-.93-1.964-.952-2.623-.089-5.069.67-7.093,2.349-2.047,1.698-3.133,3.983-3.362,6.653-.069.8-.141,1.601-.227,2.571ZM18.057,66.189c.377-6.616,4.278-9.777,10.323-10.788-.281-.312-.558-.66-.879-.96-.226-.212-.488-.432-.774-.524-.857-.277-1.588-.67-1.998-1.531-.077-.162-.295-.295-.477-.363-.906-.339-1.662-.883-2.054-1.768-.235-.53-.603-.76-1.085-.964-.71-.3-1.373-.765-1.529-1.533-.138-.678-.453-1.109-1.005-1.43-.831-.483-1.234-1.191-1.144-2.156.048-.512-.066-.909-.555-1.192-.299-.173-.59-.43-.77-.721-.259-.419-.506-.359-.816-.122-.203.156-.41.31-.595.485-1.74,1.645-3.195,3.498-4.032,5.766-.533,1.444-.887,2.96-.765,4.493.097,1.224.385,2.454.749,3.632,1.204,3.898,3.785,6.816,6.852,9.364.13.108.298.171.553.312ZM81.363,54.57c5.533,1.789,8.396,5.478,8.779,11.119.042-.006.088,0,.115-.019,4.024-2.972,7.276-6.442,8.156-11.661.808-4.792-.554-8.783-3.998-12.122-.447-.433-.985-.772-1.527-1.19-.158.396-.237.686-.382.937-.204.353-.397.757-.706.994-.359.274-.52.581-.523.99-.008,1.181-.665,1.964-1.613,2.505-.4.229-.579.512-.604.908-.072,1.145-.818,1.764-1.746,2.18-.457.205-.735.476-.905.921-.324.851-.873,1.465-1.755,1.804-.388.149-.83.416-1.023.757-.412.727-1.059,1.085-1.74,1.447-.185.098-.333.268-.527.43ZM93.698,36.756c-.075.04-.151.08-.226.12.262.831-.096,1.468-.51,2.104-.242.372-.196.684.24.987,1.989,1.382,3.665,3.074,4.73,5.276,1.322,2.733,1.807,5.637,1.315,8.633-.227,1.38-.592,2.79-1.193,4.044-1.478,3.083-3.629,5.678-6.321,7.802-.78.615-1.609,1.168-2.415,1.749-.054-.031-.108-.063-.162-.094,0-.446,0-.892,0-1.338.002-3.148-1.01-5.853-3.363-8.036-1.453-1.348-3.142-2.142-5.056-2.505-.257-.049-.628.018-.817.181-.733.633-1.588,1.051-2.405,1.543-.396.238-.659.698-.982,1.058l.116.131c1.555-.213,3.099-.266,4.636.141,2.12.562,3.759,1.825,4.746,3.712,1.17,2.237,1.715,4.692,1.684,7.245-.005.446,0,.892,0,1.466.526-.257.981-.435,1.39-.687,1.809-1.119,3.613-2.234,5.277-3.584,1.642-1.332,3.11-2.814,4.277-4.548,1.207-1.793,2.18-3.732,2.593-5.893.238-1.248.51-2.493.677-3.752.265-1.996-.174-3.927-.717-5.828-.965-3.378-2.585-6.354-5.439-8.527-.662-.504-1.38-.934-2.073-1.397ZM54.56,52.068c-.211.186-.462.436-.741.649-1.962,1.501-4.305,2.09-6.626,2.699-.692.181-1.447.151-2.174.155-.448.002-.895-.134-1.346-.171-.444-.037-.69.137-.675.649.034,1.184.037,2.368.028,3.553-.018,2.333.099,4.653.606,6.938,1.383,6.226,4.72,11.023,10.371,14.107.233.127.659.164.864.035,1.265-.794,2.569-1.558,3.713-2.507,1.252-1.039,2.259-2.337,3.259-3.639,1.957-2.548,3.156-5.417,3.68-8.54.542-3.229.574-6.508.535-9.781-.005-.384-.117-.513-.51-.507-1.019.016-2.04-.002-3.059-.028-1.543-.039-3.006-.469-4.331-1.208-1.23-.686-2.354-1.563-3.594-2.403ZM71.349,46.204c.011-.064.022-.128.033-.193,2.117.032,3.633-1.153,5.09-2.457.015-.013.027-.03.044-.039.203-.108.395-.268.612-.313.751-.157,1.507-.289,2.266-.402,3.314-.493,6.607-1.085,9.761-2.261.827-.309,1.63-.69,2.42-1.086.346-.173.657-.441.939-.712.418-.402.581-1.437.243-1.815-.407-.455-.937-.345-1.476-.166-3.735,1.238-7.44,2.588-11.226,3.642-2.9.808-5.631,1.865-8.126,3.548-.617.416-1.311.723-1.985,1.048-1.032.497-2.061.991-2.763,1.947-.362.492-.718.989-1.058,1.496-.811,1.21-1.507,2.503-2.646,3.467-.459.388-.969.546-1.533.402-.542-.139-1.063-.359-1.595-.544-.654.891-.788.898-1.603.088-.448-.445-.689-.429-1.072.084-.208.278-.405.563-.678.944-.379-.607-.698-1.117-1.029-1.645-.488.486-.486.564-.062.884.425.32.843.649,1.272.963.69.504,1.385,1.003,2.331,1.18-.149-.304-.257-.524-.384-.782.561.03,1.054.057,1.594.086-.049-.331-.083-.562-.132-.896.202.113.337.143.387.224.188.305.348.627.519.942-.305.068-.613.125-.913.208-.17.047-.328.137-.491.207.146.157.269.412.442.453.706.164,1.425.271,2.143.377.109.016.27-.051.341-.135.045-.053-.01-.223-.062-.317-.071-.129-.183-.235-.277-.351.276-.224.664-.385.711-.617.053-.259-.201-.582-.353-.953,1.212.607,1.324,1.085.479,1.655.21.828,1.012,1.101,1.656.54.311-.27.602-.573.852-.9.592-.776.57-.817-.355-1.198-.045-.018-.07-.085-.154-.193.485-.251.959-.472,1.409-.736.463-.271.847-.619.85-1.212-.277-.063-.513-.117-.748-.171.121-.153.25-.182.361-.244.458-.255.972-.454,1.352-.799.551-.501.473-.708-.21-.992-.021-.009-.024-.064-.05-.143,1.336-.297,2.737-.494,3.494-1.89-.257-.093-.437-.158-.617-.223ZM46.718,53.44c-.622-.113-1.203-.23-1.557-.788.884.154,1.704.296,2.549.443-.289.469-.556.9-.872,1.412.237.015.318.039.388.021.935-.232,1.886-.42,2.796-.726.474-.159.589-.63.408-1.235h-1.515c.001-.069.002-.139.003-.208.796-.043,1.593-.085,2.408-.129-.132.409-.257.796-.407,1.26,1.372-.465,2.653-1.416,2.94-2.248-.42.087-.839.197-1.203.403-.476.27-.68.233-.909-.268-.068-.148-.193-.395-.278-.389-.518.036-1.134-.025-1.53.234-2.16,1.412-4.383,1.189-6.077-.746-.973-1.111-1.884-2.277-2.851-3.393-.276-.319-.622-.605-.989-.814-1.128-.644-2.307-1.201-3.42-1.869-1.87-1.122-3.587-2.526-5.731-3.134-1.335-.378-2.692-.675-4.031-1.04-1.665-.453-3.323-.927-4.979-1.412-1.335-.391-2.661-.81-3.991-1.217-.282-.086-.56-.193-.847-.253-.449-.094-.851.059-1.076.444-.242.414-.162.865.204,1.183.351.306.723.641,1.147.801,2.055.777,4.103,1.593,6.207,2.212,1.857.546,3.772.94,5.686,1.234,1.475.227,2.809.577,3.931,1.638.786.743,1.841,1.008,2.88,1.259.622.15,1.313.11,1.837.681h-1.145c.971,1.314,2.552,1.023,3.734,1.6-.021.055-.042.111-.063.166-.328.017-.655.034-1.029.053.319,1.359,1.789,1.407,2.611,2.392-.473-.06-.8-.101-1.23-.155.799,1.187,2.108,1.487,3.095,2.283-.498.072-.995.144-1.65.239.954.829,1.81,1.386,2.923,1.409,1.04.021,1.395-.258,1.634-1.345ZM28.735,84.029c-.171.566-.333.969-.412,1.389-.374,1.98.03,3.81,1.151,5.474.939,1.395,2.292,2.334,3.9,2.569,3.307.483,6.016-.707,7.99-3.443.255-.354.415-.776.652-1.231-.946-.203-1.327-.87-1.647-1.594-.238.078-.423.139-.607.199-1.628.533-3.269.784-5,.559-2.29-.298-4.181-1.167-5.404-3.219-.134-.226-.352-.402-.624-.704ZM80.116,83.823c-.167.225-.272.383-.392.528-1.928,2.327-4.321,3.764-7.423,3.546-1.213-.085-2.406-.509-3.597-.82-.389-.102-.603-.151-.716.345-.084.368-.31.721-.536,1.036-.216.3-.224.516-.024.838,1.882,3.027,5.285,4.402,8.793,3.548,2.48-.604,4.051-2.119,4.569-4.626.277-1.34-.014-2.666-.371-3.965-.036-.131-.164-.237-.304-.43ZM52.558,93.403c-1.057.49-1.982.182-2.737-.668-.235-.265-.685-.34-1.036-.502.01.345-.073.727.047,1.028.436,1.089.962,2.142,1.415,3.225.865,2.07,2.366,3.657,3.89,5.234.266.275.465.235.686,0,.619-.659,1.346-1.251,1.825-2.001,1.081-1.69,2.076-3.439,3.029-5.204.418-.773.649-1.647,1.002-2.575-.784.134-1.505.047-1.584.979-.009.11-.155.22-.255.31-.613.552-1.351.75-2.141.61-.432-.077-.701.067-.998.324-.546.471-1.183.67-1.838.279-.453-.27-.835-.658-1.306-1.039ZM42.296,68.663c.101-.039.203-.078.304-.117.148.269.372.524.428.811.124.636.068,1.317.257,1.927.359,1.159.767,2.315,1.291,3.406.438.91,1.369,1.318,2.226,1.101-2.644-3.353-4.25-7.102-4.55-11.312-1.517-.127-2.255,1.629-2.157,2.808.101,1.213.309,2.43.608,3.61.558,2.203.251,4.276-.692,6.297-.104.223-.175.462-.303.805.319-.037.528-.036.723-.088,1.056-.282,1.703-1.044,2.166-1.965.318-.634.73-1.254.578-2.039-.273-1.409-.528-2.822-.779-4.236-.059-.332-.069-.672-.102-1.009ZM66.086,68.675c.122.017.244.034.365.051,0,.219.051.453-.008.654-.436,1.482-.963,2.942-1.32,4.442-.195.82-.278,1.708.173,2.538.384.706,1.56,1.329,2.264,1.12-.936-3.182-.42-6.308.368-9.428.328-1.298.255-2.591-.359-3.796-.163-.319-.538-.529-.909-.876-.229,2.456-.698,4.652-1.471,6.796-.778,2.158-2.083,4.001-3.336,5.887,1.547-.408,2.425-1.499,2.96-2.855.35-.886.495-1.851.748-2.776.161-.589.349-1.171.525-1.757ZM54.484,11.53c-.015,0-.03.002-.045.003-.125,2.182-.271,4.363-.37,6.546-.131,2.878-.232,5.756-.335,8.635-.067,1.868-.107,3.736-.171,5.604-.063,1.849-.154,3.697-.195,5.546-.005.211.183.506.369.622.319.2.707.291,1.125.45.052-.263.126-.469.127-.676.004-1.101.005-2.202-.021-3.302-.1-4.283-.228-8.566-.308-12.849-.042-2.27.011-4.542-.015-6.813-.015-1.256-.105-2.511-.161-3.766ZM90.628,43.408c-.052-.009-.111-.036-.162-.026-.329.06-.658.121-.983.196-2.033.466-4.08.777-6.176.617-.215-.016-.454-.049-.646.024-.392.148-.767.35-1.134.556-.183.103-.348.25-.491.404-.124.134-.276.305-.28.463-.003.104.221.282.366.31.498.096,1.015.104,1.51.212,1.758.385,3.524.262,5.288.095.34-.032.679-.181.997-.326,1.078-.491,1.799-1.566,1.712-2.526ZM53.593,84.633c-.136,1.514-.308,2.976-.386,4.443-.06,1.118-.055,2.246.032,3.362.036.458.29.955.588,1.315.171.206.646.276.956.227.599-.094.867-.577.931-1.145.298-2.656.374-5.308-.244-7.937-.03-.127-.175-.335-.239-.325-.171.027-.402.112-.471.246-.1.196-.105.453-.106.685-.01,2.299-.008,4.599-.017,6.898-.001.278-.047.556-.073.834-.061.003-.122.005-.183.008-.033-.171-.092-.342-.095-.514-.052-2.445-.097-4.891-.144-7.337-.006-.313.041-.655-.55-.759ZM76.541,49.265c1.439,1.098,2.949,1.597,4.484,2.02,1.058.292,2.126.564,3.244.283.779-.196,1.599-1.143,1.585-1.932-.27,0-.543-.008-.814.001-2.147.076-4.149-.559-6.118-1.296-.487-.182-.834-.329-1.255.104-.302.31-.706.52-1.125.819ZM78.599,47.42c.183.145.284.267.414.322.525.22,1.047.456,1.59.618,1.217.362,2.441.658,3.723.769,1.528.132,2.812-.19,3.788-1.412.168-.21.218-.514.323-.774-.271-.037-.548-.133-.811-.102-2.327.276-4.633.264-6.906-.398-.164-.048-.392-.03-.541.049-.502.265-.983.572-1.58.928ZM57.186,82.882c-.037.046-.074.092-.111.137.203,1.469.459,2.934.599,4.409.266,2.812.172,3.858-.331,4.393-.025-.224-.057-.387-.059-.551-.012-1.103.054-2.213-.043-3.308-.12-1.349-.377-2.686-.57-4.029-.04-.279-.153-.469-.463-.348-.245.095-.418.212-.303.575.165.521.265,1.072.318,1.617.215,2.213.313,4.43.209,6.655-.011.233.121.651.252.68.399.087.949.187,1.224-.014.524-.383.863-.962.893-1.695.116-2.754-.323-5.419-1.208-8.017-.065-.192-.268-.337-.407-.504ZM18.185,43.656c-.258,1.127.535,2.378,1.567,2.579,2.532.493,5.074.381,7.614.055.179-.023.345-.147.611-.266-.41-.236-.774-.335-.959-.574-.559-.721-1.309-.754-2.113-.767-1.685-.028-3.377-.017-5.006-.579-.545-.188-1.117-.295-1.714-.449ZM25.707,44.202c-.182-.311-.295-.415-.29-.512.032-.606-.404-.644-.83-.763-1.321-.369-2.648-.726-3.943-1.175-1.242-.43-2.451-.957-3.664-1.467-.462-.194-.59-.033-.627.409-.07.834.236,1.487.945,1.898.524.304,1.09.556,1.664.749,1.552.523,3.158.789,4.793.857.598.025,1.197.004,1.953.004ZM52.992,84.107c-.052-.008-.104-.016-.156-.024-1.052,2.577-1.643,5.241-1.436,8.071-.162-.081-.273-.155-.291-.248-.095-.502-.259-1.013-.232-1.512.106-1.95.55-3.833,1.249-5.658.111-.29.116-.621.174-.953-.582.014-.643.082-.827.516-.677,1.591-1.189,3.232-1.391,4.95-.094.796-.101,1.613-.045,2.413.05.724,1.052,1.45,1.756,1.377.626-.064.81-.512.814-1.541.004-1.435.072-2.87.146-4.303.053-1.031.158-2.059.24-3.089ZM19.877,47.092c.269.472.412.915.707,1.198.505.485,1.172.682,1.88.744,1.983.175,3.931-.097,5.868-.457.555-.103,1.085-.34,1.742-.554-.297-.225-.436-.383-.61-.453-.609-.246-1.052-.798-1.871-.652-2.473.441-4.974.27-7.716.172ZM84.242,43.701c.007.052.015.105.022.157,1.786-.25,3.581-.454,5.357-.765,1.425-.249,2.227-1.246,2.631-2.58.055-.181-.04-.408-.066-.614-.193.054-.398.085-.577.17-.156.074-.268.25-.426.309-1.454.541-2.898,1.115-4.375,1.581-1.215.383-2.475.62-3.705.957-.168.046-.282.292-.421.445.185.113.36.292.558.326.326.055.667.015,1.002.015ZM49.342,82.249c-.067.085-.121.141-.159.206-1.186,2.025-1.664,4.226-1.605,6.555.021.837.283,1.598.876,2.197.217.219.546.329.817.485.184-1.379.338-2.605.515-3.827.07-.482.133-.977.297-1.431.359-.992.781-1.962,1.177-2.942.029-.072.095-.168.071-.217-.094-.191-.217-.368-.329-.55-.159.128-.378.225-.465.391-.18.342-.301.717-.427,1.086-.208.608-.482,1.209-.583,1.836-.237,1.474-.387,2.963-.577,4.445-.016.122-.068.24-.104.36-.059.005-.119.009-.178.014-.064-.307-.202-.618-.18-.919.144-2.021.369-4.029,1.193-5.915q.552-1.263-.34-1.775ZM22.765,49.804c.331,1.041.883,1.459,1.922,1.511,2.013.102,3.957-.261,5.866-.866.337-.107.687-.186,1.008-.33.45-.203.458-.478.045-.755-.26-.174-.556-.303-.79-.505-.272-.236-.519-.24-.856-.155-.931.235-1.869.468-2.818.605-1.439.207-2.89.331-4.376.495ZM40.013,74.57c-.112-.01-.188-.028-.262-.022-.989.074-1.982,1.057-2.064,2.04-.1,1.193.601,2.372,1.699,2.475,1.62.152,3.259.107,4.891.137.43.008.534-.306.5-.643-.027-.269-.162-.525-.229-.791-.154-.617-.301-1.236-.439-1.857-.05-.227-.066-.462-.098-.693-.275.199-.407.412-.537.625-.335.552-.615,1.15-1.016,1.649-.784.974-1.894,1.304-3.096,1.272-.629-.017-.72-.315-.474-.889.45-1.051,1.221-1.996,1.125-3.303ZM83.195,52.31c-2.16-.539-4.33-.946-6.252-2.091-.369-.22-.717-.463-1.161-.05-.293.272-.7.421-1.121.663.209.18.31.31.443.376,1.123.558,2.22,1.187,3.388,1.627.959.362,1.994.579,3.015.706.9.112,1.406-.333,1.688-1.231ZM59.551,91.511c.201-.034.407-.023.567-.104.794-.401,1.269-1.006,1.282-1.949.039-2.693-.861-5.14-1.928-7.547-.055-.124-.104-.25-.156-.375l-.318.181c.071.308.103.63.218.92.871,2.209,1.3,4.494,1.206,6.869-.009.219-.104.434-.158.651-.074-.006-.147-.012-.221-.017-.058-2.692-.463-5.307-1.67-7.772-.124.218-.193.448-.153.656.348,1.794.756,3.578,1.062,5.379.17,1.001.182,2.029.27,3.108ZM33.948,51.272c-.604-.765-1.324-.974-2.153-.697-.67.224-1.338.474-2.026.618-1.325.277-2.666.479-3.996.738-.145.028-.371.241-.361.349.038.404.673.919,1.101.925,2.639.04,5.076-.697,7.435-1.934ZM73.011,52.347c.301.32.479.601.733.761.614.387,1.245.759,1.904,1.06,1.088.497,2.188.99,3.43.948.788-.027,1.315-.36,1.518-.997-.422-.138-.845-.275-1.267-.416-1.601-.535-3.212-1.043-4.595-2.073-.163-.122-.518-.135-.706-.042-.341.168-.623.455-1.016.759ZM48.498,79.996c-.534-.253-.98-.013-1.31.464-.39.565-.725,1.167-1.101,1.742-.535.818-.714,1.638-.158,2.531.173.278.231.626.368.93.148.329.326.645.526,1.034.559-1.539,1.04-2.98,1.609-4.385.315-.777.512-1.509.066-2.318ZM64.638,76.794c-.273.399-.53.769-.782,1.142-.532.789-.351,1.226.595,1.254.854.025,1.713-.111,2.569-.111,1.913-.002,2.815-.891,2.678-2.698-.067-.879-1.04-1.824-1.907-1.785.019.349-.013.71.069,1.044.169.686.406,1.354.602,2.034.167.578-.031.823-.573.733-1.206-.202-2.281-.678-3.252-1.611ZM27.875,53.801c.385.882,1.107,1.247,2.1,1.021,1.183-.27,2.368-.553,3.525-.917.824-.259,1.603-.661,2.448-1.018-.221-.288-.347-.463-.485-.629-.564-.678-.642-.683-1.439-.344-.758.322-1.512.669-2.299.901-1.254.37-2.534.654-3.85.987ZM30.13,55.434c.203.561.502.943,1.004.901.873-.073,1.766-.155,2.597-.41,1.322-.406,2.599-.958,3.91-1.453-.647-1.299-.933-1.339-2.068-.888-1.456.579-2.964,1.027-4.45,1.529-.324.109-.65.211-.992.322ZM61.983,87.034c.244-.823.454-1.576.693-2.319.213-.664.236-1.315-.06-1.956-.591-1.278-1.307-2.434-2.946-2.817,0,.313-.103.661.016.896.956,1.888,1.557,3.896,2.089,5.931.025.094.129.168.208.265ZM78.495,55.725c-.534-.182-.989-.353-1.455-.491-1.498-.445-2.899-1.092-4.208-1.946-.142-.092-.418-.18-.51-.109-.269.207-.621.472-.663.756-.033.224.305.556.545.759,1.221,1.031,2.718,1.518,4.224,1.872.555.131,1.234-.219,1.841-.4.115-.034.16-.306.224-.44ZM41.844,56.701c-.146.055-.208.063-.251.097-1.53,1.18-3.235,2.017-5.07,2.602-.104.033-.25.174-.244.257.008.128.102.284.208.368.899.711,2.309.642,3.4-.136.513-.366.973-.815,1.509-1.138.484-.292.61-.679.563-1.181-.025-.272-.071-.542-.115-.868ZM59.656,48.769c.056-.034.112-.069.167-.103,0-.111.01-.224-.002-.334-.077-.702-.704-1.002-1.082-1.486-.324-.414-.581-.465-.993-.06-.644.632-.688.613-1.343-.002-.4-.376-.719-.361-1.106.026-.475.474-.612.441-.936-.081-.412-.664-.544-.679-1.107-.121-.149.148-.288.305-.416.441.244.441.455.822.682,1.231.202-.142.339-.219.453-.322.645-.584.664-.584,1.149.125.491.718.908.687,1.3-.097.225-.451.484-.47.806-.085.282.337.593.652.948,1.038.248-.504.437-.889.634-1.29.317.419.581.769.846,1.119ZM32.082,56.826c.728.985,1.272,1.247,2.28.85,1.349-.532,2.64-1.21,3.962-1.81.44-.2.592-.421.315-.897-.263-.452-.51-.411-.909-.195-1.653.892-3.38,1.591-5.253,1.875-.12.018-.23.102-.394.178ZM70.227,55.353c.401.367.786.874,1.296,1.154,1.031.566,2.108,1.064,3.208,1.478.494.186,1.109.169,1.559-.264.125-.12.23-.326.224-.489-.003-.087-.253-.197-.407-.241-1.582-.45-3.085-1.07-4.404-2.072-.813-.618-.803-.632-1.382.189-.021.03-.028.071-.095.245ZM41.916,61.273c-.111,0-.179-.02-.222.003-.19.103-.375.216-.559.33-1.129.698-1.761.638-2.72-.267-.33-.311-.68-.423-1.123-.168.88,1.171,1.738,2.313,2.594,3.452.681-.443,1.315-.842,1.931-1.267.109-.075.201-.263.198-.397-.011-.548-.061-1.096-.099-1.686ZM40.679,56.871c-.01-.092-.02-.184-.03-.275-.353-.194-.698-.406-1.064-.572-.117-.053-.309-.024-.434.036-1.13.542-2.244,1.119-3.383,1.642-.505.232-1.056.363-1.588.54.237.643,1.15,1.112,1.771.84,1.594-.696,3.154-1.469,4.728-2.211ZM76.041,44.947c.722.108,1.366.258,2.016.292,1.315.069,2.544-.22,3.515-1.178.223-.22.321-.566.477-.855-.049-.056-.098-.111-.147-.167-.338.05-.677.096-1.014.151-.87.142-1.74.406-2.608.401-1.03-.007-1.642.484-2.239,1.356ZM69.029,56.678c.94,1.018,1.956,1.882,3.159,2.499.578.296,1.91-.082,2.361-.654-.321-.165-.617-.353-.939-.475-1.185-.45-2.328-.94-3.242-1.881-.638-.657-.684-.61-1.132.201-.046.084-.106.161-.207.311ZM75.869,48.962c-.132-.021-.226-.035-.321-.05-1.122-.185-2.285-.247-3.351-.6-.717-.237-1.31-.307-1.939.046-.181.102-.339.324-.401.523-.025.081.216.331.369.367,1.312.314,2.623.646,3.953.868.71.118,1.537-.51,1.69-1.155ZM71.811,47.752c.776.208,1.403.428,2.049.536.731.123,1.478.182,2.221.202.636.017,1.322-.516,1.474-1.088-.232-.039-.459-.081-.687-.115-1.238-.185-2.517-.19-3.639-.875-.102-.062-.352-.054-.417.022-.324.38-.609.792-1.001,1.319ZM67.32,57.866c.857.815,1.636,1.587,2.45,2.319.567.509,1.386.527,2.022.113.434-.282.42-.491,0-.779-.745-.51-1.501-1.012-2.202-1.58-.987-.799-.968-.823-2.27-.074ZM31.96,45.186c-.296-.772-.571-1.022-1.203-1.127-1.008-.168-2.023-.296-3.034-.452-.522-.081-1.04-.185-1.559-.279-.025.061-.05.123-.075.184.309.401.598.82.937,1.193.152.168.399.338.611.348,1.404.067,2.811.092,4.322.133ZM34.408,46.433c-.754-.437-1.405-1.054-2.387-.919-.913.125-1.838.167-2.757.244-.201.017-.403.029-.686.049.309.798.875,1.108,1.545,1.253,1.483.321,2.868-.147,4.285-.627ZM32.474,49.215c.001.085.003.17.004.255.352.149.692.364,1.059.435,1.441.278,2.862.142,4.231-.379.289-.11.709-.356.735-.578.066-.567-.469-.636-.892-.698-.202-.03-.424.039-.632.083-.96.203-1.916.422-2.878.615-.538.108-1.085.179-1.627.266ZM36.717,47.915c-.313-.278-.557-.427-.71-.642-.336-.472-.712-.471-1.23-.311-.915.283-1.858.474-2.792.693-.345.081-.698.13-1.047.194-.02.078-.04.156-.06.234.458.209.903.554,1.377.601,1.504.151,2.937-.243,4.462-.769ZM66.775,58.449c0,.598.002,1.086,0,1.575-.005,1,1.403,2.021,2.362,1.712.447-.144.665-.684.363-.95-.868-.764-1.754-1.507-2.724-2.337ZM74.34,46.024c.032.044.062.136.121.161,1.226.511,2.494.885,3.824.588.546-.122,1.181-.31,1.372-.959-.98-.078-1.919-.104-2.843-.24-.871-.128-1.725-.37-2.474.45ZM68.611,64.319c.775-.943,1.595-1.94,2.415-2.937-.04-.053-.079-.106-.119-.158-.19.11-.424.18-.562.336-.739.835-1.057.934-2.108.543-.487-.181-.963-.391-1.554-.633.055.443-.018.859.156,1.067.52.62,1.137,1.158,1.771,1.781ZM73.931,50.702c-1.302-.327-2.542-.617-3.768-.953-.694-.19-.964-.061-1.178.716.075.047.15.124.238.144,1.085.244,2.165.516,3.259.702.554.094,1.079-.1,1.449-.609ZM41.195,53.43c.342-.302.59-.521.838-.74-.038-.071-.075-.141-.113-.212-1.414.231-2.829.463-4.242.694.352.951,2.873,1.342,3.998.52-.154-.084-.291-.159-.481-.262ZM39.798,50.449c-.477-.812-1.109-.827-1.839-.489-.21.097-.452.13-.683.177-.867.178-1.735.35-2.65.533,1.171.788,4.434.618,5.172-.221ZM67.829,52.136c1.342.121,2.524.241,3.708.327.433.032.718-.218.895-.689-.252-.041-.46-.069-.666-.109-.942-.18-1.898-.312-2.817-.572-.353-.1-.523-.031-.689.199-.134.186-.215.411-.432.844ZM40.773,52.022c-.694-.929-.703-.904-1.717-.679-.74.164-1.502.231-2.254.342-.24.036-.481.073-.757.116.715.897,3.219.996,4.727.221ZM66.997,52.489c.23.374.418.679.677,1.099,1.305.478,3.278.286,3.763-.494-.242-.058-.461-.137-.686-.159-1.093-.107-2.205-.082-3.23-.595-.126-.063-.364.099-.524.148ZM69.925,54.287c-.911-.074-1.713-.115-2.508-.214-.502-.063-.821.219-.866.592-.027.223.336.676.574.713.839.134,1.696.102,2.39-.515.148-.132.238-.33.41-.576ZM55.457,81.72c-.609-.033-.744.172-.668.743.039.292-.113.609-.209,1.053-.642-.66.07-1.785-1.072-2.012-.125.907-.123,1.719.456,2.415.321.385.632.395.92.002.479-.653.716-1.381.573-2.201ZM39.279,54.716c.158.683.717.973,1.232,1.126.399.118.895-.082,1.345-.156.046-.008.098-.12.108-.189.055-.358.098-.718.154-1.149-.932.121-1.833.238-2.84.368ZM64.631,84.257c.859.117,1.485-.613,2.263-.785.029.06.059.12.088.18-.572.446-1.145.892-1.731,1.349.205.09.466.291.731.295.245.004.603-.137.719-.33.348-.576.602-1.209.903-1.841-.503-.354-1.037-.4-1.533-.055-.502.349-.949.777-1.441,1.188ZM49.94,79.039c-.09.012-.181.023-.271.035-.328.83-.379,1.687.093,2.468.171.283.629.393,1.001.609.38-1.666.335-2.141-.195-2.301-.04.267-.079.527-.121.805-.601-.074-.401-.476-.406-.805-.004-.27-.065-.54-.101-.81ZM41.81,59.349c-.764.44-1.509.848-2.23,1.295-.353.218-.28.488.089.678.738.381,1.094-.255,1.599-.537.604-.337.73-.811.543-1.436ZM45.15,76.167c-.056.041-.112.083-.168.124.094.474.187.948.281,1.421.074.373.359.45.623.31.298-.158.59-.394.775-.67.084-.126-.026-.547-.168-.629-.416-.24-.891-.378-1.343-.556ZM44.426,84.548c-.503-.117-.882-.228-1.269-.289-.735-.116-1.527-.107-1.796-1.036-.019-.065-.159-.094-.28-.16.271,1.89,1.773,2.38,3.346,1.485ZM61.612,78.068c-.156.348-.316.6-.378.874-.056.251-.114.661.017.766.489.392.753-.254,1.147-.372.15-.045.238-.305.347-.471.012-.018-.017-.085-.045-.103-.323-.21-.649-.415-1.089-.695ZM61.842,77.131c.201.268.337.545.558.704.119.086.497.04.563-.067.347-.56.632-1.159,1.01-1.882-.789.461-1.408.823-2.131,1.245ZM42.778,82.811c.523.219.95.431,1.4.572.19.06.427-.03.643-.052-.063-.23-.054-.55-.204-.669-.263-.208-.617-.312-.945-.422-.618-.207-.888.006-.893.571ZM51.95,80.596c-.657,1.169-.103,2.633.9,2.718-.039-.696-.077-1.387-.116-2.078-.047-.006-.094-.011-.142-.017-.078.343-.157.685-.235,1.028-.09-.009-.179-.018-.269-.027-.046-.541-.093-1.083-.139-1.624ZM65.63,82.05c-.67-.767-1.733-.688-2.228.118-.073.119-.039.323-.006.477.009.043.206.093.293.065.63-.202,1.254-.424,1.942-.66ZM66.017,82.627c-.026-.076-.051-.152-.077-.228-.651.225-1.313.427-1.945.695-.131.055-.156.36-.229.55.179.035.37.129.534.094.71-.153,1.281-.539,1.718-1.112ZM60.958,76.961c-.438.445-.875.783-1.15,1.223-.107.17.138.578.266.857.017.036.403-.004.432-.08.229-.596.681-1.145.452-2ZM68.409,55.946c-.486,0-.926-.043-1.349.022-.163.025-.402.298-.401.457.001.196.182.52.344.564.598.159,1.2-.295,1.405-1.043ZM47.626,77.003c-.061.028-.121.056-.182.083.029.359.029.724.096,1.076.044.23.184.442.281.662.234-.121.482-.223.697-.371.117-.08.18-.239.291-.395-.413-.369-.798-.712-1.183-1.056ZM64.67,80.972c-.359-.271-.712-.645-.803-.589-.371.226-.682.567-.969.906-.069.082.038.314.071.518.571-.28,1.042-.511,1.701-.835ZM62.127,80.811c.062.033.124.066.186.099.372-.289.775-.546,1.104-.877.223-.224.164-.659-.166-.602-.4.069-.79.383-1.104.677-.12.113-.02.462-.02.703ZM44.946,80.017c-.204.293-.472.636-.452.655.331.294.69.563,1.073.784.038.022.42-.434.403-.453-.287-.319-.612-.605-1.025-.986ZM42.109,82.088c.862-.41,1.211-1.241,1.713-1.994-.294-.013-.684-.028-.784.134-.362.588-.628,1.235-.93,1.86ZM58.851,79.284c-.565.205.196,1.341-.907,1.137-.044.388-.091.8-.144,1.266.861-.41,1.276-1.42,1.051-2.403ZM43.288,85.687c-.792.423-1.197,1.447-.88,2.152.614-.574.653-1.342.88-2.152ZM44.706,84.468v.76c.272.07.657.177.354.689.199.116.362.21.749.436-.267.099-.419.156-.572.213.483.129.755-.057.604-.443-.218-.558-.551-1.072-.854-1.593-.035-.059-.196-.045-.281-.062ZM43.648,81.814c.396.147.747.299,1.112.404.159.046.346-.004.52-.011-.083-.162-.146-.34-.257-.48-.094-.118-.238-.201-.37-.284-.491-.308-.78-.196-1.004.37ZM57.135,80.94c-.221.332-.334.715-.545.78-.663.203-.501.649-.477,1.102.714-.19,1.002-.7,1.023-1.881ZM40.564,85.242c-.048-.043-.096-.086-.144-.129-.295.14-.635.228-.868.437-.161.145-.171.456-.249.693.26-.035.603.019.761-.127.235-.217.339-.576.499-.874ZM38.423,84.894c.454-.033.819.543,1.152-.008.07-.116-.209-.614-.42-.696-.451-.176-.579.232-.732.704ZM68.644,86.026c.056-.052.112-.104.167-.156.032-.734-.436-1.173-1.3-1.011.426.439.78.803,1.133,1.167ZM44.358,83.889c-.836-.31-1.671-.619-2.58-.956.557.811.547.682,2.58.956ZM46.517,80.218c.003-.065.006-.129.01-.194-.163-.241-.31-.496-.498-.715-.082-.096-.257-.171-.378-.156-.09.011-.25.233-.228.269.148.242.306.497.523.673.135.11.377.087.571.124ZM65.666,81.385c.083-.074.166-.149.249-.223-.091-.296-.136-.619-.291-.876-.074-.123-.355-.121-.543-.175.005.154-.041.336.025.456.159.288.37.547.56.818ZM67.708,84.101c.04.059.08.117.119.176.309-.226.619-.452.958-.7-.762-.482-.842-.436-1.078.524ZM41.891,86.119c.027-.083.053-.167.08-.25-.286-.088-.569-.211-.862-.24-.076-.007-.181.281-.306.49h1.088ZM40.014,84.432c.055-.058.109-.116.164-.174.032-.387-.178-.61-.54-.681-.081-.016-.195.131-.293.202l.669.652ZM46.93,79.27c-.115-.444-.184-.71-.272-1.052-.272.199-.467.342-.728.533.333.173.596.309,1,.519ZM49.283,42.521c.504-.023.657-.177.438-.449-.305-.379-.717-.61-1.223-.559.42.226.935.342.785,1.008ZM69.894,85.218c-.11-.029-.22-.057-.33-.086l-.247,1.093c.078.021.156.042.234.063.114-.357.229-.714.343-1.071ZM42.125,85.408c.034-.053.069-.107.103-.16-.287-.097-.574-.195-.861-.292-.044.142-.088.285-.139.452h.897Z"/>
    <path class="cls-1" d="M10.602,55.983c.225-.141.453-.257.649-.411.481-.377.923-.807,1.425-1.153.875-.604.932-1.374.66-2.316-.242-.838-.36-1.712-.566-2.737.507.145.893.177,1.19.356.671.405,1.319.857,1.935,1.343.338.267.562.284.925.034.876-.601,1.787-1.154,2.701-1.697.18-.107.438-.084.66-.12.008.218.055.444.016.653-.188,1.004-.421,2-.582,3.008-.03.185.156.466.322.611.698.607,1.429,1.176,2.142,1.766.118.097.207.229.421.472-.43.146-.772.314-1.132.373-.834.138-1.675.256-2.518.318-.464.034-.693.256-.873.642-.374.803-.768,1.596-1.168,2.386-.082.161-.229.288-.346.431-.138-.131-.332-.237-.404-.397-.298-.664-.562-1.343-.832-2.019-.321-.802-.546-.908-1.406-.955-.975-.052-1.945-.195-2.916-.305-.046-.005-.085-.075-.302-.28ZM20.62,55.744c.018-.071.036-.143.054-.214-1.206-.331-2.412-.663-3.618-.994-.038.077-.077.153-.115.23.341.389.619,1.003,1.037,1.12.853.239,1.779.185,2.642-.142ZM17.408,53.594l.138.149c.57-.185,1.334-.1,1.591-.784.267-.711.337-1.496.494-2.249-.08-.037-.161-.074-.241-.11-.661.998-1.321,1.996-1.982,2.995ZM14.171,50.746c.663.946,1.326,1.891,2.028,2.891.594-1.522.219-2.073-2.028-2.891ZM18.903,50.567c-1.838.458-2.484,1.419-2.031,2.963.709-1.034,1.37-1.998,2.031-2.963ZM15.784,54.403c0-.09.002-.181.002-.271-.542-.121-1.189-.485-1.603-.308-.724.31-1.305.954-1.946,1.458l.105.18c1.147-.353,2.294-.706,3.441-1.059ZM15.783,54.824c-1.082.344-2.036.647-2.989.95,2.228.655,2.286.797,2.989-.95ZM17.854,54.15c.009.072.017.143.026.215,1.031.291,2.062.583,3.093.874.033-.051.066-.101.099-.152-.522-.45-.98-1.075-1.586-1.292-.445-.159-1.081.217-1.632.354ZM13.782,50.933c-.055.026-.109.051-.164.077.083.411.168.821.248,1.233q.229,1.18,1.4,1.333c.068.009.138.001.386.001-.675-.954-1.273-1.799-1.871-2.644ZM16.261,58.258v-2.849c-1.065,1.141-1.068,1.388,0,2.849ZM16.702,58.163c1.196-1.803,1.109-1.854,0-2.863v2.863Z"/>
    <path class="cls-1" d="M92.473,59.542c-.357-.579-.785-1.127-1.057-1.743-.538-1.222-1.42-1.724-2.74-1.657-.807.041-1.623-.077-2.435-.123-.018-.074-.036-.147-.054-.221.432-.36.859-.726,1.297-1.08,2.117-1.713,1.914-1.298,1.31-3.751-.135-.547-.273-1.093-.462-1.844.723.302,1.29.501,1.824.767,1.826.912,1.816.912,3.492-.236.658-.451,1.35-.852,2.187-1.376,0,.43.034.657-.006.871-.187,1.004-.373,2.009-.602,3.004-.116.504-.023.88.394,1.195.488.368.968.748,1.428,1.15.229.2.406.46.697.798-1.038.238-1.946.471-2.864.647-.57.109-.86.392-1.056.952-.317.903-.76,1.762-1.15,2.639-.068.003-.135.005-.203.008ZM95.002,49.631c-.061-.066-.121-.132-.182-.198-.787.469-1.576.936-2.36,1.41-.06.036-.131.117-.132.178-.01.634-.006,1.269-.006,1.903.064.028.128.055.192.083l2.488-3.376ZM92.553,58.263c.072.016.145.032.217.048.27-.808,1.056-1.467.794-2.408-.15-.537-.571-1.031-1.214-1.318.071,1.294.137,2.486.203,3.679ZM91.391,54.3c-1.261.412-2.418.79-3.574,1.168.006.051.013.102.019.153.501.062,1.001.131,1.502.183,1.129.118,1.602-.201,2.053-1.504ZM92.984,53.175c1.231-.013,1.692-.357,1.932-1.375.12-.509.204-1.027.305-1.541-.072-.025-.144-.05-.216-.075-.659.976-1.318,1.951-2.021,2.991ZM93.222,54.182c.625,1.554,1.93,1.826,3.199.777-1.109-.269-2.154-.523-3.199-.777ZM89.795,50.142c-.043.04-.086.08-.129.12.664.845,1.329,1.689,1.993,2.534.061-.03.122-.059.183-.089,0-.512.025-1.027-.018-1.536-.01-.125-.22-.274-.37-.341-.546-.245-1.105-.461-1.659-.688ZM91.437,53.142c-.743-.9-1.407-1.704-2.071-2.508-.054.038-.108.076-.162.113.053.305.109.61.159.915.215,1.291.559,1.562,2.073,1.479ZM88.059,54.796c.023.047.045.093.068.14,1.039-.35,2.079-.699,3.163-1.064-.092-.129-.113-.191-.155-.213-1.046-.543-1.607-.447-2.403.407-.225.242-.448.487-.672.73ZM91.878,57.753c.04-.026.079-.051.119-.077v-2.771c-.405.271-.676.574-.924.893-.076.097-.165.281-.124.358.291.542.615,1.067.929,1.597ZM93.508,53.682c0,.053-.001.105-.002.158l2.742.718c.035-.063.07-.125.105-.188-.484-.367-.922-.88-1.467-1.051-.384-.12-.914.226-1.379.363Z"/>
    <path class="cls-1" d="M62.399,71.311c.57-2.601-.168-5.202.102-7.845h-1.525v9.867c.137-.054.262-.104.485-.193-1.785,2.82-4.03,4.979-6.891,6.477-.134.07-.388.048-.522-.035-2.781-1.731-5.013-4.008-6.675-6.829-.108-.183.034-.504.035-.761.006-1.303.004-2.607.004-3.91,0-1.518,0-3.037,0-4.61h-1.094c.315,2.542-.488,5.102.214,7.642-1.302-2.542-1.963-5.252-2.183-8.122h20.243c-.185,2.94-.876,5.709-2.193,8.32ZM53.401,78.957v-15.492h-1.082c0,.242,0,.435,0,.628-.001,4.321.031,8.643-.031,12.963-.013.93.462,1.375,1.114,1.9ZM49.168,63.451c0,.305,0,.576,0,.847,0,3.219.048,6.439-.026,9.657-.026,1.13.784,1.541,1.4,2.347v-12.851h-1.374ZM55.298,78.885c.677-.417,1.042-.746,1.035-1.501-.044-4.42-.022-8.841-.022-13.262,0-.227,0-.453,0-.671h-1.013v15.435ZM58.12,63.431v13.385c.426-.608,1.071-.81,1.068-1.563-.017-3.712-.007-7.424-.009-11.136,0-.227-.022-.454-.034-.686h-1.024Z"/>
    <path class="cls-1" d="M54.557,53.249c2.902,2.608,6.386,3.623,10.323,3.402v5.073c-.143.02-.291.058-.439.058-6.592.004-13.184,0-19.776.013-.444,0-.623-.095-.612-.587.033-1.495.012-2.991.012-4.521,1.115-.091,2.172-.162,3.225-.267,1.858-.184,3.672-.562,5.269-1.584.691-.442,1.294-1.021,1.997-1.586ZM56.107,59.628c-.178.128-.416.299-.604.434.085.231.176.48.255.694h.73c.084-.219.186-.486.262-.683-.209-.145-.442-.305-.643-.444ZM54.624,54.473c-.234.155-.461.304-.637.421.086.239.176.491.25.697h.738c.093-.245.192-.504.258-.679-.232-.167-.445-.32-.609-.439ZM63.801,61.021c.08-.232.176-.51.243-.702-.216-.159-.44-.324-.588-.433-.245.155-.476.302-.623.395.072.29.139.56.184.74h.784ZM45.301,58.365h.725c.101-.253.199-.499.258-.646-.216-.173-.43-.345-.614-.492-.176.133-.412.312-.603.457.073.214.157.46.233.681ZM56.788,56.526c.074.257.146.51.206.717h.754c.086-.251.175-.514.242-.708-.221-.158-.437-.312-.611-.436-.195.141-.4.289-.59.427ZM46.281,60.44c-.214-.159-.431-.32-.575-.428-.241.147-.475.29-.646.394.082.267.164.536.224.733h.757c.078-.228.166-.482.241-.699ZM51.585,57.108h.747c.087-.225.188-.489.266-.69-.218-.156-.446-.317-.64-.456-.177.129-.416.303-.601.437.077.241.158.493.228.709ZM59.437,60.196c.064.232.139.502.192.696h.776c.068-.214.154-.48.218-.68-.204-.163-.419-.335-.588-.469-.177.135-.388.294-.598.454ZM63.78,58.5c.094-.245.193-.503.264-.689-.198-.139-.426-.299-.62-.436-.207.14-.445.301-.601.407.075.266.15.53.203.719h.754ZM48.664,60.377c.074.222.159.474.224.668h.76c.065-.199.148-.449.217-.659-.184-.152-.41-.338-.585-.482-.201.154-.429.329-.616.473ZM52.731,59.642c-.233.146-.463.291-.623.392.082.261.164.524.224.717.276.015.554.029.756.04.088-.256.177-.518.25-.73-.195-.134-.423-.291-.608-.419ZM61.123,57.57c-.213-.167-.431-.338-.578-.453-.235.161-.464.317-.635.434.087.253.172.501.233.677.292.018.556.034.755.046.078-.246.159-.499.224-.705ZM49.325,57.981c.065-.213.142-.464.203-.663-.188-.153-.405-.33-.562-.459-.232.161-.461.321-.617.429.078.268.151.518.201.693h.775Z"/>
    <path class="cls-1" d="M51.677,41.836c.202.645.759.747,1.306.817.379.048.769.009,1.328.009-.586.319-1.1.425-1.575.29-.413-.118-.782-.423-1.137-.69-.113-.085-.366-.371.091-.413,0,0-.014-.013-.014-.013Z"/>
  </g>
</svg>